<?xml version="1.0" encoding="UTF-8" standalone="no"?>
<!DOCTYPE svg  PUBLIC '-//W3C//DTD SVG 1.1//EN'  'http://www.w3.org/Graphics/SVG/1.1/DTD/svg11.dtd'>
<svg xmlns="http://www.w3.org/2000/svg" version="1.1">
<defs>
<font id="AGLettericaCondensed-Oblique" horiz-adv-x="500">
<font-face bbox="-71 -215 935 959" font-weight="400" units-per-em="1000" descent="-200" underline-thickness="58" cap-height="750" panose-1="0 0 0 0 0 0 0 0 0 0" ascent="800" underline-position="-177" unicode-range="U+0020-00FE" font-family="AGLettericaCondensed" font-style="oblique" x-height="556"/>
<missing-glyph/>
<glyph glyph-name="space" horiz-adv-x="250" unicode=" "/>
<glyph d="M126 183l37 337l40 230h91l-40 -230l-83 -337h-45zM162 0h-91l18 100h91z" glyph-name="exclam" horiz-adv-x="333" unicode="!"/>
<glyph d="M84 513l40 226h52l-40 -226h-52zM195 513l40 226h52l-40 -226h-52z" glyph-name="quotedbl" horiz-adv-x="250" unicode='&quot;'/>
<glyph d="M-17 0l124 254h-107l27 59h108l60 124h-109l27 59h109l124 254h55l-123 -254h88l122 254h56l-123 -254h111l-27 -59h-112l-60 -124h112l-25 -59h-115l-123 -254h-55l123 254h-87l-125 -254h-55zM191 313h87l60 124h-88z" glyph-name="numbersign" unicode="#"/>
<glyph d="M275 326l-46 -264q60 0 91 31t41 91q2 8 3 19t1 19q0 39 -23 63q-18 19 -67 41zM187 62l49 280q-94 46 -122 83.5t-28 87.5q0 16 3 36q15 87 75 144t144 57l12 65h44l-12 -65q73 0 109 -37t36 -105q0 -26 -6 -58h-81q2 19 3.5 31.5t1.5 22.5q0 23 -6 38t-23 24 q-23 9 -47 9l-45 -255q76 -38 96 -51q66 -44 66 -117q0 -20 -2 -31.5t-3 -17.5q-18 -101 -78 -159.5t-158 -58.5l-17 -101h-42l17 101q-82 0 -120.5 39.5t-38.5 110.5q0 40 13 97h80q-6 -31 -8.5 -48.5t-2.5 -37.5q0 -40 18 -60q22 -24 73 -24zM253 436l42 239 q-42 0 -72 -25q-35 -29 -46 -89q-3 -15 -3 -27q0 -27 14.5 -49t64.5 -49z" glyph-name="dollar" unicode="$"/>
<glyph d="M677 750l-467 -765h-54l470 765h51zM739 186q-18 -100 -65 -145q-43 -41 -112 -41q-44 0 -69 28q-30 33 -30 98q0 28 6 63q14 78 51 121q44 52 119 52q57 0 83 -35q22 -29 22 -85q0 -16 -1 -25.5t-4 -30.5zM581 56q41 0 64 39q16 27 24 74q3 15 5.5 37t2.5 31 q0 32 -10 48q-13 21 -43 21q-44 0 -67 -49q-13 -28 -24 -88q-1 -10 -3 -23.5t-2 -22.5q0 -31 11.5 -49t41.5 -18zM274 736q56 0 82 -35q23 -31 23 -85q0 -29 -6 -59q-17 -98 -53 -141t-101 -43q-12 0 -18 1q-53 5 -77 28q-27 26 -27 86q0 33 7 72q14 79 50 123q44 53 120 53 zM216 430q41 0 64 39q16 27 24 74q3 15 5.5 37t2.5 31q0 32 -10 48q-13 21 -43 21q-44 0 -67 -49q-13 -28 -24 -88q-1 -10 -3 -23.5t-2 -22.5q0 -31 11.5 -49t41.5 -18z" glyph-name="percent" horiz-adv-x="833" unicode="%"/>
<glyph d="M400 127l-120 243q-59 -38 -88 -72q-35 -41 -46 -99q-3 -17 -3 -31q0 -52 32.5 -81.5t88.5 -29.5q37 0 70.5 18.5t65.5 51.5zM325 469q46 31 68 55q30 34 38 77q2 14 2 20q0 28 -14.5 45t-44.5 17q-31 0 -54.5 -23.5t-29.5 -55.5q-2 -14 -2 -21q0 -35 17 -75q0 -1 20 -39 zM351 414l107 -210q35 66 54 140h74q-16 -62 -34 -106q-23 -55 -57 -101l75 -139h-101l-35 69q-84 -85 -192 -85q-88 0 -137 45t-49 125v19t4 29q14 79 67 135q40 43 127 92q-20 34 -32 66t-12 66q0 16 3 36q12 65 58.5 110t110.5 45q61 0 97.5 -31.5t36.5 -87.5 q0 -13 -3 -30q-10 -55 -60 -108q-40 -42 -102 -79z" glyph-name="ampersand" horiz-adv-x="667" unicode="&amp;"/>
<glyph d="M139 513l40 226h52l-40 -226h-52z" glyph-name="quotesingle" horiz-adv-x="250" unicode="&apos;"/>
<glyph d="M313 750h53q-36 -54 -71 -108q-45 -74 -76 -152q-41 -102 -60 -210.5t-19 -195.5q0 -80 14 -150t47 -149h-58q-38 87 -60 175t-22 177q0 57 11 123q25 141 84 256q51 100 157 234z" glyph-name="parenleft" horiz-adv-x="333" unicode="("/>
<glyph d="M14 -215h-53q36 54 71 108q45 74 76 152q41 102 60 210.5t19 195.5q0 151 -61 299h58q38 -87 60 -175t22 -177q0 -57 -11 -123q-24 -139 -84 -256q-51 -100 -157 -234z" glyph-name="parenright" horiz-adv-x="333" unicode=")"/>
<glyph d="M181 669l105 -44l22 125h52l-21 -122l118 41l7 -48l-120 -38l59 -96l-47 -32l-60 99l-89 -94l-38 27l91 93l-104 45z" glyph-name="asterisk" unicode="*"/>
<glyph d="M216 289l38 216h70l-38 -216h172l-12 -70h-172l-39 -219h-70l39 219h-171l12 70h171z" glyph-name="plus" unicode="+"/>
<glyph d="M79 0h-49l18 100h91q-6 -34 -11.5 -64.5t-12.5 -53.5q-7 -34 -22 -60q-18 -30 -46 -48q-7 -5 -18.5 -10.5t-24.5 -9.5l8 45q14 2 25 13q18 16 28 38.5t14 49.5z" glyph-name="comma" horiz-adv-x="250" unicode=","/>
<glyph d="M286 275h-243l15 83h243z" glyph-name="hyphen" horiz-adv-x="333" unicode="-"/>
<glyph d="M121 0h-91l18 100h91z" glyph-name="period" horiz-adv-x="250" unicode="."/>
<glyph d="M-7 -27h-61l380 777h61z" glyph-name="slash" horiz-adv-x="278" unicode="/"/>
<glyph d="M149 382q-10 -53 -20 -112t-10 -96q0 -54 20.5 -84t71.5 -30q58 0 95 51q30 41 51 123q10 40 29 148q8 44 15 88.5t7 79.5q0 58 -18 88q-22 37 -71 37q-99 0 -145 -170q-6 -22 -25 -123zM197 -15q-87 0 -125 62q-31 50 -31 142q0 47 6 95q3 23 14 85q18 99 38 161 q32 99 81 152q62 68 152 68q89 0 129 -58q32 -47 32 -135q0 -38 -3.5 -69.5t-19.5 -118.5q-20 -115 -40 -175q-32 -96 -81 -147q-61 -62 -152 -62z" glyph-name="zero" unicode="0"/>
<glyph d="M184 0l96 546h-160l12 65q88 0 129 25q50 30 73 114h65l-132 -750h-83z" glyph-name="one" unicode="1"/>
<glyph d="M323 307l-157 -123q-58 -45 -73 -109h317l-13 -75h-403q10 49 22.5 86t36.5 76q9 16 32 39q18 18 40 36l167 138q54 45 75.5 76.5t32.5 91.5q2 9 3 21t1 21q0 43 -20 65q-23 25 -72 25q-69 0 -105 -60q-25 -42 -37 -120h-83l8 46q8 43 26 80.5t49 69.5q36 32 76 45.5 t83 13.5q80 0 120.5 -41.5t40.5 -113.5q0 -22 -5 -54q-13 -78 -54 -132q-31 -42 -108 -102z" glyph-name="two" unicode="2"/>
<glyph d="M200 349l13 75h26q61 0 90 18q47 29 61 110q2 9 3 21t1 22q0 38 -20 59t-67 21q-64 0 -96 -44q-24 -33 -37 -103h-79q14 100 69 158q60 64 158 64q74 0 116 -39t42 -107q0 -21 -4 -40q-11 -65 -40 -104q-32 -44 -94 -65q51 -12 74.5 -46t23.5 -85v-26q-3 -12 -4 -17 q-20 -110 -80 -170q-66 -66 -173 -66q-86 0 -125.5 41.5t-39.5 115.5q0 21 1.5 32t7.5 46h82q-9 -33 -9 -63q0 -45 22 -69q26 -28 82 -28q59 0 96.5 36.5t47.5 97.5q6 33 6 57q0 58 -35.5 78t-118.5 20z" glyph-name="three" unicode="3"/>
<glyph d="M360 620l-270 -358h207zM25 264l365 486h76l-86 -488h67l-13 -75h-67l-33 -187h-83l33 187h-273z" glyph-name="four" unicode="4"/>
<glyph d="M28 196h86q-6 -27 -6 -50q0 -41 22.5 -63.5t70.5 -22.5q61 0 102 55q36 48 49 126q3 18 5 34.5t2 32.5q0 51 -20 77q-24 32 -80 32q-76 0 -117 -68h-74l112 386h319l-14 -75h-252l-72 -222q63 54 131 54q80 0 120 -51q35 -45 35 -123q0 -31 -6 -64q-21 -115 -76 -184 q-68 -85 -176 -85q-83 0 -126 38t-43 110q0 26 8 63z" glyph-name="five" unicode="5"/>
<glyph d="M365 242q4 26 4.5 36.5t0.5 16.5q0 49 -20 75q-24 31 -78 31q-67 0 -104 -49q-28 -37 -39 -102q-10 -44 -10 -80q0 -58 26 -84t73 -26q50 0 85 37q44 47 62 145zM206 -15q-95 0 -137 58q-34 47 -34 138q0 35 4.5 71.5t12.5 80.5q19 113 40 177q34 107 88 166 q68 74 167 74q72 0 109.5 -37.5t37.5 -104.5q0 -17 -3 -37h-85q3 18 3 32q0 36 -20 54t-65 18q-81 0 -131 -115q-22 -50 -50 -176q30 46 71.5 69t84.5 23q80 0 121 -49q37 -44 37 -122q0 -25 -5 -58q-21 -119 -90 -190.5t-156 -71.5z" glyph-name="six" unicode="6"/>
<glyph d="M110 660l14 75h412l-13 -69q-131 -144 -224 -314.5t-140 -351.5h-93q53 178 151.5 346t235.5 314h-343z" glyph-name="seven" unicode="7"/>
<glyph d="M120 218q-5 -30 -5 -51q0 -49 23.5 -78t78.5 -29q52 0 89.5 41.5t50.5 117.5q1 10 2.5 20t1.5 22q0 48 -21 73q-25 30 -76 30q-61 0 -99 -44q-33 -39 -45 -102zM204 562q-2 -8 -3 -19.5t-1 -20.5q0 -40 19.5 -61.5t61.5 -21.5q51 0 80 35q25 30 35 85q1 9 2.5 18t1.5 20 q0 37 -18 57.5t-60 20.5q-53 0 -80.5 -29.5t-37.5 -83.5zM209 404q-49 10 -71.5 40.5t-22.5 77.5q0 21 5 49q13 73 63 121q61 58 158 58q70 0 108 -34.5t38 -102.5v-28q-3 -13 -4 -19q-12 -63 -44 -103q-37 -46 -97 -57q53 -11 81 -51q25 -36 25 -89q0 -10 -1.5 -22 t-2.5 -18q-19 -107 -75 -169q-65 -72 -168 -72q-86 0 -129.5 42.5t-43.5 123.5q0 29 6 64q14 83 71 136q46 43 104 53z" glyph-name="eight" unicode="8"/>
<glyph d="M404 490q6 30 6 64q0 55 -19 84q-24 37 -77 37q-64 0 -103 -57q-31 -45 -43 -115q-6 -30 -6 -60q0 -49 19 -76q23 -33 74 -33q66 0 105 48q33 40 44 108zM324 750q96 0 138 -59q34 -48 34 -139q0 -35 -5 -75q-1 -12 -12 -75q-20 -111 -41 -177q-34 -107 -88 -166 q-68 -74 -167 -74q-71 0 -108.5 37.5t-37.5 103.5q0 18 3 38h85q-3 -18 -3 -32q0 -36 20 -54t65 -18q81 0 131 115q22 50 50 176q-30 -46 -71.5 -69t-84.5 -23q-80 0 -121 49q-37 44 -37 122q0 25 5 58q21 119 89.5 190.5t155.5 71.5z" glyph-name="nine" unicode="9"/>
<glyph d="M121 0h-91l18 100h91zM200 447h-91l17 100h91z" glyph-name="colon" horiz-adv-x="250" unicode=":"/>
<glyph d="M30 0l18 100h91q-6 -34 -11.5 -64.5t-12.5 -53.5q-7 -34 -22 -60q-18 -30 -46 -48q-7 -5 -18.5 -10.5t-24.5 -9.5l8 45q14 2 25 13q18 16 28 38.5t14 49.5h-49zM200 447h-91l17 100h91z" glyph-name="semicolon" horiz-adv-x="250" unicode=";"/>
<glyph d="M115 254l305 -191l-13 -73l-376 232l11 64l458 232l-13 -73z" glyph-name="less" unicode="&lt;"/>
<glyph d="M475 384l-13 -70h-413l13 70h413zM441 194l-12 -70h-413l12 70h413z" glyph-name="equal" unicode="="/>
<glyph d="M3 63l373 191l-306 191l13 73l376 -232l-11 -64l-458 -232z" glyph-name="greater" unicode="&gt;"/>
<glyph d="M267 172h-89q15 80 33 113t83 93l47 45q37 39 51 61q20 32 27 72q3 17 3 32q0 40 -18 64q-21 28 -64 28q-71 0 -110 -52q-30 -41 -42 -114h-87q13 99 70 163q65 73 169 73q82 0 128.5 -39.5t46.5 -109.5q0 -15 -2 -24.5t-2 -14.5q-15 -84 -74 -148q-64 -62 -128 -123 q-8 -11 -13 -17.5t-9 -16.5q-7 -17 -10.5 -34.5t-9.5 -50.5zM239 0h-91l18 100h91z" glyph-name="question" unicode="?"/>
<glyph d="M476 536q-73 0 -142 -86q-61 -77 -75 -155q-2 -14 -2 -22q0 -32 16 -53t47 -21q36 0 75 31q30 24 56.5 62.5t51 85.5t31.5 85q1 5 1 14q0 26 -15.5 42.5t-43.5 16.5zM587 529l23 47h69l-157 -305q-7 -12 -14 -28t-8 -24q-2 -13 4 -21t20 -8q31 0 70.5 25.5t65.5 55.5 q64 74 80 164q2 10 3 23t1 24q0 99 -73.5 159t-180.5 60q-138 0 -251.5 -99.5t-137.5 -237.5q-4 -27 -4.5 -38.5t-0.5 -18.5q0 -118 78.5 -195.5t199.5 -77.5q79 0 157 37.5t135 102.5h60q-62 -86 -162 -137.5t-199 -51.5q-142 0 -231 90t-89 227q0 34 6 69q28 157 160 268 t290 111q65 0 122.5 -22.5t99.5 -64.5q72 -74 72 -175q0 -32 -5 -57q-9 -48 -32.5 -95t-60.5 -89q-45 -50 -89 -77q-54 -33 -107 -33q-30 0 -52 13t-26 40q-26 -23 -61 -37t-67 -14q-55 0 -86 34t-31 87q0 15 3 30q19 109 105 203q94 103 199 103q37 0 64.5 -17.5 t37.5 -49.5z" glyph-name="at" horiz-adv-x="800" unicode="@"/>
<glyph d="M-39 0l346 750h110l79 -750h-92l-21 216h-237l-93 -216h-92zM377 291l-26 399l-172 -399h198z" glyph-name="A" horiz-adv-x="556" unicode="A"/>
<glyph d="M126 75h131q67 0 101 33t47 108q3 19 4 25.5t1 20.5q0 58 -40 78q-27 14 -90 14h-31h-74zM232 675l-43 -246h74q86 0 121 20q47 27 60 108q2 9 3 21t1 20q0 44 -31 60.5t-112 16.5h-73zM228 0h-198l132 750h214q85 0 125 -38q36 -35 36 -103q0 -21 -3 -45 q-9 -64 -40.5 -103.5t-100.5 -61.5q55 -8 81 -42q23 -31 23 -84q0 -22 -5 -52q-18 -110 -86.5 -165.5t-177.5 -55.5z" glyph-name="B" horiz-adv-x="556" unicode="B"/>
<glyph d="M546 525h-83q1 12 2.5 23.5t1.5 25.5q0 55 -23 83q-27 33 -87 33q-93 0 -147 -115q-30 -65 -53 -189q-8 -37 -15 -83.5t-7 -86.5q0 -72 22 -111q27 -48 88 -48q67 0 107 50q28 36 52 113l14 51h83l-12 -46q-16 -60 -25 -83q-16 -41 -47 -76q-37 -41 -81 -62.5t-97 -21.5 q-106 0 -152 63q-38 52 -38 151q0 41 6 87.5t16 100.5q18 102 45 173q37 97 92 147q68 61 168 61q86 0 133 -50q44 -47 44 -127q0 -12 -2 -28t-5 -35z" glyph-name="C" horiz-adv-x="556" unicode="C"/>
<glyph d="M253 0h-221l132 750h206q116 0 169 -63q45 -54 45 -155q0 -34 -5.5 -74.5t-14.5 -82.5q-22 -108 -52 -178q-39 -92 -96 -140q-68 -57 -163 -57zM234 675l-106 -600h133q92 0 144 73t76 242q11 75 11 129q0 77 -26 114q-30 42 -99 42h-133z" glyph-name="D" horiz-adv-x="611" unicode="D"/>
<glyph d="M401 0h-377l132 750h375l-13 -75h-292l-44 -248h274l-13 -75h-274l-49 -277h294z" glyph-name="E" unicode="E"/>
<glyph d="M107 0h-83l132 750h352l-13 -75h-269l-43 -246h250l-14 -75h-250z" glyph-name="F" horiz-adv-x="444" unicode="F"/>
<glyph d="M550 385l-69 -391h-64l21 117q-28 -62 -81 -95.5t-116 -33.5q-105 0 -151 66q-38 55 -38 157q0 32 3.5 69t15.5 106q19 106 47 177q38 96 97 147q70 61 172 61q91 0 139.5 -46.5t48.5 -129.5q0 -27 -6 -57h-84q2 9 3 26t1 18q0 53 -26 82q-29 32 -85 32q-76 0 -125 -52 q-40 -42 -65 -122q-16 -51 -32 -139q-5 -30 -10 -59q-11 -70 -11 -112q0 -68 21 -104q26 -45 86 -45q80 0 129 48q58 57 83 205h-167l13 75h250z" glyph-name="G" horiz-adv-x="611" unicode="G"/>
<glyph d="M112 0h-83l132 750h83l-55 -313h287l55 313h83l-132 -750h-83l64 362h-287z" glyph-name="H" horiz-adv-x="611" unicode="H"/>
<glyph d="M131 0h-83l132 750h83z" glyph-name="I" horiz-adv-x="278" unicode="I"/>
<glyph d="M13 235h83l-7 -44q-3 -17 -5 -32.5t-2 -29.5q0 -33 15.5 -51t55.5 -18q57 0 85 40q20 28 31 91l98 559h83l-99 -565q-20 -112 -77 -159q-50 -41 -136 -41q-49 0 -82.5 16t-47.5 55q-6 15 -8 31t-2 36q0 32 5 63q1 5 10 49z" glyph-name="J" horiz-adv-x="444" unicode="J"/>
<glyph d="M113 0h-84l132 750h83l-68 -385l341 385h104l-294 -314l169 -436h-102l-139 362l-96 -102z" glyph-name="K" horiz-adv-x="556" unicode="K"/>
<glyph d="M422 0h-389l132 750h83l-119 -675h306z" glyph-name="L" unicode="L"/>
<glyph d="M386 166l252 584h146l-132 -750h-83l109 618q6 32 10.5 55t6.5 40l-43 -101l-265 -612h-99l-48 621q0 15 -2.5 46t-2.5 46l-17 -97l-109 -616h-83l132 750h147l44 -585q0 -35 -1 -61t-2 -50q9 28 19 57t21 55z" glyph-name="M" horiz-adv-x="778" unicode="M"/>
<glyph d="M425 138l108 612h83l-132 -750h-136l-104 600q-4 21 -6 50.5t-2 62.5l-21 -115l-105 -598h-83l132 750h135l105 -614q3 -13 6.5 -39.5t5.5 -42.5z" glyph-name="N" horiz-adv-x="611" unicode="N"/>
<glyph d="M78 391q18 106 45 173q37 95 95 143q69 58 175 58q107 0 155 -66q40 -55 40 -156q0 -32 -2.5 -61.5t-13.5 -90.5q-23 -127 -50 -198q-38 -100 -96 -151q-69 -60 -173 -60q-107 0 -154 65q-40 55 -40 163q0 42 4.5 82.5t14.5 98.5zM486 389q14 76 14 136q0 78 -27 119 q-31 46 -97 46q-89 0 -143 -88q-46 -74 -69 -213q-9 -51 -15 -101t-6 -83q0 -75 28 -111.5t95 -36.5q98 0 147 84q40 68 73 248z" glyph-name="O" horiz-adv-x="611" unicode="O"/>
<glyph d="M238 675l-50 -282h81q97 0 139 24q55 31 70 122q1 10 2.5 19t1.5 19q0 59 -45 81q-35 17 -113 17h-86zM119 0h-83l132 750h197q72 0 113 -14q33 -11 53 -34t29 -51t9 -59q0 -9 -0.5 -17.5t-4.5 -33.5q-12 -69 -43 -118q-36 -57 -98 -83q-41 -16 -104 -19t-94 -3h-50z" glyph-name="P" horiz-adv-x="556" unicode="P"/>
<glyph d="M462 90l73 -72l-51 -52l-72 70q-28 -24 -72 -39t-87 -15q-107 0 -154 65q-40 55 -40 163q0 42 4.5 82.5t14.5 98.5q18 104 45 173q37 94 94 143q68 58 172 58q110 0 159 -66q41 -55 41 -158q0 -32 -2.5 -61t-14 -95t-34.5 -139q-35 -113 -76 -156zM359 85l-64 59l54 55 l60 -56q16 22 39.5 90t32 121t14.5 104.5t6 82.5q0 76 -28 112.5t-95 36.5q-98 0 -147 -84q-41 -70 -73 -248q-8 -42 -11.5 -74.5t-3.5 -64.5q0 -78 26 -117q30 -45 95 -45q29 0 48.5 5.5t46.5 22.5z" glyph-name="Q" horiz-adv-x="611" unicode="Q"/>
<glyph d="M238 675l-48 -270h131q55 0 92 19q64 33 78 119q3 18 3 32q0 64 -50 87q-29 13 -89 13h-117zM177 330l-58 -330h-83l132 750h193q111 0 162 -29q60 -34 60 -119q0 -19 -1 -30t-6 -36q-14 -66 -60 -110t-113 -53q68 -8 88 -36t20 -106q-9 -70 -10 -83q-4 -42 -4 -84 q0 -17 4 -32t17 -15l-3 -17h-97q-2 9 -3 25t-1 32q0 38 2.5 67t9.5 67q2 17 3 25t1 14q0 46 -24 71q-27 29 -84 29h-145z" glyph-name="R" horiz-adv-x="611" unicode="R"/>
<glyph d="M531 553h-83q3 11 4 26t1 16q0 44 -25 69.5t-75 25.5q-80 0 -120 -45q-28 -32 -38 -89q-2 -7 -2 -14.5v-10.5q0 -55 55 -77l111 -45q79 -31 108.5 -63.5t29.5 -83.5q0 -25 -6 -55q-19 -107 -91 -166t-181 -59q-68 0 -110 22q-56 29 -74 97q-4 15 -4 37q0 24 4 49.5 t8 50.5h83q-2 -11 -6.5 -35.5t-4.5 -44.5q0 -50 27.5 -75.5t93.5 -25.5t110.5 33t55.5 98q5 30 5 47q0 45 -28 65q-7 5 -73 32q-45 18 -69 27q-46 18 -68 31q-35 19 -49.5 47.5t-14.5 67.5q0 15 1 25t4 30q16 92 84 148.5t161 56.5q88 0 136 -38t48 -112q0 -25 -8 -62z" glyph-name="S" horiz-adv-x="556" unicode="S"/>
<glyph d="M84 675l13 75h471l-13 -75h-194l-119 -675h-83l119 675h-194z" glyph-name="T" unicode="T"/>
<glyph d="M63 181l100 569h83l-95 -539q-5 -25 -5 -50q0 -46 22 -71q30 -33 98 -33q88 0 131 55q28 36 38 99l95 539h83l-100 -569q-18 -98 -86.5 -148.5t-173.5 -50.5q-92 0 -143 39t-51 115v17t4 28z" glyph-name="U" horiz-adv-x="611" unicode="U"/>
<glyph d="M535 750h92l-348 -750h-103l-83 750h92l52 -690z" glyph-name="V" horiz-adv-x="556" unicode="V"/>
<glyph d="M429 509l-199 -509h-103l-28 750h92l7 -517q0 -61 -2 -100q-4 -47 -6 -73q1 2 27 85q14 45 28 82l202 523h103l8 -517q0 -18 -4 -82t-4 -91q1 2 27 85q14 45 28 82l201 523h92l-308 -750h-103l-10 509q0 56 1.5 85t8.5 96q-19 -64 -30 -97q-18 -58 -28 -84z" glyph-name="W" horiz-adv-x="833" unicode="W"/>
<glyph d="M-33 0l281 385l-143 365h98l106 -293l208 293h98l-270 -365l144 -385h-102l-104 314l-217 -314h-99z" glyph-name="X" horiz-adv-x="556" unicode="X"/>
<glyph d="M185 750l109 -376l242 376h92l-308 -459l-51 -291h-83l51 291l-144 459h92z" glyph-name="Y" horiz-adv-x="556" unicode="Y"/>
<glyph d="M423 0h-445l13 72l460 603h-345l13 75h431l-12 -72l-461 -603h359z" glyph-name="Z" unicode="Z"/>
<glyph d="M188 -209h-175l169 959h175l-10 -60h-97l-148 -837h97z" glyph-name="bracketleft" horiz-adv-x="333" unicode="["/>
<glyph d="M173 0l-122 750h58l122 -750h-58z" glyph-name="backslash" horiz-adv-x="250" unicode="\"/>
<glyph d="M146 -209h-175l11 62h97l148 837h-97l10 60h175z" glyph-name="bracketright" horiz-adv-x="333" unicode="]"/>
<glyph d="M307 750h49l84 -417h-54l-69 338l-185 -338h-53z" glyph-name="asciicircum" unicode="^"/>
<glyph d="M429 -119h-500l10 58h500z" glyph-name="underscore" unicode="_"/>
<glyph d="M120 765h109l64 -141h-67z" glyph-name="grave" horiz-adv-x="333" unicode="`"/>
<glyph d="M266 165l24 135q-24 -13 -67 -31q-35 -15 -65.5 -28t-47 -39t-21 -51t-4.5 -41q0 -29 14.5 -43.5t50.5 -14.5q33 0 63 22q42 31 53 91zM377 58l-10 -58l-19 -4q-54 0 -68 11q-18 14 -18 68q-22 -37 -62 -63.5t-79 -26.5q-64 0 -92 27t-28 80q0 26 7.5 65.5t33.5 73.5 t69 52q2 1 130 49q42 16 49 21q13 9 19 26q0 1 8 38q3 17 3 30q0 31 -17.5 44t-58.5 13q-51 0 -70.5 -22t-27.5 -76h-71q12 84 60.5 124.5t133.5 40.5q74 0 106 -37q23 -27 23 -71q0 -14 -2 -26t-3 -17l-56 -319q-2 -7 -2.5 -12t-0.5 -11q0 -14 9 -19q6 -2 17 -2q12 0 17 1z " glyph-name="a" horiz-adv-x="444" unicode="a"/>
<glyph d="M146 264q-7 -37 -10 -59t-3 -48q0 -48 17 -73q22 -32 69 -32q59 0 94 61q31 54 53 175q4 20 7.5 49.5t3.5 51.5q0 53 -15 80q-19 35 -64 35q-60 0 -96 -54q-32 -48 -56 -186zM97 0h-72l132 750h79l-44 -251q32 38 63 55t68 17q74 0 108 -52q29 -44 29 -119q0 -41 -8 -86 q-25 -148 -68 -224q-59 -105 -161 -105q-40 0 -66 16q-31 19 -46 65z" glyph-name="b" unicode="b"/>
<glyph d="M274 504q-58 0 -95 -58q-33 -52 -58 -192q-4 -23 -7 -46t-3 -49q0 -48 16 -74q20 -33 64 -33t73.5 28.5t49.5 113.5h75q-19 -92 -63 -145q-54 -64 -141 -64q-86 0 -124 48q-32 41 -32 120q0 24 3.5 54t9.5 64q30 171 98 241q57 59 147 59q67 0 103 -40q33 -37 33 -101 q0 -21 -5 -49h-74q1 10 2.5 20t1.5 23q0 37 -15 56q-19 24 -59 24z" glyph-name="c" horiz-adv-x="444" unicode="c"/>
<glyph d="M333 218l13 69q6 36 9 57t3 48q0 51 -16 78q-20 34 -66 34q-53 0 -87 -47q-40 -54 -61 -176q-8 -48 -12 -75.5t-4 -51.5q0 -49 19.5 -75.5t67.5 -26.5q55 0 93 59q31 47 41 107zM427 750h79l-132 -750h-76l13 73q-36 -50 -69 -69t-84 -19q-70 0 -101 53q-24 41 -24 113 q0 34 5 68t9 60q18 129 73 207q60 85 146 85q41 0 66.5 -17t48.5 -55z" glyph-name="d" unicode="d"/>
<glyph d="M134 336h188q4 31 6.5 51.5t2.5 32.5q0 38 -14 59q-17 25 -56 25q-47 0 -76 -34.5t-51 -133.5zM300 185h74q-12 -87 -63 -141q-56 -59 -141 -59q-67 0 -101 38q-39 43 -39 137q0 50 12 119q21 116 67 190q64 102 163 102q78 0 111 -42q28 -35 28 -104q0 -33 -6 -74 t-12 -80h-270q-7 -37 -10 -58q-6 -38 -6 -65q0 -44 15 -67q19 -29 62 -29q52 0 84 43q27 36 32 90z" glyph-name="e" horiz-adv-x="444" unicode="e"/>
<glyph d="M295 489h-87l-86 -489h-79l86 489h-81l12 67h80l8 47q9 52 16.5 71.5t22.5 35.5q38 42 114 42h19q14 -2 21 -2l-12 -67q-8 0 -17 1t-13 1q-32 0 -47 -14.5t-22 -55.5l-10 -59h87z" glyph-name="f" horiz-adv-x="278" unicode="f"/>
<glyph d="M275 504q-68 0 -109 -85q-24 -51 -40 -141q-12 -66 -12 -115q0 -54 17 -82.5t56 -28.5q78 0 119 85q23 48 42 153q4 22 7 48t3 46q0 56 -18 86q-21 34 -65 34zM395 556h79l-86 -489q-11 -61 -23 -93q-17 -44 -50 -85t-75.5 -59.5t-91.5 -18.5q-68 0 -105 33t-37 103h77 q0 -69 74 -69q83 0 118 70q15 30 31 117q-33 -42 -66 -61t-70 -19q-67 0 -100 38q-37 42 -37 136q0 52 12 123q20 115 65 188q63 101 162 101q39 0 68 -19.5t42 -58.5z" glyph-name="g" unicode="g"/>
<glyph d="M168 372l-66 -372h-79l132 750h79l-45 -255q38 39 71 56q38 20 82 20q56 0 86 -26t30 -79q0 -8 -1.5 -19.5t-2.5 -17.5l-76 -429h-79l72 407q3 18 3 33q0 32 -15.5 48t-53.5 16q-45 0 -84 -31q-26 -20 -36.5 -42t-16.5 -59z" glyph-name="h" unicode="h"/>
<glyph d="M101 0h-79l98 556h79zM216 650h-79l17 100h79z" glyph-name="i" horiz-adv-x="222" unicode="i"/>
<glyph d="M-70 -190l12 73q24 0 37 3.5t20 13t12 24.5q2 7 9 47l103 585h79l-102 -578q-17 -99 -52 -133.5t-118 -34.5zM219 650h-79l17 100h79z" glyph-name="j" horiz-adv-x="222" unicode="j"/>
<glyph d="M98 0h-79l132 750h79l-80 -453l238 259h94l-210 -216l117 -340h-92l-90 277l-74 -79z" glyph-name="k" horiz-adv-x="444" unicode="k"/>
<glyph d="M101 0h-79l132 750h79z" glyph-name="l" horiz-adv-x="222" unicode="l"/>
<glyph d="M171 372l-66 -372h-79l98 556h76l-12 -71q30 39 66 61q41 25 83 25q43 0 74 -24t42 -64q38 45 74 65q40 23 91 23q57 0 95 -39q10 -11 14.5 -27.5t4.5 -35.5q0 -15 -2 -29.5t-6 -37.5l-71 -402h-79l72 407q1 9 2.5 17.5t1.5 18.5q0 30 -16.5 45.5t-55.5 15.5 q-41 0 -80 -31q-26 -20 -36.5 -42t-16.5 -59l-66 -372h-79l72 407q3 18 3 33q0 32 -15.5 48t-53.5 16q-45 0 -84 -31q-25 -20 -37 -46q-7 -16 -14 -55z" glyph-name="m" horiz-adv-x="778" unicode="m"/>
<glyph d="M198 556l-11 -61q39 38 75 57t80 19q56 0 86 -26t30 -79q0 -8 -1.5 -19.5t-2.5 -17.5l-76 -429h-79l72 407q3 18 3 33q0 32 -15.5 48t-53.5 16q-45 0 -84 -31q-26 -20 -36.5 -42t-16.5 -59l-66 -372h-79l98 556h77z" glyph-name="n" unicode="n"/>
<glyph d="M451 297q-30 -171 -97 -246q-59 -66 -157 -66q-76 0 -114 40q-43 45 -43 145q0 26 3 57t10 70q23 131 83 200q64 74 165 74q81 0 120 -47t39 -135q0 -42 -9 -92zM365 272q13 76 13 118q0 114 -89 114q-61 0 -98.5 -53.5t-59.5 -178.5q-11 -60 -11 -103q0 -56 21 -86.5 t68 -30.5q66 0 104 61q33 53 52 159z" glyph-name="o" unicode="o"/>
<glyph d="M366 288q4 22 7 46t3 50q0 53 -16 83q-20 37 -65 37q-81 0 -120 -118q-13 -39 -25 -107q-5 -28 -9.5 -59.5t-4.5 -57.5q0 -50 17.5 -80t62.5 -30q59 0 94 59t56 177zM111 58l-43 -246h-79l131 744h76l-11 -62q27 38 60.5 57.5t70.5 19.5q76 0 113 -55q31 -47 31 -125 q0 -16 -1.5 -35t-5.5 -41q-26 -146 -72 -224q-62 -106 -165 -106q-40 0 -63.5 18t-41.5 55z" glyph-name="p" unicode="p"/>
<glyph d="M132 254q-8 -53 -8 -92q0 -54 16.5 -82t59.5 -28q70 0 108 85q22 49 38 143q5 27 9.5 58.5t4.5 57.5q0 49 -15 75q-19 33 -62 33q-69 0 -108 -84q-27 -58 -43 -166zM398 556h76l-130 -740h-79l43 245q-36 -40 -66.5 -58t-67.5 -18q-68 0 -98.5 41.5t-30.5 132.5 q0 44 8 111q13 113 64 197q63 104 154 104q41 0 69.5 -17t45.5 -55z" glyph-name="q" unicode="q"/>
<glyph d="M205 556l-16 -91q34 51 71 74.5t89 23.5q15 0 22 -1l-14 -78q-17 3 -33 3q-60 0 -101.5 -40.5t-53.5 -109.5l-59 -337h-79l98 556h76z" glyph-name="r" horiz-adv-x="333" unicode="r"/>
<glyph d="M402 407h-77q4 19 4 37q0 60 -75 60q-43 0 -69.5 -20.5t-33.5 -63.5q-2 -14 -2 -20q0 -35 31 -54l66 -30q79 -38 92 -48q43 -32 43 -83q0 -14 -3 -29q-14 -79 -74 -125t-145 -46q-41 0 -76.5 14t-50.5 44q-9 14 -13 31t-4 32q0 16 2.5 30.5t4.5 25.5h75q-5 -25 -5 -42 q0 -68 79 -68q51 0 82.5 22t40.5 72q2 12 2 18q0 39 -41 61q-55 20 -79 31q-60 24 -82 45q-30 28 -30 76q0 8 1.5 19t2.5 18q12 71 65.5 114t125.5 43q73 0 110.5 -29t37.5 -90v-16q-4 -19 -5 -29z" glyph-name="s" horiz-adv-x="444" unicode="s"/>
<glyph d="M239 707l-27 -151h93l-12 -67h-92l-67 -379q-2 -8 -2.5 -12.5t-0.5 -9.5q0 -10 7 -15.5t26 -5.5h53l-12 -67h-87q-36 0 -50 8q-20 12 -20 48q0 7 1.5 17.5l2.5 17.5l70 398h-77l12 67h77l27 151h78z" glyph-name="t" horiz-adv-x="278" unicode="t"/>
<glyph d="M295 0l13 73q-28 -41 -68.5 -64.5t-81.5 -23.5q-55 0 -84 25t-29 78q0 15 2 24.5t2 14.5l76 429h79l-76 -432q-2 -9 -2 -25q0 -24 13.5 -35.5t46.5 -11.5q61 0 104 49q16 19 25.5 45t14.5 53l63 357h79l-98 -556h-79z" glyph-name="u" unicode="u"/>
<glyph d="M128 0l-67 556h82l40 -489l214 489h82l-265 -556h-86z" glyph-name="v" horiz-adv-x="444" unicode="v"/>
<glyph d="M422 556l8 -489l185 489h82l-237 -556h-82l-8 489l-176 -489h-82l-45 556h82l15 -489l176 489h82z" glyph-name="w" horiz-adv-x="667" unicode="w"/>
<glyph d="M179 286l-112 270h82l89 -200l158 200h82l-208 -270l116 -286h-82l-91 222l-172 -222h-82z" glyph-name="x" horiz-adv-x="444" unicode="x"/>
<glyph d="M130 -13l-77 569h82l40 -482l216 482h82l-259 -531q-21 -46 -35 -73q-24 -47 -41 -69q-28 -38 -61.5 -55.5t-77.5 -17.5q-29 0 -56 9l12 70q26 -12 57 -12q56 0 86 50q20 40 32 60z" glyph-name="y" horiz-adv-x="444" unicode="y"/>
<glyph d="M316 0h-342l11 62l334 429h-247l11 65h329l-11 -65l-334 -426h260z" glyph-name="z" horiz-adv-x="389" unicode="z"/>
<glyph d="M160 190l-30 -173q-3 -17 -3 -30q0 -30 16.5 -48.5t56.5 -31.5q-84 -2 -116.5 19t-32.5 74q0 19 5 52l29 165q5 25 5 40t-4.5 25t-15.5 19.5t-25 16t-30 10.5q43 6 72 31q13 12 21.5 27t15.5 48l32 186q7 36 17 57q15 30 44 47.5t55.5 21.5t75.5 4q-55 -16 -77.5 -40.5 t-31.5 -71.5l-32 -187q-10 -53 -32 -78q-28 -32 -90 -43q44 -11 62 -33.5t18 -57.5q0 -19 -5 -49z" glyph-name="braceleft" horiz-adv-x="274" unicode="{"/>
<glyph d="M43 0l132 750h64l-132 -750h-64z" glyph-name="bar" horiz-adv-x="250" unicode="|"/>
<glyph d="M129 465l30 173q3 17 3 30q0 29 -16.5 48t-55.5 32q83 2 116 -18.5t33 -72.5q0 -24 -6 -54l-29 -165q-5 -25 -5 -40t4.5 -25t16 -20t24.5 -16t31 -10q-26 -4 -40.5 -10.5t-32.5 -20.5q-18 -16 -25 -32.5t-11 -42.5l-33 -186q-7 -39 -16 -57q-14 -29 -44 -47 q-21 -12 -49 -19t-83 -7q55 16 78 41t31 71l33 187q9 52 32 78q28 32 89 43q-44 11 -62 33.5t-18 57.5q0 19 5 49z" glyph-name="braceright" horiz-adv-x="274" unicode="}"/>
<glyph d="M170 332q22 0 45 -10q15 -7 44 -25q38 -22 43 -24q22 -11 36 -11q24 0 53 28q21 21 43 55l26 -47q-31 -49 -60 -76q-38 -35 -76 -35q-20 0 -53 16q-38 21 -50 28q-18 11 -30 16q-20 9 -35 9q-35 0 -68 -43q-8 -11 -31 -47l-25 48q43 69 75 93.5t63 24.5z" glyph-name="asciitilde" unicode="~"/>
<glyph glyph-name="nonbreakingspace" unicode=" "/>
<glyph d="M253 959h49q0 -40 25 -58.5t68 -18.5t72 17.5t46 59.5h49q-15 -68 -63.5 -102t-118.5 -34q-59 0 -92 26q-37 29 -37 85v12q2 9 2 13zM295 268l240 482h92l-322 -615q-37 -74 -70 -108q-44 -45 -101 -45l-51 3l14 76q14 -3 37 -3q22 0 41.5 13t39.5 47l27 48l-149 584h95z " glyph-name="exclamdown" horiz-adv-x="556" unicode="¡"/>
<glyph d="M253 959h49q0 -40 25 -58.5t68 -18.5t72 17.5t46 59.5h49q-15 -68 -63.5 -102t-118.5 -34q-59 0 -92 26q-37 29 -37 85v12q2 9 2 13zM295 268l240 482h92l-322 -615q-37 -74 -70 -108q-44 -45 -101 -45l-51 3l14 76q14 -3 37 -3q22 0 41.5 13t39.5 47l27 48l-149 584h95z " glyph-name="exclamdown" horiz-adv-x="556" unicode="Ў"/>
<glyph d="M130 -13l-77 569h82l40 -482l216 482h82l-259 -531q-21 -46 -35 -73q-24 -47 -41 -69q-28 -38 -61.5 -55.5t-77.5 -17.5q-29 0 -56 9l12 70q26 -12 57 -12q56 0 86 50q20 40 32 60zM152 765h49q0 -40 24.5 -58.5t67.5 -18.5q44 0 73 17.5t46 59.5h49q-15 -68 -63.5 -102 t-118.5 -34q-59 0 -92 26q-37 29 -37 85v12q2 9 2 13z" glyph-name="cent" horiz-adv-x="444" unicode="¢"/>
<glyph d="M130 -13l-77 569h82l40 -482l216 482h82l-259 -531q-21 -46 -35 -73q-24 -47 -41 -69q-28 -38 -61.5 -55.5t-77.5 -17.5q-29 0 -56 9l12 70q26 -12 57 -12q56 0 86 50q20 40 32 60zM152 765h49q0 -40 24.5 -58.5t67.5 -18.5q44 0 73 17.5t46 59.5h49q-15 -68 -63.5 -102 t-118.5 -34q-59 0 -92 26q-37 29 -37 85v12q2 9 2 13z" glyph-name="cent" horiz-adv-x="444" unicode="ў"/>
<glyph d="M13 235h83l-7 -44q-3 -17 -5 -32.5t-2 -29.5q0 -33 15.5 -51t55.5 -18q57 0 85 40q20 28 31 91l98 559h83l-99 -565q-20 -112 -77 -159q-50 -41 -136 -41q-49 0 -82.5 16t-47.5 55q-6 15 -8 31t-2 36q0 32 5 63q1 5 10 49z" glyph-name="sterling" horiz-adv-x="444" unicode="£"/>
<glyph d="M13 235h83l-7 -44q-3 -17 -5 -32.5t-2 -29.5q0 -33 15.5 -51t55.5 -18q57 0 85 40q20 28 31 91l98 559h83l-99 -565q-20 -112 -77 -159q-50 -41 -136 -41q-49 0 -82.5 16t-47.5 55q-6 15 -8 31t-2 36q0 32 5 63q1 5 10 49z" glyph-name="sterling" horiz-adv-x="444" unicode="Ј"/>
<glyph d="M-3 110l47 42q-22 48 -22 99q0 19 6.5 57t22 72t46.5 71l-32 43l56 53l32 -43q34 25 71.5 37t76.5 12q35 0 65 -12.5t57 -36.5l47 43l38 -53l-45 -43q10 -25 15 -48.5t5 -50.5q0 -25 -6.5 -61t-22.5 -69t-44 -70l30 -42l-56 -53l-32 43q-70 -50 -148 -50 q-37 0 -65.5 12.5t-56.5 37.5l-47 -43zM288 481q-70 0 -122.5 -50.5t-66.5 -130.5q-3 -20 -3 -37q0 -61 34 -101t89 -40q67 0 120 52t67 129q3 20 3 38q0 60 -33 100t-88 40z" glyph-name="currency" unicode="¤"/>
<glyph d="M107 0h-83l132 750h352l-13 -75h-269zM481 858h46l-32 -183h-80l32 183h34z" glyph-name="yen" horiz-adv-x="444" unicode="¥"/>
<glyph d="M107 0h-83l132 750h352l-13 -75h-269zM481 858h46l-32 -183h-80l32 183h34z" glyph-name="yen" horiz-adv-x="444" unicode="Ґ"/>
<glyph d="M43 0l53 300h64l-53 -300h-64zM175 750h64l-53 -300h-64z" glyph-name="brokenbar" horiz-adv-x="250" unicode="¦"/>
<glyph d="M220 423q-45 -28 -62 -43q-31 -28 -35.5 -52t-4.5 -33q0 -16 12 -33.5t46 -46.5l-2 -2l16 -10q63 -48 95 -74q43 30 60 47q27 28 34 66q1 5 1 15q0 22 -18 45.5t-67 62.5q-15 12 -36.5 29t-38.5 29zM179 458q-50 36 -50 101q0 14 3 29q12 74 69.5 118t135.5 44 q142 0 142 -132v-26q-3 -12 -4 -18h-82q3 17 3 32q0 36 -19.5 55.5t-61.5 19.5q-38 0 -67 -23t-36 -61q-3 -15 -3 -25q0 -19 21 -41t89 -74q102 -78 116 -96q28 -35 28 -78q0 -17 -2 -27q-9 -53 -48 -96q-30 -33 -88 -70q26 -23 39 -47t13 -55q0 -12 -3 -27 q-14 -82 -72.5 -125.5t-149.5 -43.5q-71 0 -109.5 37.5t-38.5 102.5q0 19 5 47h81q-3 -18 -3 -33q0 -42 21 -64.5t68 -22.5q44 0 76 22.5t40 66.5q2 14 2 20q0 31 -31 63q-26 27 -116 93q-62 44 -87 77t-25 72q0 14 3 29q10 54 49 95q34 36 92 61z" glyph-name="section" unicode="§"/>
<glyph d="M401 0h-377l132 750h375l-13 -75h-292l-44 -248h274l-13 -75h-274l-49 -277h294zM252 944h79l-17 -100h-79zM464 844h-79l17 100h79z" glyph-name="dieresis" unicode="¨"/>
<glyph d="M401 0h-377l132 750h375l-13 -75h-292l-44 -248h274l-13 -75h-274l-49 -277h294zM252 944h79l-17 -100h-79zM464 844h-79l17 100h79z" glyph-name="dieresis" unicode="Ё"/>
<glyph d="M348 -18q-145 0 -237.5 91.5t-92.5 232.5q0 34 6 69q28 160 164 275t298 115q143 0 235.5 -91.5t92.5 -230.5q0 -33 -6 -68q-28 -164 -162.5 -278.5t-297.5 -114.5zM358 40q139 0 252.5 97.5t138.5 237.5q3 15 4 36.5t1 23.5q0 118 -78 195t-200 77q-138 0 -253 -97 t-140 -235q-3 -15 -4 -36.5t-1 -23.5q0 -118 78.5 -196.5t201.5 -78.5zM545 303h58q-19 -68 -79 -110.5t-130 -42.5q-85 0 -133 49t-48 131q0 27 4 48q17 98 86.5 161.5t167.5 63.5q72 0 115.5 -39.5t43.5 -109.5h-58q0 47 -30 74t-78 27q-74 0 -124.5 -49.5t-63.5 -126.5 q-3 -17 -3.5 -22.5t-0.5 -17.5q0 -61 34 -101t97 -40q48 0 88.5 29t53.5 76z" glyph-name="copyright" horiz-adv-x="800" unicode="©"/>
<glyph d="M507 221q-14 -57 -24 -80q-16 -39 -47 -75q-37 -41 -83 -62.5t-106 -21.5q-110 0 -158 66q-39 54 -39 157q0 36 3 68t17 111q18 104 45 173q37 96 95 147q70 61 174 61q92 0 138 -47t46 -127v-17q-2 -12 -2 -18h-84q0 66 -20 95q-27 39 -97 39q-90 0 -143 -90 q-36 -61 -58 -171h224l-14 -75h-225q-6 -34 -10.5 -68t-4.5 -67q0 -74 23 -113q29 -49 96 -49q74 0 117 51q30 36 53 114l1 5h84z" glyph-name="ordfeminine" horiz-adv-x="573" unicode="ª"/>
<glyph d="M507 221q-14 -57 -24 -80q-16 -39 -47 -75q-37 -41 -83 -62.5t-106 -21.5q-110 0 -158 66q-39 54 -39 157q0 36 3 68t17 111q18 104 45 173q37 96 95 147q70 61 174 61q92 0 138 -47t46 -127v-17q-2 -12 -2 -18h-84q0 66 -20 95q-27 39 -97 39q-90 0 -143 -90 q-36 -61 -58 -171h224l-14 -75h-225q-6 -34 -10.5 -68t-4.5 -67q0 -74 23 -113q29 -49 96 -49q74 0 117 51q30 36 53 114l1 5h84z" glyph-name="ordfeminine" horiz-adv-x="573" unicode="Є"/>
<glyph d="M95 342l178 153l-14 -83l-118 -102l82 -102l-15 -83l-123 156zM274 342l178 153l-14 -83l-118 -102l82 -102l-15 -83l-123 156z" glyph-name="guillemotleft" unicode="«"/>
<glyph d="M358 117l34 197h-343l13 70h413l-47 -267h-70z" glyph-name="logicalnot" unicode="¬"/>
<glyph d="M389 657h-313l10 58h313z" glyph-name="minus" horiz-adv-x="333" unicode="­"/>
<glyph d="M486 765q143 0 235.5 -91.5t92.5 -230.5q0 -33 -6 -68q-28 -164 -162.5 -278.5t-297.5 -114.5q-145 0 -237.5 91.5t-92.5 232.5q0 34 6 69q28 162 163.5 276t298.5 114zM476 707q-139 0 -254 -97t-139 -236q-3 -15 -4 -36.5t-1 -23.5q0 -119 78.5 -196.5t201.5 -77.5 q138 0 252 97.5t139 236.5q5 33 5 59q0 118 -78 196t-200 78zM478 357l95 -202h-65l-88 202h-97l-36 -202h-56l78 440h193q36 0 59.5 -4t42.5 -20q35 -23 35 -73q0 -7 -2 -21q-11 -61 -56 -92q-41 -28 -103 -28zM330 399h81h28q60 0 88 11q45 18 54 69q2 12 2 17 q0 34 -28 45.5t-73 11.5h-124z" glyph-name="registered" horiz-adv-x="800" unicode="®"/>
<glyph d="M131 0h-83l132 750h83zM141 944h79l-17 -100h-79zM353 844h-79l17 100h79z" glyph-name="macron" horiz-adv-x="278" unicode="¯"/>
<glyph d="M131 0h-83l132 750h83zM141 944h79l-17 -100h-79zM353 844h-79l17 100h79z" glyph-name="macron" horiz-adv-x="278" unicode="Ї"/>
<glyph d="M406 600q-11 -62 -63 -106t-114 -44q-55 0 -90 35t-35 88q0 18 2 27q10 62 61.5 106t114.5 44q55 0 90.5 -35.5t35.5 -89.5q0 -9 -2 -25zM344 600q1 5 1 15q0 31 -21 52t-54 21q-36 0 -66.5 -26t-34 -50t-3.5 -29q0 -31 21 -51t53 -20q37 0 67 25t37 63z" glyph-name="degree" horiz-adv-x="400" unicode="°"/>
<glyph d="M227 349l27 156h70l-27 -156h172l-13 -70h-172l-28 -159h-70l28 159h-171l13 70h171zM-6 0l12 70h413l-12 -70h-413z" glyph-name="plusminus" unicode="±"/>
<glyph d="M131 0h-83l132 750h83z" glyph-name="twosuperior" horiz-adv-x="278" unicode="²"/>
<glyph d="M131 0h-83l132 750h83z" glyph-name="twosuperior" horiz-adv-x="278" unicode="І"/>
<glyph d="M101 0h-79l98 556h79zM216 650h-79l17 100h79z" glyph-name="threesuperior" horiz-adv-x="222" unicode="³"/>
<glyph d="M101 0h-79l98 556h79zM216 650h-79l17 100h79z" glyph-name="threesuperior" horiz-adv-x="222" unicode="і"/>
<glyph d="M399 489h-212l-86 -489h-78l98 556h290zM354 662h41h35l-31 -173h-76z" glyph-name="acute" horiz-adv-x="388" unicode="´"/>
<glyph d="M399 489h-212l-86 -489h-78l98 556h290zM354 662h41h35l-31 -173h-76z" glyph-name="acute" horiz-adv-x="388" unicode="ґ"/>
<glyph d="M293 0l13 73q-28 -41 -68.5 -64.5t-81.5 -23.5q-13 0 -26.5 6.5t-24.5 11.5l-34 -192h-79l55 316l76 429h79l-76 -432q-2 -9 -2 -25q0 -24 13.5 -35.5t46.5 -11.5q61 0 104 49q16 19 25.5 45t14.5 53l63 357h79l-98 -556h-79z" glyph-name="mu" unicode="µ"/>
<glyph d="M87 -116l85 482q-55 0 -91 44t-36 109q0 17 3 37q16 91 78 146q32 30 64 39t75 9h208l-152 -866h-79l140 799h-76l-140 -799h-79z" glyph-name="paragraph" horiz-adv-x="440" unicode="¶"/>
<glyph d="M134 336h188q4 31 6.5 51.5t2.5 32.5q0 38 -14 59q-17 25 -56 25q-47 0 -76 -34.5t-51 -133.5zM300 185h74q-12 -87 -63 -141q-56 -59 -141 -59q-67 0 -101 38q-39 43 -39 137q0 50 12 119q21 116 67 190q64 102 163 102q78 0 111 -42q28 -35 28 -104q0 -33 -6 -74 t-12 -80h-270q-7 -37 -10 -58q-6 -38 -6 -65q0 -44 15 -67q19 -29 62 -29q52 0 84 43q27 36 32 90zM190 750h79l-17 -100h-79zM402 650h-79l17 100h79z" glyph-name="cedilla" horiz-adv-x="444" unicode="¸"/>
<glyph d="M134 336h188q4 31 6.5 51.5t2.5 32.5q0 38 -14 59q-17 25 -56 25q-47 0 -76 -34.5t-51 -133.5zM300 185h74q-12 -87 -63 -141q-56 -59 -141 -59q-67 0 -101 38q-39 43 -39 137q0 50 12 119q21 116 67 190q64 102 163 102q78 0 111 -42q28 -35 28 -104q0 -33 -6 -74 t-12 -80h-270q-7 -37 -10 -58q-6 -38 -6 -65q0 -44 15 -67q19 -29 62 -29q52 0 84 43q27 36 32 90zM190 750h79l-17 -100h-79zM402 650h-79l17 100h79z" glyph-name="cedilla" horiz-adv-x="444" unicode="ё"/>
<glyph d="M382 167q-21 -80 -65 -127q-52 -55 -132 -55q-86 0 -124 48q-32 41 -32 120q0 24 3.5 54t9.5 64q30 171 98 241q57 59 147 59q71 0 105 -46q30 -41 30 -115h-74q0 45 -13 66q-17 28 -61 28q-59 0 -96 -60q-28 -45 -44 -123h159l-12 -65h-160q-4 -24 -7 -47.5t-3 -48.5 q0 -48 16 -75q20 -33 64 -33q51 0 80 35q23 27 36 80h75z" glyph-name="ordmasculine" horiz-adv-x="444" unicode="º"/>
<glyph d="M382 167q-21 -80 -65 -127q-52 -55 -132 -55q-86 0 -124 48q-32 41 -32 120q0 24 3.5 54t9.5 64q30 171 98 241q57 59 147 59q71 0 105 -46q30 -41 30 -115h-74q0 45 -13 66q-17 28 -61 28q-59 0 -96 -60q-28 -45 -44 -123h159l-12 -65h-160q-4 -24 -7 -47.5t-3 -48.5 q0 -48 16 -75q20 -33 64 -33q51 0 80 35q23 27 36 80h75z" glyph-name="ordmasculine" horiz-adv-x="444" unicode="є"/>
<glyph d="M414 278l-178 -153l15 83l118 102l-82 102l14 83l124 -156zM235 278l-178 -153l15 83l118 102l-82 102l14 83l124 -156z" glyph-name="guillemotright" unicode="»"/>
<glyph d="M-70 -190l12 73q24 0 37 3.5t20 13t12 24.5q2 7 9 47l103 585h79l-102 -578q-17 -99 -52 -133.5t-118 -34.5zM219 650h-79l17 100h79z" glyph-name="onequarter" horiz-adv-x="222" unicode="¼"/>
<glyph d="M-70 -190l12 73q24 0 37 3.5t20 13t12 24.5q2 7 9 47l103 585h79l-102 -578q-17 -99 -52 -133.5t-118 -34.5zM219 650h-79l17 100h79z" glyph-name="onequarter" horiz-adv-x="222" unicode="ј"/>
<glyph d="M531 553h-83q3 11 4 26t1 16q0 44 -25 69.5t-75 25.5q-80 0 -120 -45q-28 -32 -38 -89q-2 -7 -2 -14.5v-10.5q0 -55 55 -77l111 -45q79 -31 108.5 -63.5t29.5 -83.5q0 -25 -6 -55q-19 -107 -91 -166t-181 -59q-68 0 -110 22q-56 29 -74 97q-4 15 -4 37q0 24 4 49.5 t8 50.5h83q-2 -11 -6.5 -35.5t-4.5 -44.5q0 -50 27.5 -75.5t93.5 -25.5t110.5 33t55.5 98q5 30 5 47q0 45 -28 65q-7 5 -73 32q-45 18 -69 27q-46 18 -68 31q-35 19 -49.5 47.5t-14.5 67.5q0 15 1 25t4 30q16 92 84 148.5t161 56.5q88 0 136 -38t48 -112q0 -25 -8 -62z" glyph-name="onehalf" horiz-adv-x="556" unicode="½"/>
<glyph d="M531 553h-83q3 11 4 26t1 16q0 44 -25 69.5t-75 25.5q-80 0 -120 -45q-28 -32 -38 -89q-2 -7 -2 -14.5v-10.5q0 -55 55 -77l111 -45q79 -31 108.5 -63.5t29.5 -83.5q0 -25 -6 -55q-19 -107 -91 -166t-181 -59q-68 0 -110 22q-56 29 -74 97q-4 15 -4 37q0 24 4 49.5 t8 50.5h83q-2 -11 -6.5 -35.5t-4.5 -44.5q0 -50 27.5 -75.5t93.5 -25.5t110.5 33t55.5 98q5 30 5 47q0 45 -28 65q-7 5 -73 32q-45 18 -69 27q-46 18 -68 31q-35 19 -49.5 47.5t-14.5 67.5q0 15 1 25t4 30q16 92 84 148.5t161 56.5q88 0 136 -38t48 -112q0 -25 -8 -62z" glyph-name="onehalf" horiz-adv-x="556" unicode="Ѕ"/>
<glyph d="M402 407h-77q4 19 4 37q0 60 -75 60q-43 0 -69.5 -20.5t-33.5 -63.5q-2 -14 -2 -20q0 -35 31 -54l66 -30q79 -38 92 -48q43 -32 43 -83q0 -14 -3 -29q-14 -79 -74 -125t-145 -46q-41 0 -76.5 14t-50.5 44q-9 14 -13 31t-4 32q0 16 2.5 30.5t4.5 25.5h75q-5 -25 -5 -42 q0 -68 79 -68q51 0 82.5 22t40.5 72q2 12 2 18q0 39 -41 61q-55 20 -79 31q-60 24 -82 45q-30 28 -30 76q0 8 1.5 19t2.5 18q12 71 65.5 114t125.5 43q73 0 110.5 -29t37.5 -90v-16q-4 -19 -5 -29z" glyph-name="threequarters" horiz-adv-x="444" unicode="¾"/>
<glyph d="M402 407h-77q4 19 4 37q0 60 -75 60q-43 0 -69.5 -20.5t-33.5 -63.5q-2 -14 -2 -20q0 -35 31 -54l66 -30q79 -38 92 -48q43 -32 43 -83q0 -14 -3 -29q-14 -79 -74 -125t-145 -46q-41 0 -76.5 14t-50.5 44q-9 14 -13 31t-4 32q0 16 2.5 30.5t4.5 25.5h75q-5 -25 -5 -42 q0 -68 79 -68q51 0 82.5 22t40.5 72q2 12 2 18q0 39 -41 61q-55 20 -79 31q-60 24 -82 45q-30 28 -30 76q0 8 1.5 19t2.5 18q12 71 65.5 114t125.5 43q73 0 110.5 -29t37.5 -90v-16q-4 -19 -5 -29z" glyph-name="threequarters" horiz-adv-x="444" unicode="ѕ"/>
<glyph d="M101 0h-79l98 556h79zM79 750h79l-17 -100h-79zM291 650h-79l17 100h79z" glyph-name="questiondown" horiz-adv-x="222" unicode="¿"/>
<glyph d="M101 0h-79l98 556h79zM79 750h79l-17 -100h-79zM291 650h-79l17 100h79z" glyph-name="questiondown" horiz-adv-x="222" unicode="ї"/>
<glyph d="M-39 0l346 750h110l79 -750h-92l-21 216h-237l-93 -216h-92zM377 291l-26 399l-172 -399h198z" glyph-name="Agrave" horiz-adv-x="556" unicode="À"/>
<glyph d="M-39 0l346 750h110l79 -750h-92l-21 216h-237l-93 -216h-92zM377 291l-26 399l-172 -399h198z" glyph-name="Agrave" horiz-adv-x="556" unicode="А"/>
<glyph d="M175 357l-50 -282h72q97 0 139 24q55 31 70 122q1 10 2.5 19t1.5 19q0 59 -45 81q-35 17 -113 17h-77zM536 750l-13 -75h-292l-43 -243h105q72 0 113 -14q33 -11 53 -34t29 -51t9 -59q0 -9 -0.5 -17.5t-4.5 -33.5q-12 -69 -43 -118q-36 -57 -98 -83q-41 -16 -104 -19 t-94 -3h-124l132 750h375z" glyph-name="Aacute" horiz-adv-x="556" unicode="Á"/>
<glyph d="M175 357l-50 -282h72q97 0 139 24q55 31 70 122q1 10 2.5 19t1.5 19q0 59 -45 81q-35 17 -113 17h-77zM536 750l-13 -75h-292l-43 -243h105q72 0 113 -14q33 -11 53 -34t29 -51t9 -59q0 -9 -0.5 -17.5t-4.5 -33.5q-12 -69 -43 -118q-36 -57 -98 -83q-41 -16 -104 -19 t-94 -3h-124l132 750h375z" glyph-name="Aacute" horiz-adv-x="556" unicode="Б"/>
<glyph d="M125 75h131q67 0 101 33t47 108q3 19 4 25.5t1 20.5q0 58 -40 78q-27 14 -90 14h-31h-74zM231 675l-43 -246h74q86 0 121 20q47 27 60 108q2 9 3 21t1 20q0 44 -31 60.5t-112 16.5h-73zM227 0h-198l132 750h214q85 0 125 -38q36 -35 36 -103q0 -21 -3 -45 q-9 -64 -40.5 -103.5t-100.5 -61.5q55 -8 81 -42q23 -31 23 -84q0 -22 -5 -52q-18 -110 -86.5 -165.5t-177.5 -55.5z" glyph-name="Acircumflex" horiz-adv-x="556" unicode="Â"/>
<glyph d="M125 75h131q67 0 101 33t47 108q3 19 4 25.5t1 20.5q0 58 -40 78q-27 14 -90 14h-31h-74zM231 675l-43 -246h74q86 0 121 20q47 27 60 108q2 9 3 21t1 20q0 44 -31 60.5t-112 16.5h-73zM227 0h-198l132 750h214q85 0 125 -38q36 -35 36 -103q0 -21 -3 -45 q-9 -64 -40.5 -103.5t-100.5 -61.5q55 -8 81 -42q23 -31 23 -84q0 -22 -5 -52q-18 -110 -86.5 -165.5t-177.5 -55.5z" glyph-name="Acircumflex" horiz-adv-x="556" unicode="В"/>
<glyph d="M107 0h-83l132 750h352l-13 -75h-269z" glyph-name="Atilde" horiz-adv-x="444" unicode="Ã"/>
<glyph d="M107 0h-83l132 750h352l-13 -75h-269z" glyph-name="Atilde" horiz-adv-x="444" unicode="Г"/>
<glyph d="M174 750h402l-119 -677h46l-32 -181h-80l19 108h-371l-19 -108h-81l32 181h29q35 16 57 70q19 46 35 142zM480 677h-239l-70 -401q-17 -92 -33.5 -133t-40.5 -70h277z" glyph-name="Adieresis" horiz-adv-x="573" unicode="Ä"/>
<glyph d="M174 750h402l-119 -677h46l-32 -181h-80l19 108h-371l-19 -108h-81l32 181h29q35 16 57 70q19 46 35 142zM480 677h-239l-70 -401q-17 -92 -33.5 -133t-40.5 -70h277z" glyph-name="Adieresis" horiz-adv-x="573" unicode="Д"/>
<glyph d="M406 0h-377l132 750h375l-13 -75h-292l-44 -248h274l-13 -75h-274l-49 -277h294z" glyph-name="Aring" unicode="Å"/>
<glyph d="M406 0h-377l132 750h375l-13 -75h-292l-44 -248h274l-13 -75h-274l-49 -277h294z" glyph-name="Aring" unicode="Е"/>
<glyph d="M558 750l-68 -385l341 385h104l-294 -314l169 -436h-102l-139 362l-96 -102l-46 -260h-84l46 260l-60 102l-267 -362h-102l323 436l-184 314h104l205 -385l68 385h82z" glyph-name="AE" horiz-adv-x="870" unicode="Æ"/>
<glyph d="M558 750l-68 -385l341 385h104l-294 -314l169 -436h-102l-139 362l-96 -102l-46 -260h-84l46 260l-60 102l-267 -362h-102l323 436l-184 314h104l205 -385l68 385h82z" glyph-name="AE" horiz-adv-x="870" unicode="Ж"/>
<glyph d="M226 354l14 75h31q70 0 106 20q54 31 69 115q3 18 3 34q0 44 -25 68t-78 24q-71 0 -108 -40q-29 -31 -42 -96h-85q17 96 77 151q66 60 172 60q84 0 132 -41t48 -112q0 -18 -3 -38q-11 -67 -43 -107q-36 -45 -105 -66q56 -16 84.5 -53.5t28.5 -92.5q0 -17 -3 -35 q-20 -112 -87 -173q-72 -65 -195 -65q-99 0 -146 46q-43 42 -43 120q0 32 8 74l87 -1q-8 -32 -8 -59q0 -48 26 -74q31 -31 98 -31q70 0 112.5 37.5t53.5 99.5q3 13 4 26.5t1 27.5q0 64 -41.5 85t-142.5 21z" glyph-name="Ccedilla" horiz-adv-x="556" unicode="Ç"/>
<glyph d="M226 354l14 75h31q70 0 106 20q54 31 69 115q3 18 3 34q0 44 -25 68t-78 24q-71 0 -108 -40q-29 -31 -42 -96h-85q17 96 77 151q66 60 172 60q84 0 132 -41t48 -112q0 -18 -3 -38q-11 -67 -43 -107q-36 -45 -105 -66q56 -16 84.5 -53.5t28.5 -92.5q0 -17 -3 -35 q-20 -112 -87 -173q-72 -65 -195 -65q-99 0 -146 46q-43 42 -43 120q0 32 8 74l87 -1q-8 -32 -8 -59q0 -48 26 -74q31 -31 98 -31q70 0 112.5 37.5t53.5 99.5q3 13 4 26.5t1 27.5q0 64 -41.5 85t-142.5 21z" glyph-name="Ccedilla" horiz-adv-x="556" unicode="З"/>
<glyph d="M134 138l-16 -84q9 17 18 35q18 36 24 47l321 614h135l-132 -750h-83l105 598l23 115q-24 -65 -50 -113l-316 -600h-136l132 750h83z" glyph-name="Egrave" horiz-adv-x="611" unicode="È"/>
<glyph d="M134 138l-16 -84q9 17 18 35q18 36 24 47l321 614h135l-132 -750h-83l105 598l23 115q-24 -65 -50 -113l-316 -600h-136l132 750h83z" glyph-name="Egrave" horiz-adv-x="611" unicode="И"/>
<glyph d="M134 138l-16 -84q9 17 18 35q18 36 24 47l321 614h135l-132 -750h-83l105 598l23 115q-24 -65 -50 -113l-316 -600h-136l132 750h83zM271 959h49q0 -40 25 -58.5t68 -18.5t72 17.5t46 59.5h49q-15 -68 -63.5 -102t-118.5 -34q-59 0 -92 26q-37 29 -37 85v12q2 9 2 13z " glyph-name="Eacute" horiz-adv-x="611" unicode="É"/>
<glyph d="M134 138l-16 -84q9 17 18 35q18 36 24 47l321 614h135l-132 -750h-83l105 598l23 115q-24 -65 -50 -113l-316 -600h-136l132 750h83zM271 959h49q0 -40 25 -58.5t68 -18.5t72 17.5t46 59.5h49q-15 -68 -63.5 -102t-118.5 -34q-59 0 -92 26q-37 29 -37 85v12q2 9 2 13z " glyph-name="Eacute" horiz-adv-x="611" unicode="Й"/>
<glyph d="M113 0h-84l132 750h83l-68 -385l341 385h104l-294 -314l169 -436h-102l-139 362l-96 -102z" glyph-name="Ecircumflex" horiz-adv-x="556" unicode="Ê"/>
<glyph d="M113 0h-84l132 750h83l-68 -385l341 385h104l-294 -314l169 -436h-102l-139 362l-96 -102z" glyph-name="Ecircumflex" horiz-adv-x="556" unicode="К"/>
<glyph d="M480 677h-239l-71 -404q-18 -103 -30 -142q-22 -71 -62 -107q-46 -42 -123 -42l14 82q84 0 123 218l82 468h402l-132 -750h-83z" glyph-name="Edieresis" horiz-adv-x="573" unicode="Ë"/>
<glyph d="M480 677h-239l-71 -404q-18 -103 -30 -142q-22 -71 -62 -107q-46 -42 -123 -42l14 82q84 0 123 218l82 468h402l-132 -750h-83z" glyph-name="Edieresis" horiz-adv-x="573" unicode="Л"/>
<glyph d="M386 166l252 584h146l-132 -750h-83l109 618q6 32 10.5 55t6.5 40l-43 -101l-265 -612h-99l-48 621q0 15 -2.5 46t-2.5 46l-17 -97l-109 -616h-83l132 750h147l44 -585q0 -35 -1 -61t-2 -50q9 28 19 57t21 55z" glyph-name="Igrave" horiz-adv-x="778" unicode="Ì"/>
<glyph d="M386 166l252 584h146l-132 -750h-83l109 618q6 32 10.5 55t6.5 40l-43 -101l-265 -612h-99l-48 621q0 15 -2.5 46t-2.5 46l-17 -97l-109 -616h-83l132 750h147l44 -585q0 -35 -1 -61t-2 -50q9 28 19 57t21 55z" glyph-name="Igrave" horiz-adv-x="778" unicode="М"/>
<glyph d="M112 0h-83l132 750h83l-55 -313h287l55 313h83l-132 -750h-83l64 362h-287z" glyph-name="Iacute" horiz-adv-x="611" unicode="Í"/>
<glyph d="M112 0h-83l132 750h83l-55 -313h287l55 313h83l-132 -750h-83l64 362h-287z" glyph-name="Iacute" horiz-adv-x="611" unicode="Н"/>
<glyph d="M78 391q18 106 45 173q37 95 95 143q69 58 175 58q107 0 155 -66q40 -55 40 -156q0 -32 -2.5 -61.5t-13.5 -90.5q-23 -127 -50 -198q-38 -100 -96 -151q-69 -60 -173 -60q-107 0 -154 65q-40 55 -40 163q0 42 4.5 82.5t14.5 98.5zM486 389q14 76 14 136q0 78 -27 119 q-31 46 -97 46q-89 0 -143 -88q-46 -74 -69 -213q-9 -51 -15 -101t-6 -83q0 -75 28 -111.5t95 -36.5q98 0 147 84q40 68 73 248z" glyph-name="Icircumflex" horiz-adv-x="611" unicode="Î"/>
<glyph d="M78 391q18 106 45 173q37 95 95 143q69 58 175 58q107 0 155 -66q40 -55 40 -156q0 -32 -2.5 -61.5t-13.5 -90.5q-23 -127 -50 -198q-38 -100 -96 -151q-69 -60 -173 -60q-107 0 -154 65q-40 55 -40 163q0 42 4.5 82.5t14.5 98.5zM486 389q14 76 14 136q0 78 -27 119 q-31 46 -97 46q-89 0 -143 -88q-46 -74 -69 -213q-9 -51 -15 -101t-6 -83q0 -75 28 -111.5t95 -36.5q98 0 147 84q40 68 73 248z" glyph-name="Icircumflex" horiz-adv-x="611" unicode="О"/>
<glyph d="M112 0h-83l132 750h453l-132 -750h-83l119 675h-287z" glyph-name="Idieresis" horiz-adv-x="611" unicode="Ï"/>
<glyph d="M112 0h-83l132 750h453l-132 -750h-83l119 675h-287z" glyph-name="Idieresis" horiz-adv-x="611" unicode="П"/>
<glyph d="M231 675l-50 -282h81q97 0 139 24q55 31 70 122q1 10 2.5 19t1.5 19q0 59 -45 81q-35 17 -113 17h-86zM112 0h-83l132 750h197q72 0 113 -14q33 -11 53 -34t29 -51t9 -59q0 -9 -0.5 -17.5t-4.5 -33.5q-12 -69 -43 -118q-36 -57 -98 -83q-41 -16 -104 -19t-94 -3h-50z" glyph-name="Eth" horiz-adv-x="556" unicode="Ð"/>
<glyph d="M231 675l-50 -282h81q97 0 139 24q55 31 70 122q1 10 2.5 19t1.5 19q0 59 -45 81q-35 17 -113 17h-86zM112 0h-83l132 750h197q72 0 113 -14q33 -11 53 -34t29 -51t9 -59q0 -9 -0.5 -17.5t-4.5 -33.5q-12 -69 -43 -118q-36 -57 -98 -83q-41 -16 -104 -19t-94 -3h-50z" glyph-name="Eth" horiz-adv-x="556" unicode="Р"/>
<glyph d="M546 525h-83q1 12 2.5 23.5t1.5 25.5q0 55 -23 83q-27 33 -87 33q-93 0 -147 -115q-30 -65 -53 -189q-8 -37 -15 -83.5t-7 -86.5q0 -72 22 -111q27 -48 88 -48q67 0 107 50q28 36 52 113l14 51h83l-12 -46q-16 -60 -25 -83q-16 -41 -47 -76q-37 -41 -81 -62.5t-97 -21.5 q-106 0 -152 63q-38 52 -38 151q0 41 6 87.5t16 100.5q18 102 45 173q37 97 92 147q68 61 168 61q86 0 133 -50q44 -47 44 -127q0 -12 -2 -28t-5 -35z" glyph-name="Ntilde" horiz-adv-x="556" unicode="Ñ"/>
<glyph d="M546 525h-83q1 12 2.5 23.5t1.5 25.5q0 55 -23 83q-27 33 -87 33q-93 0 -147 -115q-30 -65 -53 -189q-8 -37 -15 -83.5t-7 -86.5q0 -72 22 -111q27 -48 88 -48q67 0 107 50q28 36 52 113l14 51h83l-12 -46q-16 -60 -25 -83q-16 -41 -47 -76q-37 -41 -81 -62.5t-97 -21.5 q-106 0 -152 63q-38 52 -38 151q0 41 6 87.5t16 100.5q18 102 45 173q37 97 92 147q68 61 168 61q86 0 133 -50q44 -47 44 -127q0 -12 -2 -28t-5 -35z" glyph-name="Ntilde" horiz-adv-x="556" unicode="С"/>
<glyph d="M84 675l13 75h471l-13 -75h-194l-119 -675h-83l119 675h-194z" glyph-name="Ograve" unicode="Ò"/>
<glyph d="M84 675l13 75h471l-13 -75h-194l-119 -675h-83l119 675h-194z" glyph-name="Ograve" unicode="Т"/>
<glyph d="M295 268l240 482h92l-322 -615q-37 -74 -70 -108q-44 -45 -101 -45l-51 3l14 76q14 -3 37 -3q22 0 41.5 13t39.5 47l27 48l-149 584h95z" glyph-name="Oacute" horiz-adv-x="556" unicode="Ó"/>
<glyph d="M295 268l240 482h92l-322 -615q-37 -74 -70 -108q-44 -45 -101 -45l-51 3l14 76q14 -3 37 -3q22 0 41.5 13t39.5 47l27 48l-149 584h95z" glyph-name="Oacute" horiz-adv-x="556" unicode="У"/>
<glyph d="M429 750h83l-21 -118h38q113 0 173.5 -50.5t60.5 -143.5q0 -23 -5 -55q-21 -115 -107.5 -190.5t-191.5 -75.5h-58l-21 -117h-83l21 117h-59q-91 0 -150 59t-59 154q0 23 5 53q20 117 102 183t212 66h39zM330 188l66 375h-56q-76 0 -132.5 -51t-70.5 -134q-2 -9 -3 -21 t-1 -21q0 -72 47.5 -110t125.5 -38h24zM479 563l-66 -375h23q89 0 152 47q69 51 86 143q1 10 2.5 19t1.5 21q0 65 -39 105t-104 40h-56z" glyph-name="Ocircumflex" horiz-adv-x="778" unicode="Ô"/>
<glyph d="M429 750h83l-21 -118h38q113 0 173.5 -50.5t60.5 -143.5q0 -23 -5 -55q-21 -115 -107.5 -190.5t-191.5 -75.5h-58l-21 -117h-83l21 117h-59q-91 0 -150 59t-59 154q0 23 5 53q20 117 102 183t212 66h39zM330 188l66 375h-56q-76 0 -132.5 -51t-70.5 -134q-2 -9 -3 -21 t-1 -21q0 -72 47.5 -110t125.5 -38h24zM479 563l-66 -375h23q89 0 152 47q69 51 86 143q1 10 2.5 19t1.5 21q0 65 -39 105t-104 40h-56z" glyph-name="Ocircumflex" horiz-adv-x="778" unicode="Ф"/>
<glyph d="M-33 0l281 385l-143 365h98l106 -293l208 293h98l-270 -365l144 -385h-102l-104 314l-217 -314h-99z" glyph-name="Otilde" horiz-adv-x="556" unicode="Õ"/>
<glyph d="M-33 0l281 385l-143 365h98l106 -293l208 293h98l-270 -365l144 -385h-102l-104 314l-217 -314h-99z" glyph-name="Otilde" horiz-adv-x="556" unicode="Х"/>
<glyph d="M495 75h46l-32 -183h-80l19 108h-419l132 750h83l-119 -675h287l119 675h83z" glyph-name="Odieresis" horiz-adv-x="611" unicode="Ö"/>
<glyph d="M495 75h46l-32 -183h-80l19 108h-419l132 750h83l-119 -675h287l119 675h83z" glyph-name="Odieresis" horiz-adv-x="611" unicode="Ц"/>
<glyph d="M421 436l55 314h83l-132 -750h-83l64 363q-50 -26 -94.5 -39.5t-99.5 -13.5q-59 0 -98 35t-39 95q0 14 3 31l49 279h82l-46 -265q-2 -16 -2 -24q0 -37 23.5 -57.5t63.5 -20.5q44 0 88.5 14.5t82.5 38.5z" glyph-name="multiply" horiz-adv-x="556" unicode="×"/>
<glyph d="M421 436l55 314h83l-132 -750h-83l64 363q-50 -26 -94.5 -39.5t-99.5 -13.5q-59 0 -98 35t-39 95q0 14 3 31l49 279h82l-46 -265q-2 -16 -2 -24q0 -37 23.5 -57.5t63.5 -20.5q44 0 88.5 14.5t82.5 38.5z" glyph-name="multiply" horiz-adv-x="556" unicode="Ч"/>
<glyph d="M411 75h203l119 675h83l-132 -750h-655l132 750h83l-119 -675h203l119 675h83z" glyph-name="Oslash" horiz-adv-x="814" unicode="Ø"/>
<glyph d="M411 75h203l119 675h83l-132 -750h-655l132 750h83l-119 -675h203l119 675h83z" glyph-name="Oslash" horiz-adv-x="814" unicode="Ш"/>
<glyph d="M697 75h46l-32 -183h-80l19 108h-621l132 750h83l-119 -675h203l119 675h83l-119 -675h203l119 675h83z" glyph-name="Ugrave" horiz-adv-x="814" unicode="Ù"/>
<glyph d="M697 75h46l-32 -183h-80l19 108h-621l132 750h83l-119 -675h203l119 675h83l-119 -675h203l119 675h83z" glyph-name="Ugrave" horiz-adv-x="814" unicode="Щ"/>
<glyph d="M230 357l-50 -282h81q97 0 139 24q55 31 70 122q1 10 2.5 19t1.5 19q0 59 -45 81q-35 17 -113 17h-86zM203 675h-119l13 75h202l-56 -318h114q72 0 113 -14q33 -11 53 -34t29 -51t9 -59q0 -9 -0.5 -17.5t-4.5 -33.5q-12 -69 -43 -118q-36 -57 -98 -83q-41 -16 -104 -19 t-94 -3h-133z" glyph-name="Uacute" horiz-adv-x="611" unicode="Ú"/>
<glyph d="M230 357l-50 -282h81q97 0 139 24q55 31 70 122q1 10 2.5 19t1.5 19q0 59 -45 81q-35 17 -113 17h-86zM203 675h-119l13 75h202l-56 -318h114q72 0 113 -14q33 -11 53 -34t29 -51t9 -59q0 -9 -0.5 -17.5t-4.5 -33.5q-12 -69 -43 -118q-36 -57 -98 -83q-41 -16 -104 -19 t-94 -3h-133z" glyph-name="Uacute" horiz-adv-x="611" unicode="Ъ"/>
<glyph d="M629 0h-83l132 750h83zM175 357l-50 -282h81q97 0 139 24q55 31 70 122q1 10 2.5 19t1.5 19q0 59 -45 81q-35 17 -113 17h-86zM161 750h83l-56 -318h114q72 0 113 -14q33 -11 53 -34t29 -51t9 -59q0 -9 -0.5 -17.5t-4.5 -33.5q-12 -69 -43 -118q-36 -57 -98 -83 q-41 -16 -104 -19t-94 -3h-133z" glyph-name="Ucircumflex" horiz-adv-x="758" unicode="Û"/>
<glyph d="M629 0h-83l132 750h83zM175 357l-50 -282h81q97 0 139 24q55 31 70 122q1 10 2.5 19t1.5 19q0 59 -45 81q-35 17 -113 17h-86zM161 750h83l-56 -318h114q72 0 113 -14q33 -11 53 -34t29 -51t9 -59q0 -9 -0.5 -17.5t-4.5 -33.5q-12 -69 -43 -118q-36 -57 -98 -83 q-41 -16 -104 -19t-94 -3h-133z" glyph-name="Ucircumflex" horiz-adv-x="758" unicode="Ы"/>
<glyph d="M175 357l-50 -282h81q97 0 139 24q55 31 70 122q1 10 2.5 19t1.5 19q0 59 -45 81q-35 17 -113 17h-86zM161 750h83l-56 -318h114q72 0 113 -14q33 -11 53 -34t29 -51t9 -59q0 -9 -0.5 -17.5t-4.5 -33.5q-12 -69 -43 -118q-36 -57 -98 -83q-41 -16 -104 -19t-94 -3h-133z " glyph-name="Udieresis" horiz-adv-x="556" unicode="Ü"/>
<glyph d="M175 357l-50 -282h81q97 0 139 24q55 31 70 122q1 10 2.5 19t1.5 19q0 59 -45 81q-35 17 -113 17h-86zM161 750h83l-56 -318h114q72 0 113 -14q33 -11 53 -34t29 -51t9 -59q0 -9 -0.5 -17.5t-4.5 -33.5q-12 -69 -43 -118q-36 -57 -98 -83q-41 -16 -104 -19t-94 -3h-133z " glyph-name="Udieresis" horiz-adv-x="556" unicode="Ь"/>
<glyph d="M461 429q2 16 5 49.5t3 50.5q0 74 -22 112q-28 49 -95 49q-72 0 -113 -38q-35 -32 -52 -96h-84q22 94 85 149q69 60 171 60q109 0 157 -67q39 -55 39 -159q0 -41 -3.5 -72.5t-12.5 -82.5q-21 -119 -44 -183q-37 -103 -94 -155q-70 -64 -181 -64q-114 0 -159 84 q-11 21 -16 45t-5 48q0 15 1.5 33t2.5 29l1 6h84l-1 -5q0 -81 15 -113q24 -52 97 -52q97 0 153 107q37 70 55 190h-225l14 75h224z" glyph-name="Yacute" horiz-adv-x="573" unicode="Ý"/>
<glyph d="M461 429q2 16 5 49.5t3 50.5q0 74 -22 112q-28 49 -95 49q-72 0 -113 -38q-35 -32 -52 -96h-84q22 94 85 149q69 60 171 60q109 0 157 -67q39 -55 39 -159q0 -41 -3.5 -72.5t-12.5 -82.5q-21 -119 -44 -183q-37 -103 -94 -155q-70 -64 -181 -64q-114 0 -159 84 q-11 21 -16 45t-5 48q0 15 1.5 33t2.5 29l1 6h84l-1 -5q0 -81 15 -113q24 -52 97 -52q97 0 153 107q37 70 55 190h-225l14 75h224z" glyph-name="Yacute" horiz-adv-x="573" unicode="Э"/>
<glyph d="M669 389q16 86 16 148q0 74 -25 111q-28 42 -92 42q-88 0 -139 -88q-40 -69 -64 -213q-11 -62 -17.5 -112t-6.5 -85q0 -70 26.5 -102.5t90.5 -32.5q96 0 142 84q35 64 69 248zM273 354h-99l-62 -354h-83l132 750h83l-56 -321h98q19 95 48 159q37 83 92 126q65 51 159 51 q103 0 149 -65q38 -54 38 -155q0 -35 -4.5 -72t-12.5 -82q-23 -128 -49 -198q-37 -100 -93 -151q-67 -60 -168 -60q-103 0 -148 63q-38 53 -38 158q0 32 4 70.5t10 80.5z" glyph-name="Thorn" horiz-adv-x="795" unicode="Þ"/>
<glyph d="M669 389q16 86 16 148q0 74 -25 111q-28 42 -92 42q-88 0 -139 -88q-40 -69 -64 -213q-11 -62 -17.5 -112t-6.5 -85q0 -70 26.5 -102.5t90.5 -32.5q96 0 142 84q35 64 69 248zM273 354h-99l-62 -354h-83l132 750h83l-56 -321h98q19 95 48 159q37 83 92 126q65 51 159 51 q103 0 149 -65q38 -54 38 -155q0 -35 -4.5 -72t-12.5 -82q-23 -128 -49 -198q-37 -100 -93 -151q-67 -60 -168 -60q-103 0 -148 63q-38 53 -38 158q0 32 4 70.5t10 80.5z" glyph-name="Thorn" horiz-adv-x="795" unicode="Ю"/>
<glyph d="M439 330h-145q-69 0 -108 -41q-33 -35 -43 -91t-24 -103q-18 -60 -37 -95h-97l3 17q13 0 24 18q6 10 13 29q26 81 46 167q22 77 53 105t104 35q-55 9 -85.5 44.5t-30.5 90.5q0 20 2 30q18 122 95 172q65 42 194 42h193l-132 -750h-83zM500 675h-117q-67 0 -103 -17 q-63 -30 -79 -115q-4 -19 -4 -37q0 -47 31.5 -74t92.5 -27h131z" glyph-name="germandbls" horiz-adv-x="593" unicode="ß"/>
<glyph d="M439 330h-145q-69 0 -108 -41q-33 -35 -43 -91t-24 -103q-18 -60 -37 -95h-97l3 17q13 0 24 18q6 10 13 29q26 81 46 167q22 77 53 105t104 35q-55 9 -85.5 44.5t-30.5 90.5q0 20 2 30q18 122 95 172q65 42 194 42h193l-132 -750h-83zM500 675h-117q-67 0 -103 -17 q-63 -30 -79 -115q-4 -19 -4 -37q0 -47 31.5 -74t92.5 -27h131z" glyph-name="germandbls" horiz-adv-x="593" unicode="Я"/>
<glyph d="M266 165l24 135q-24 -13 -67 -31q-35 -15 -65.5 -28t-47 -39t-21 -51t-4.5 -41q0 -29 14.5 -43.5t50.5 -14.5q33 0 63 22q42 31 53 91zM377 58l-10 -58l-19 -4q-54 0 -68 11q-18 14 -18 68q-22 -37 -62 -63.5t-79 -26.5q-64 0 -92 27t-28 80q0 26 7.5 65.5t33.5 73.5 t69 52q2 1 130 49q42 16 49 21q13 9 19 26q0 1 8 38q3 17 3 30q0 31 -17.5 44t-58.5 13q-51 0 -70.5 -22t-27.5 -76h-71q12 84 60.5 124.5t133.5 40.5q74 0 106 -37q23 -27 23 -71q0 -14 -2 -26t-3 -17l-56 -319q-2 -7 -2.5 -12t-0.5 -11q0 -14 9 -19q6 -2 17 -2q12 0 17 1z " glyph-name="agrave" horiz-adv-x="444" unicode="à"/>
<glyph d="M266 165l24 135q-24 -13 -67 -31q-35 -15 -65.5 -28t-47 -39t-21 -51t-4.5 -41q0 -29 14.5 -43.5t50.5 -14.5q33 0 63 22q42 31 53 91zM377 58l-10 -58l-19 -4q-54 0 -68 11q-18 14 -18 68q-22 -37 -62 -63.5t-79 -26.5q-64 0 -92 27t-28 80q0 26 7.5 65.5t33.5 73.5 t69 52q2 1 130 49q42 16 49 21q13 9 19 26q0 1 8 38q3 17 3 30q0 31 -17.5 44t-58.5 13q-51 0 -70.5 -22t-27.5 -76h-71q12 84 60.5 124.5t133.5 40.5q74 0 106 -37q23 -27 23 -71q0 -14 -2 -26t-3 -17l-56 -319q-2 -7 -2.5 -12t-0.5 -11q0 -14 9 -19q6 -2 17 -2q12 0 17 1z " glyph-name="agrave" horiz-adv-x="444" unicode="а"/>
<glyph d="M366 272q13 76 13 118q0 114 -89 114q-61 0 -98.5 -53.5t-59.5 -178.5q-11 -60 -11 -103q0 -56 21 -86.5t68 -30.5q66 0 104 61q33 53 52 159zM454 779h55q-9 -55 -54 -83q-39 -25 -140 -46q-76 -16 -120 -81q-10 -15 -32 -70q29 30 63 48q41 22 80 22q86 0 123 -55 q30 -44 30 -126q0 -28 -2.5 -53.5t-8.5 -58.5q-14 -77 -35 -130q-30 -74 -77 -113q-58 -48 -145 -48q-83 0 -119 53q-30 44 -30 131q0 35 4.5 71.5t12.5 83.5q18 101 42 170q32 91 78 146q54 64 126 80.5t80 18.5q65 17 69 40z" glyph-name="aacute" unicode="á"/>
<glyph d="M366 272q13 76 13 118q0 114 -89 114q-61 0 -98.5 -53.5t-59.5 -178.5q-11 -60 -11 -103q0 -56 21 -86.5t68 -30.5q66 0 104 61q33 53 52 159zM454 779h55q-9 -55 -54 -83q-39 -25 -140 -46q-76 -16 -120 -81q-10 -15 -32 -70q29 30 63 48q41 22 80 22q86 0 123 -55 q30 -44 30 -126q0 -28 -2.5 -53.5t-8.5 -58.5q-14 -77 -35 -130q-30 -74 -77 -113q-58 -48 -145 -48q-83 0 -119 53q-30 44 -30 131q0 35 4.5 71.5t12.5 83.5q18 101 42 170q32 91 78 146q54 64 126 80.5t80 18.5q65 17 69 40z" glyph-name="aacute" unicode="б"/>
<glyph d="M391 160q-17 -93 -83 -130q-54 -30 -157 -30h-128l98 556h161q38 0 65.5 -6t46.5 -24q16 -15 23.5 -35t7.5 -46q0 -18 -2 -28q-8 -43 -33 -76.5t-68 -48.5q72 -24 72 -101q0 -14 -3 -31zM341 411q2 14 2 20q0 36 -32 50q-24 10 -77 10h-45l-30 -170h48q61 0 89 16 q36 20 45 74zM313 165q2 16 2 23q0 40 -31 54.5t-88 14.5h-49l-34 -192h57q64 0 99 22t44 78z" glyph-name="acircumflex" horiz-adv-x="462" unicode="â"/>
<glyph d="M391 160q-17 -93 -83 -130q-54 -30 -157 -30h-128l98 556h161q38 0 65.5 -6t46.5 -24q16 -15 23.5 -35t7.5 -46q0 -18 -2 -28q-8 -43 -33 -76.5t-68 -48.5q72 -24 72 -101q0 -14 -3 -31zM341 411q2 14 2 20q0 36 -32 50q-24 10 -77 10h-45l-30 -170h48q61 0 89 16 q36 20 45 74zM313 165q2 16 2 23q0 40 -31 54.5t-88 14.5h-49l-34 -192h57q64 0 99 22t44 78z" glyph-name="acircumflex" horiz-adv-x="462" unicode="в"/>
<glyph d="M399 489h-212l-86 -489h-78l98 556h290z" glyph-name="atilde" horiz-adv-x="388" unicode="ã"/>
<glyph d="M399 489h-212l-86 -489h-78l98 556h290z" glyph-name="atilde" horiz-adv-x="388" unicode="г"/>
<glyph d="M374 -108h-76l19 108h-276l-19 -108h-76l30 173l35 2q23 14 37 49.5t26 100.5l60 339h322l-87 -491h35zM290 65l76 426h-167l-50 -283q-9 -50 -19 -79q-13 -37 -36 -64h196z" glyph-name="adieresis" horiz-adv-x="480" unicode="ä"/>
<glyph d="M374 -108h-76l19 108h-276l-19 -108h-76l30 173l35 2q23 14 37 49.5t26 100.5l60 339h322l-87 -491h35zM290 65l76 426h-167l-50 -283q-9 -50 -19 -79q-13 -37 -36 -64h196z" glyph-name="adieresis" horiz-adv-x="480" unicode="д"/>
<glyph d="M134 336h188q4 31 6.5 51.5t2.5 32.5q0 38 -14 59q-17 25 -56 25q-47 0 -76 -34.5t-51 -133.5zM300 185h74q-12 -87 -63 -141q-56 -59 -141 -59q-67 0 -101 38q-39 43 -39 137q0 50 12 119q21 116 67 190q64 102 163 102q78 0 111 -42q28 -35 28 -104q0 -33 -6 -74 t-12 -80h-270q-7 -37 -10 -58q-6 -38 -6 -65q0 -44 15 -67q19 -29 62 -29q52 0 84 43q27 36 32 90z" glyph-name="aring" horiz-adv-x="444" unicode="å"/>
<glyph d="M134 336h188q4 31 6.5 51.5t2.5 32.5q0 38 -14 59q-17 25 -56 25q-47 0 -76 -34.5t-51 -133.5zM300 185h74q-12 -87 -63 -141q-56 -59 -141 -59q-67 0 -101 38q-39 43 -39 137q0 50 12 119q21 116 67 190q64 102 163 102q78 0 111 -42q28 -35 28 -104q0 -33 -6 -74 t-12 -80h-270q-7 -37 -10 -58q-6 -38 -6 -65q0 -44 15 -67q19 -29 62 -29q52 0 84 43q27 36 32 90z" glyph-name="aring" horiz-adv-x="444" unicode="е"/>
<glyph d="M612 0h-92l-88 277l-74 -79l-35 -198h-79l35 198l-46 79l-186 -277h-92l237 340l-134 216h94l144 -259l46 259h79l-46 -259l236 259h94l-210 -216z" glyph-name="ae" horiz-adv-x="667" unicode="æ"/>
<glyph d="M612 0h-92l-88 277l-74 -79l-35 -198h-79l35 198l-46 79l-186 -277h-92l237 340l-134 216h94l144 -259l46 259h79l-46 -259l236 259h94l-210 -216z" glyph-name="ae" horiz-adv-x="667" unicode="ж"/>
<glyph d="M377 150q-17 -98 -96 -139q-50 -26 -113 -26q-76 0 -115 35t-39 99l6 48h74q-3 -18 -3 -33q0 -40 20 -62t68 -22q45 0 77 29t40 72q2 16 2 25q0 36 -19 55q-22 23 -71 23l-48 2l11 64l33 1q53 0 85 23.5t41 74.5q2 12 2 18q0 30 -17 47q-20 20 -57 20q-47 0 -75 -29 q-23 -24 -31 -65h-76l8 33q19 62 67.5 95t116.5 33q69 0 107 -29.5t38 -88.5q0 -16 -3 -34q-8 -47 -32 -75q-27 -32 -84 -51q86 -28 86 -113q0 -15 -3 -30z" glyph-name="ccedilla" horiz-adv-x="444" unicode="ç"/>
<glyph d="M377 150q-17 -98 -96 -139q-50 -26 -113 -26q-76 0 -115 35t-39 99l6 48h74q-3 -18 -3 -33q0 -40 20 -62t68 -22q45 0 77 29t40 72q2 16 2 25q0 36 -19 55q-22 23 -71 23l-48 2l11 64l33 1q53 0 85 23.5t41 74.5q2 12 2 18q0 30 -17 47q-20 20 -57 20q-47 0 -75 -29 q-23 -24 -31 -65h-76l8 33q19 62 67.5 95t116.5 33q69 0 107 -29.5t38 -88.5q0 -16 -3 -34q-8 -47 -32 -75q-27 -32 -84 -51q86 -28 86 -113q0 -15 -3 -30z" glyph-name="ccedilla" horiz-adv-x="444" unicode="з"/>
<glyph d="M379 0h-77l72 404l25 115q-12 -28 -19 -44q-22 -50 -31 -68l-212 -407h-116l98 556h77l-76 -420l-16 -82q4 10 7 17q15 34 30 63l218 422h118z" glyph-name="egrave" unicode="è"/>
<glyph d="M379 0h-77l72 404l25 115q-12 -28 -19 -44q-22 -50 -31 -68l-212 -407h-116l98 556h77l-76 -420l-16 -82q4 10 7 17q15 34 30 63l218 422h118z" glyph-name="egrave" unicode="и"/>
<glyph d="M379 0h-77l72 404l25 115q-12 -28 -19 -44q-22 -50 -31 -68l-212 -407h-116l98 556h77l-76 -420l-16 -82q4 10 7 17q15 34 30 63l218 422h118zM182 765h49q0 -40 24.5 -58.5t67.5 -18.5q44 0 73 17.5t46 59.5h49q-15 -68 -63.5 -102t-118.5 -34q-59 0 -92 26 q-37 29 -37 85v12q2 9 2 13z" glyph-name="eacute" unicode="é"/>
<glyph d="M379 0h-77l72 404l25 115q-12 -28 -19 -44q-22 -50 -31 -68l-212 -407h-116l98 556h77l-76 -420l-16 -82q4 10 7 17q15 34 30 63l218 422h118zM182 765h49q0 -40 24.5 -58.5t67.5 -18.5q44 0 73 17.5t46 59.5h49q-15 -68 -63.5 -102t-118.5 -34q-59 0 -92 26 q-37 29 -37 85v12q2 9 2 13z" glyph-name="eacute" unicode="й"/>
<glyph d="M98 0h-79l98 556h79l-46 -259l238 259h94l-210 -216l117 -340h-92l-90 277l-74 -79z" glyph-name="ecircumflex" horiz-adv-x="444" unicode="ê"/>
<glyph d="M98 0h-79l98 556h79l-46 -259l238 259h94l-210 -216l117 -340h-92l-90 277l-74 -79z" glyph-name="ecircumflex" horiz-adv-x="444" unicode="к"/>
<glyph d="M358 0h-79l87 491h-167l-51 -288q-24 -134 -70 -179q-40 -39 -109 -39l14 75q52 0 71 63q8 27 21 98l59 335h322z" glyph-name="edieresis" horiz-adv-x="481" unicode="ë"/>
<glyph d="M358 0h-79l87 491h-167l-51 -288q-24 -134 -70 -179q-40 -39 -109 -39l14 75q52 0 71 63q8 27 21 98l59 335h322z" glyph-name="edieresis" horiz-adv-x="481" unicode="л"/>
<glyph d="M544 0h-77l75 423l19 96l-43 -91l-192 -428h-86l-42 427q-2 19 -6 71q0 7 -1 21l-17 -96l-75 -423h-76l98 556h134l37 -391q1 -14 1.5 -26t0.5 -21q0 -20 -0.5 -36t-1.5 -28q9 26 14 41q17 49 26 70l179 391h131z" glyph-name="igrave" horiz-adv-x="667" unicode="ì"/>
<glyph d="M544 0h-77l75 423l19 96l-43 -91l-192 -428h-86l-42 427q-2 19 -6 71q0 7 -1 21l-17 -96l-75 -423h-76l98 556h134l37 -391q1 -14 1.5 -26t0.5 -21q0 -20 -0.5 -36t-1.5 -28q9 26 14 41q17 49 26 70l179 391h131z" glyph-name="igrave" horiz-adv-x="667" unicode="м"/>
<glyph d="M377 0h-79l46 262h-196l-46 -262h-79l98 556h79l-40 -229h196l40 229h79z" glyph-name="iacute" unicode="í"/>
<glyph d="M377 0h-79l46 262h-196l-46 -262h-79l98 556h79l-40 -229h196l40 229h79z" glyph-name="iacute" unicode="н"/>
<glyph d="M451 297q-30 -171 -97 -246q-59 -66 -157 -66q-76 0 -114 40q-43 45 -43 145q0 26 3 57t10 70q23 131 83 200q64 74 165 74q81 0 120 -47t39 -135q0 -42 -9 -92zM365 272q13 76 13 118q0 114 -89 114q-61 0 -98.5 -53.5t-59.5 -178.5q-11 -60 -11 -103q0 -56 21 -86.5 t68 -30.5q66 0 104 61q33 53 52 159z" glyph-name="icircumflex" unicode="î"/>
<glyph d="M451 297q-30 -171 -97 -246q-59 -66 -157 -66q-76 0 -114 40q-43 45 -43 145q0 26 3 57t10 70q23 131 83 200q64 74 165 74q81 0 120 -47t39 -135q0 -42 -9 -92zM365 272q13 76 13 118q0 114 -89 114q-61 0 -98.5 -53.5t-59.5 -178.5q-11 -60 -11 -103q0 -56 21 -86.5 t68 -30.5q66 0 104 61q33 53 52 159z" glyph-name="icircumflex" unicode="о"/>
<glyph d="M377 0h-79l87 491h-196l-87 -491h-79l98 556h354z" glyph-name="idieresis" unicode="ï"/>
<glyph d="M377 0h-79l87 491h-196l-87 -491h-79l98 556h354z" glyph-name="idieresis" unicode="п"/>
<glyph d="M366 288q4 22 7 46t3 50q0 53 -16 83q-20 37 -65 37q-81 0 -120 -118q-13 -39 -25 -107q-5 -28 -9.5 -59.5t-4.5 -57.5q0 -50 17.5 -80t62.5 -30q59 0 94 59t56 177zM111 58l-43 -246h-79l131 744h76l-11 -62q27 38 60.5 57.5t70.5 19.5q76 0 113 -55q31 -47 31 -125 q0 -16 -1.5 -35t-5.5 -41q-26 -146 -72 -224q-62 -106 -165 -106q-40 0 -63.5 18t-41.5 55z" glyph-name="eth" unicode="ð"/>
<glyph d="M366 288q4 22 7 46t3 50q0 53 -16 83q-20 37 -65 37q-81 0 -120 -118q-13 -39 -25 -107q-5 -28 -9.5 -59.5t-4.5 -57.5q0 -50 17.5 -80t62.5 -30q59 0 94 59t56 177zM111 58l-43 -246h-79l131 744h76l-11 -62q27 38 60.5 57.5t70.5 19.5q76 0 113 -55q31 -47 31 -125 q0 -16 -1.5 -35t-5.5 -41q-26 -146 -72 -224q-62 -106 -165 -106q-40 0 -63.5 18t-41.5 55z" glyph-name="eth" unicode="р"/>
<glyph d="M274 504q-58 0 -95 -58q-33 -52 -58 -192q-4 -23 -7 -46t-3 -49q0 -48 16 -74q20 -33 64 -33t73.5 28.5t49.5 113.5h75q-19 -92 -63 -145q-54 -64 -141 -64q-86 0 -124 48q-32 41 -32 120q0 24 3.5 54t9.5 64q30 171 98 241q57 59 147 59q67 0 103 -40q33 -37 33 -101 q0 -21 -5 -49h-74q1 10 2.5 20t1.5 23q0 37 -15 56q-19 24 -59 24z" glyph-name="ntilde" horiz-adv-x="444" unicode="ñ"/>
<glyph d="M274 504q-58 0 -95 -58q-33 -52 -58 -192q-4 -23 -7 -46t-3 -49q0 -48 16 -74q20 -33 64 -33t73.5 28.5t49.5 113.5h75q-19 -92 -63 -145q-54 -64 -141 -64q-86 0 -124 48q-32 41 -32 120q0 24 3.5 54t9.5 64q30 171 98 241q57 59 147 59q67 0 103 -40q33 -37 33 -101 q0 -21 -5 -49h-74q1 10 2.5 20t1.5 23q0 37 -15 56q-19 24 -59 24z" glyph-name="ntilde" horiz-adv-x="444" unicode="с"/>
<glyph d="M407 491h-136l-87 -491h-79l87 491h-136l11 65h351z" glyph-name="ograve" horiz-adv-x="388" unicode="ò"/>
<glyph d="M407 491h-136l-87 -491h-79l87 491h-136l11 65h351z" glyph-name="ograve" horiz-adv-x="388" unicode="т"/>
<glyph d="M130 -13l-77 569h82l40 -482l216 482h82l-259 -531q-21 -46 -35 -73q-24 -47 -41 -69q-28 -38 -61.5 -55.5t-77.5 -17.5q-29 0 -56 9l12 70q26 -12 57 -12q56 0 86 50q20 40 32 60z" glyph-name="oacute" horiz-adv-x="444" unicode="ó"/>
<glyph d="M130 -13l-77 569h82l40 -482l216 482h82l-259 -531q-21 -46 -35 -73q-24 -47 -41 -69q-28 -38 -61.5 -55.5t-77.5 -17.5q-29 0 -56 9l12 70q26 -12 57 -12q56 0 86 50q20 40 32 60z" glyph-name="oacute" horiz-adv-x="444" unicode="у"/>
<glyph d="M643 288q4 22 7 46t3 50q0 53 -16 83q-20 37 -65 37q-81 0 -120 -118q-13 -39 -25 -107q-5 -28 -9.5 -59.5t-4.5 -57.5q0 -50 17.5 -80t62.5 -30q59 0 94 59t56 177zM136 288q-13 -76 -13 -121q0 -57 18.5 -86t60.5 -29q71 0 109 84q21 45 37 143q7 34 10 59t3 54 q0 51 -15 78q-19 34 -63 34q-66 0 -106 -80q-26 -52 -41 -136zM266 -188l43 246q-31 -37 -58 -53q-33 -20 -73 -20q-73 0 -106 54q-28 46 -28 132q0 35 4 70.5t11 73.5q18 103 68 171q62 85 159 85q34 0 61.5 -19.5t39.5 -57.5l47 256h73l-45 -256q27 38 60.5 57.5 t70.5 19.5q76 0 113 -55q31 -47 31 -125q0 -16 -1.5 -35t-5.5 -41q-26 -146 -72 -224q-62 -106 -165 -106q-40 0 -63.5 18t-41.5 55l-43 -246h-79z" glyph-name="ocircumflex" horiz-adv-x="777" unicode="ô"/>
<glyph d="M643 288q4 22 7 46t3 50q0 53 -16 83q-20 37 -65 37q-81 0 -120 -118q-13 -39 -25 -107q-5 -28 -9.5 -59.5t-4.5 -57.5q0 -50 17.5 -80t62.5 -30q59 0 94 59t56 177zM136 288q-13 -76 -13 -121q0 -57 18.5 -86t60.5 -29q71 0 109 84q21 45 37 143q7 34 10 59t3 54 q0 51 -15 78q-19 34 -63 34q-66 0 -106 -80q-26 -52 -41 -136zM266 -188l43 246q-31 -37 -58 -53q-33 -20 -73 -20q-73 0 -106 54q-28 46 -28 132q0 35 4 70.5t11 73.5q18 103 68 171q62 85 159 85q34 0 61.5 -19.5t39.5 -57.5l47 256h73l-45 -256q27 38 60.5 57.5 t70.5 19.5q76 0 113 -55q31 -47 31 -125q0 -16 -1.5 -35t-5.5 -41q-26 -146 -72 -224q-62 -106 -165 -106q-40 0 -63.5 18t-41.5 55l-43 -246h-79z" glyph-name="ocircumflex" horiz-adv-x="777" unicode="ф"/>
<glyph d="M179 286l-112 270h82l89 -200l158 200h82l-208 -270l116 -286h-82l-91 222l-172 -222h-82z" glyph-name="otilde" horiz-adv-x="444" unicode="õ"/>
<glyph d="M179 286l-112 270h82l89 -200l158 200h82l-208 -270l116 -286h-82l-91 222l-172 -222h-82z" glyph-name="otilde" horiz-adv-x="444" unicode="х"/>
<glyph d="M336 0h-313l98 556h79l-87 -491h196l87 491h79l-87 -491h35l-30 -173h-76z" glyph-name="odieresis" unicode="ö"/>
<glyph d="M336 0h-313l98 556h79l-87 -491h196l87 491h79l-87 -491h35l-30 -173h-76z" glyph-name="odieresis" unicode="ц"/>
<glyph d="M357 0h-78l46 261q-36 -18 -72 -28t-75 -10q-53 0 -85.5 27.5t-32.5 74.5v11q2 8 2 12l37 208h79l-35 -200q-1 -4 -1 -12q0 -26 22 -40.5t54 -14.5q28 0 60 11.5t59 26.5l40 229h79z" glyph-name="divide" horiz-adv-x="481" unicode="÷"/>
<glyph d="M357 0h-78l46 261q-36 -18 -72 -28t-75 -10q-53 0 -85.5 27.5t-32.5 74.5v11q2 8 2 12l37 208h79l-35 -200q-1 -4 -1 -12q0 -26 22 -40.5t54 -14.5q28 0 60 11.5t59 26.5l40 229h79z" glyph-name="divide" horiz-adv-x="481" unicode="ч"/>
<glyph d="M524 0h-501l98 556h79l-87 -491h132l87 491h79l-87 -491h132l87 491h79z" glyph-name="oslash" horiz-adv-x="647" unicode="ø"/>
<glyph d="M524 0h-501l98 556h79l-87 -491h132l87 491h79l-87 -491h132l87 491h79z" glyph-name="oslash" horiz-adv-x="647" unicode="ш"/>
<glyph d="M483 0h-460l98 556h79l-87 -491h132l87 491h79l-87 -491h132l87 491h79l-87 -491h35l-30 -173h-76z" glyph-name="ugrave" horiz-adv-x="647" unicode="ù"/>
<glyph d="M483 0h-460l98 556h79l-87 -491h132l87 491h79l-87 -491h132l87 491h79l-87 -491h35l-30 -173h-76z" glyph-name="ugrave" horiz-adv-x="647" unicode="щ"/>
<glyph d="M244 257h-60l-34 -192h36q73 0 104 15q43 21 54 84q3 15 3 28q0 38 -25.5 51.5t-77.5 13.5zM147 491h-91l11 65h170l-41 -234h54q91 0 134 -24.5t43 -89.5q0 -7 -0.5 -16t-3.5 -26q-15 -91 -74 -129q-28 -19 -67.5 -28t-68.5 -9h-153z" glyph-name="uacute" horiz-adv-x="481" unicode="ú"/>
<glyph d="M244 257h-60l-34 -192h36q73 0 104 15q43 21 54 84q3 15 3 28q0 38 -25.5 51.5t-77.5 13.5zM147 491h-91l11 65h170l-41 -234h54q91 0 134 -24.5t43 -89.5q0 -7 -0.5 -16t-3.5 -26q-15 -91 -74 -129q-28 -19 -67.5 -28t-68.5 -9h-153z" glyph-name="uacute" horiz-adv-x="481" unicode="ъ"/>
<glyph d="M507 0h-79l98 556h79zM386 166q-15 -91 -74 -129q-28 -19 -67.5 -28t-68.5 -9h-153l98 556h79l-41 -234h54q91 0 134 -24.5t43 -89.5q0 -7 -0.5 -16t-3.5 -26zM207 257h-60l-34 -192h36q73 0 104 15q43 21 54 84q3 15 3 28q0 38 -25.5 51.5t-77.5 13.5z" glyph-name="ucircumflex" horiz-adv-x="630" unicode="û"/>
<glyph d="M507 0h-79l98 556h79zM386 166q-15 -91 -74 -129q-28 -19 -67.5 -28t-68.5 -9h-153l98 556h79l-41 -234h54q91 0 134 -24.5t43 -89.5q0 -7 -0.5 -16t-3.5 -26zM207 257h-60l-34 -192h36q73 0 104 15q43 21 54 84q3 15 3 28q0 38 -25.5 51.5t-77.5 13.5z" glyph-name="ucircumflex" horiz-adv-x="630" unicode="ы"/>
<glyph d="M386 166q-15 -91 -74 -129q-28 -19 -67.5 -28t-68.5 -9h-153l98 556h79l-41 -234h54q91 0 134 -24.5t43 -89.5q0 -7 -0.5 -16t-3.5 -26zM207 257h-60l-34 -192h36q73 0 104 15q43 21 54 84q3 15 3 28q0 38 -25.5 51.5t-77.5 13.5z" glyph-name="udieresis" horiz-adv-x="444" unicode="ü"/>
<glyph d="M386 166q-15 -91 -74 -129q-28 -19 -67.5 -28t-68.5 -9h-153l98 556h79l-41 -234h54q91 0 134 -24.5t43 -89.5q0 -7 -0.5 -16t-3.5 -26zM207 257h-60l-34 -192h36q73 0 104 15q43 21 54 84q3 15 3 28q0 38 -25.5 51.5t-77.5 13.5z" glyph-name="udieresis" horiz-adv-x="444" unicode="ь"/>
<glyph d="M324 321q4 31 4.5 45.5t0.5 22.5q0 52 -16 80q-20 35 -65 35q-44 0 -72 -28q-23 -23 -36 -66h-74q20 71 68 114q53 47 125 47q84 0 121 -53q31 -44 31 -126q0 -26 -3.5 -57t-9.5 -64q-24 -133 -68 -197q-61 -89 -177 -89q-71 0 -105 44q-30 39 -30 106v15q2 12 2 17h75 q-1 -8 -1 -16v-12q0 -41 14 -61q19 -26 63 -26q66 0 104 73q23 44 38 129l-160 2l12 65h159z" glyph-name="yacute" horiz-adv-x="444" unicode="ý"/>
<glyph d="M324 321q4 31 4.5 45.5t0.5 22.5q0 52 -16 80q-20 35 -65 35q-44 0 -72 -28q-23 -23 -36 -66h-74q20 71 68 114q53 47 125 47q84 0 121 -53q31 -44 31 -126q0 -26 -3.5 -57t-9.5 -64q-24 -133 -68 -197q-61 -89 -177 -89q-71 0 -105 44q-30 39 -30 106v15q2 12 2 17h75 q-1 -8 -1 -16v-12q0 -41 14 -61q19 -26 63 -26q66 0 104 73q23 44 38 129l-160 2l12 65h159z" glyph-name="yacute" horiz-adv-x="444" unicode="э"/>
<glyph d="M512 272q13 71 13 121q0 60 -19 85.5t-62 25.5q-57 0 -92.5 -53.5t-57.5 -178.5q-11 -63 -11 -107q0 -55 18.5 -84t62.5 -29q61 0 98 61q31 52 50 159zM213 262h-65l-46 -262h-79l98 556h79l-40 -229h65q26 118 81 179q59 65 150 65q76 0 113.5 -46.5t37.5 -132.5 q0 -42 -9 -95q-30 -171 -95 -246q-57 -66 -151 -66q-71 0 -107 39q-40 44 -40 142q0 38 8 96z" glyph-name="thorn" horiz-adv-x="647" unicode="þ"/>
<glyph d="M512 272q13 71 13 121q0 60 -19 85.5t-62 25.5q-57 0 -92.5 -53.5t-57.5 -178.5q-11 -63 -11 -107q0 -55 18.5 -84t62.5 -29q61 0 98 61q31 52 50 159zM213 262h-65l-46 -262h-79l98 556h79l-40 -229h65q26 118 81 179q59 65 150 65q76 0 113.5 -46.5t37.5 -132.5 q0 -42 -9 -95q-30 -171 -95 -246q-57 -66 -151 -66q-71 0 -107 39q-40 44 -40 142q0 38 8 96z" glyph-name="thorn" horiz-adv-x="647" unicode="ю"/>
</font>
</defs>
</svg>
