<svg xmlns="http://www.w3.org/2000/svg" width="56" height="22"><path d="M10.863 22a5.14 5.14 0 0 0 4.84-3.477l.132-.382h26.236l.132.382a5.136 5.136 0 0 0 3.143 3.183 5.067 5.067 0 0 0 1.7.294 5.138 5.138 0 0 0 4.839-3.477l.132-.382h3.6a.392.392 0 0 0 .389-.393v-5.725a3.851 3.851 0 0 0-1.9-3.317 21.771 21.771 0 0 0-10.613-2.912h-.141l-3.387-1.871A31.58 31.58 0 0 0 24.775 0h-1.159a30.95 30.95 0 0 0-13 2.842 31.887 31.887 0 0 0-3.6 1.933l-.1.062-6.583.952a.394.394 0 0 0-.334.389v7.81a3.059 3.059 0 0 0 1.919 2.872l3.086 1.254a.389.389 0 0 0 .145.027h.741l.132.382a5.134 5.134 0 0 0 3.143 3.183 5.061 5.061 0 0 0 1.698.294zm0-9.645a4.433 4.433 0 0 1 .871 8.765 4.335 4.335 0 0 1-.879.09 4.4 4.4 0 0 1-4.279-3.541 4.44 4.44 0 0 1 3.408-5.223 4.336 4.336 0 0 1 .883-.092zm36.179 0a4.432 4.432 0 0 1 .871 8.765 4.335 4.335 0 0 1-.879.09 4.4 4.4 0 0 1-4.279-3.541 4.54 4.54 0 0 1-.088-.885 4.427 4.427 0 0 1 3.5-4.338 4.343 4.343 0 0 1 .879-.092zm-36.187-.787a5.242 5.242 0 0 0-.524.027c-.027 0-.051.007-.075.011l-.115.019-.1.013c-.079.012-.154.022-.219.035-.028.006-.055.014-.082.022l-.118.031-.083.02c-.072.018-.146.035-.211.055-.033.011-.064.024-.1.037s-.074.029-.112.042l-.085.031c-.063.022-.127.045-.172.064s-.081.038-.121.058l-.094.047-.091.043a4.06 4.06 0 0 0-.147.072 2.1 2.1 0 0 0-.183.113c-.048.031-.1.061-.147.09s-.067.039-.094.058-.082.059-.123.091l-.069.053c-.029.023-.057.043-.085.063s-.077.055-.106.081-.068.061-.1.092l-.007.008a2.87 2.87 0 0 1-.092.084l-.064.058a1.725 1.725 0 0 0-.107.1l-.076.084a3.2 3.2 0 0 1-.114.126 1.951 1.951 0 0 0-.144.157c-.04.047-.08.1-.118.156l-.035.048-.062.082a2.413 2.413 0 0 0-.086.118c-.048.069-.091.145-.12.195s-.052.09-.079.133-.041.064-.057.1-.045.088-.066.134l-.047.1-.039.077a1.75 1.75 0 0 0-.101.24l-.009.026-.042.117-.029.078c-.02.054-.04.105-.056.158s-.024.086-.035.128v.013a4.432 4.432 0 0 1-.028.11l-.019.069c-.016.061-.033.122-.046.179s-.016.09-.023.137c0 0-.011.08-.017.113l-.014.087c-.01.06-.02.116-.025.169s-.007.1-.009.142v.011c0 .04 0 .079-.006.116s0 .065-.008.1-.008.09-.008.129v.844l-3.5-1.426A2.279 2.279 0 0 1 .78 13.995V9.474h2.856v-.788H.78V6.529l6.331-.916a.385.385 0 0 0 .151-.056 30.915 30.915 0 0 1 3.074-1.7l.359-.173 2.75 2.785a.386.386 0 0 0 .275.115h11.036v10.781H16.01v-.57a5.2 5.2 0 0 0-5.15-5.215zm36.183 0a5.188 5.188 0 0 0-5.149 5.215v.57h-16.36V6.572h17.7A20.972 20.972 0 0 1 53.708 9.39a3.048 3.048 0 0 1 1.509 2.631v5.332h-3.03v-.57a5.188 5.188 0 0 0-5.145-5.215zM24.752.787v5H13.88l-2.432-2.462.794-.321A30.233 30.233 0 0 1 23.62.79h1.136zm1.365.043a30.884 30.884 0 0 1 13.464 3.781l.377.209-.244.964H25.533V.8z" fill="#fff" fill-rule="evenodd" opacity=".4"/></svg>