<svg xmlns="http://www.w3.org/2000/svg" width="31" height="32"><path d="M15.89 18.79a9.223 9.223 0 0 1-6.59-2.749 9.458 9.458 0 0 1 0-13.3 9.288 9.288 0 0 1 13.19 0 9.459 9.459 0 0 1 0 13.3 9.234 9.234 0 0 1-6.6 2.749zm0-17.879a8.481 8.481 0 1 0 8.42 8.481A8.453 8.453 0 0 0 15.89.911zM17.3 32a3.866 3.866 0 0 1-1.08-.2l-9.28-3.117h-1.3v1.056H0v-11.91h5.64v1.356h3.68a2.776 2.776 0 0 1 .87.146l.05.05 3.25 1.712a1.865 1.865 0 0 0 .52.1h5.03a2.308 2.308 0 0 1 2.3 2.312 1.792 1.792 0 0 1-.05.537l-.03.088 6.86-2.34a2.011 2.011 0 0 1 .73-.135 2.18 2.18 0 0 1 1.95 1.266 2.13 2.13 0 0 1-.92 2.8l-11.01 5.878A3.535 3.535 0 0 1 17.3 32zm-.87-1.013a2.691 2.691 0 0 0 .8.122 2.658 2.658 0 0 0 1.18-.276l11.01-5.826a1.142 1.142 0 0 0 .6-.731 1.377 1.377 0 0 0-1.25-1.681 1.339 1.339 0 0 0-.42.069l-8.03 2.765h-.01a2.145 2.145 0 0 1-1.32.443h-4.13a.926.926 0 0 0-.94.9h-.91a1.858 1.858 0 0 1 1.85-1.814h4.09l.97-.358a1.478 1.478 0 0 0 .46-1.036 1.4 1.4 0 0 0-1.39-1.4h-5.03a2.218 2.218 0 0 1-.82-.146l-.05-.05-3.26-1.713-.12-.03a1.7 1.7 0 0 0-.44-.071H5.59v7.677h1.43zM.9 28.931h3.83V18.79H.9v10.14zM16.67 9.974a3.127 3.127 0 0 0 0-6.245h-2.86V11h-.74v.773h.74v3.286h.77v-3.286h2.6V11h-2.6V9.97h2.09zm-2.09-5.472h2.09a2.355 2.355 0 0 1 0 4.7h-2.09v-4.7z" fill="#fff" fill-rule="evenodd" opacity=".4"/></svg>