<svg xmlns="http://www.w3.org/2000/svg" viewBox="0 0 50 73.5"><path d="M25.3 0C12 0 1.2 11.2 1.2 25c0 22.3 24 48.5 24 48.5s24-26.1 24-48.5c.1-13.8-10.7-25-23.9-25z" fill="#231f20"/><path d="M44.3 20.4c-.4-1.1-1-2-1.9-2.8-.8-.8-1.7-1.4-2.7-1.9-1.3-.7-2.6-1.2-4-1.5-.5-.1-1-.2-1.4-.3-.7-.1-1.5-.2-2.2-.3-.5-.1-1.1-.1-1.6-.1h-1.6-.5c-3.5.1-7 .7-10.3 1.8 0 0-2.4.8-4.4 1.8v.3c1.4-.7 2.9-1.3 4.4-1.7h.1c1-.3 2-.5 3-.7h.3c.2 0 .4-.1.6-.1 1.7-.3 3.3-.4 5-.5H30c.4 0 .8 0 1.2.1.5 0 1 .1 1.5.2s.9.2 1.3.2l1.2.3c.4.1.9.3 1.5.4.8.2 1.5.6 2.2.9 1.1.5 2.1 1.3 2.9 2.2 1.7 1.9 2.2 4.5 1.4 6.8 0 .1-.1.2-.1.3 0 .1 0 .1-.1.2v.2c-.1.2-.2.4-.3.5 0 .1-.1.2-.2.3-.1.1-.1.2-.2.3 0 .1-.1.2-.2.2-.1.2-.3.4-.4.5l-.3.3c-.1.1-.1.2-.2.2-.6.7-1.3 1.3-2 1.8V32c.3-.2.7-.5 1-.8.4-.3.7-.6 1-1l.8-.8c.6-.6 1.1-1.3 1.5-2.1.1-.1.1-.2.2-.4.2-.4.4-.9.5-1.3.1-.2.1-.5.2-.7.1-.5.2-1.1.2-1.7.2-.9.1-1.9-.3-2.8zm-9.4 14c-1.3.5-2.7 1-4.1 1.3h-.1c-1.5.3-2.9.5-4.4.7-.6.1-1.2.1-1.8.1h-1.8c-.7 0-1.4 0-2.1-.1-.6 0-1.2-.1-1.8-.2-.4 0-.8-.1-1.3-.2-.6-.1-1.1-.2-1.7-.3l-1.5-.3c-.5-.1-1.1-.3-1.6-.5-.9-.3-1.7-.7-2.6-1.1-1-.5-1.9-1.3-2.6-2.1C6.1 30.1 5.6 28 6 25.9c.1-.9.4-1.7.7-2.5.3-.7.7-1.5 1.2-2.1l.1-.1c.8-1 1.8-1.9 2.9-2.7v-.2l.1.2c-.8.5-1.6 1.1-2.3 1.8l-.2.2-.3.3c-.4.4-.8.8-1.1 1.3l.1-.1c-1 1.3-1.6 2.9-1.8 4.5-.1.5-.1 1-.1 1.6-.1 1.7.5 3.4 1.5 4.8.7 1 1.6 1.8 2.6 2.4 1.4.9 3 1.6 4.6 2.1.5.1 1 .3 1.6.4.4.1 1 .2 1.6.3.8.1 1.7.2 2.4.3.5.1 1.1.1 1.5.1.6 0 1.1.1 1.6.1h2.8c2.1-.2 4.3-.5 6.3-1 1.1-.3 2.2-.6 3.2-1l-.1-2.2zM23 18.9c-1.3 0-2.4 1.1-2.3 2.5 0 .6.2 1.1.6 1.5 1 .8 2.4.8 3.3 0 .4-.5.7-1.1.6-1.7 0-.6-.2-1.2-.6-1.7-.4-.4-1-.6-1.6-.6zm.8 3.4c-.2.3-.5.4-.9.4-.3 0-.7-.1-.9-.4-.2-.3-.3-.7-.3-1.1 0-.4.1-.8.3-1.1.2-.3.5-.4.8-.4.3 0 .7.1.9.4.2.3.3.7.3 1.1.2.4.1.8-.2 1.1zm4.4 1.2h.7v-.8H28.3c-.1 0-.2-.1-.2-.1 0-.1-.1-.1-.1-.2v-2.5h.9v-.7H28v-1.4h-1.1v4.5c0 .4.1.7.3 1 .2.1.6.2 1 .2zm6.3-1.2v-.1h-1.1c-.2.4-.5.6-.9.6-.3 0-.6-.1-.8-.3-.2-.2-.3-.6-.3-.9v-.1h3.3v-.1c0-.7-.2-1.3-.6-1.8-.4-.5-1-.7-1.6-.7-.6 0-1.2.2-1.6.7-.4.5-.7 1.1-.6 1.7 0 .6.2 1.2.6 1.7.8.7 2 .8 3 .2.2-.3.5-.6.6-.9zm-3.1-1.6c0-.3.1-.5.3-.7.2-.2.5-.3.7-.3.3 0 .5.1.7.3.2.2.3.4.3.7v.1h-2.1l.1-.1zm-12.1 2.8v-3.2-.4c-.1-.6-.7-1-1.3-1h-2.5v4.4H16.8v-3.6h1.1c.2 0 .3.1.4.3V23.4l1 .1zM15 30.4c-.4 0-.8-.2-1.1-.5-.3-.4-.4-.9-.4-1.4 0-.3 0-.6.1-.9.1-.3.3-.5.5-.7.3-.2.6-.3.9-.3.3 0 .6.1.8.3.2.2.4.4.4.7h1.2c0-.6-.3-1.1-.8-1.4-.5-.4-1.1-.6-1.7-.6-.8 0-1.5.3-2 .8-.5.6-.8 1.3-.8 2.1s.2 1.6.8 2.1c.5.5 1.2.8 2 .8 1.3.1 2.4-.9 2.5-2.2v-.1h-1.2c0 .7-.5 1.2-1.2 1.3.1.1.1.1 0 0zm6-4.7l-2.2 5.6h1.3l.5-1.3h2.1l.4 1.3h1.3l-2.2-5.6H21zm-.1 3.5l.8-2.1.8 2.1h-1.6zm9.5-.5c-.4-.3-.8-.5-1.3-.6-.1 0-.3-.1-.4-.1s-.3-.1-.4-.1c-.1 0-.2-.1-.3-.1-.1 0-.2-.1-.3-.1-.1 0-.1-.1-.2-.1s-.1-.1-.1-.1v-.2c0-.2.1-.4.2-.5.2-.1.4-.2.7-.2.7 0 1 .3 1.1.8h1.2c0-.5-.2-1-.6-1.3-.5-.3-1-.5-1.6-.4-.6 0-1.1.1-1.6.5-.4.3-.6.7-.6 1.2 0 .1 0 .3.1.4 0 .1.1.2.1.3.1.1.1.2.2.3.1.1.2.1.3.2.1.1.2.1.4.2s.3.1.4.1c.1 0 .2.1.4.1 0 0 .1 0 .2.1.4.1.7.2 1.1.4.2.1.3.2.3.4s-.1.4-.3.5c-.2.1-.5.2-.8.2-.8 0-1.3-.4-1.3-1.1H26c0 .6.2 1.1.7 1.5.5.4 1.2.6 1.8.5.3 0 .6 0 .9-.1.3-.1.5-.2.7-.3.2-.1.4-.3.5-.6.1-.3.2-.5.2-.8.1-.4-.1-.8-.4-1zm7.3.9v-3.8h-1.3v2.1h-2.3v-2.1h-1.3v5.6h1.3V29h2.3v4.8c.4-.2.8-.4 1.3-.7v-3.5z" fill="#fff"/></svg>