<svg xmlns="http://www.w3.org/2000/svg" width="52" height="60"><path d="M11.313 60A11.254 11.254 0 0 1 0 48.83a35.059 35.059 0 0 1 3.019-14.17 43.5 43.5 0 0 1 6.619-10.48 49.421 49.421 0 0 1 8.375-7.88l.559-.41-7.5-11.19a.8.8 0 0 1 .1-1.01A9.849 9.849 0 0 1 18.436.31a22.7 22.7 0 0 1 7.48 1.75 2.69 2.69 0 0 0 1 .17 9.592 9.592 0 0 0 3.315-.93l.121-.05A12.577 12.577 0 0 1 35.094 0a7.049 7.049 0 0 1 5.025 2.25.772.772 0 0 1 .15.95l-6.9 12.64.515.37a48.794 48.794 0 0 1 8.487 7.97 42.928 42.928 0 0 1 6.62 10.48A35.059 35.059 0 0 1 52 48.83 11.254 11.254 0 0 1 40.687 60H11.313zm8.439-42.97a48.084 48.084 0 0 0-8.926 8.25c-6.1 7.27-9.188 15.19-9.188 23.55a9.622 9.622 0 0 0 9.675 9.55h29.374a9.667 9.667 0 0 0 6.846-2.81 9.369 9.369 0 0 0 2.8-6.74c0-8.37-3.092-16.29-9.188-23.55a47.108 47.108 0 0 0-8.934-8.26l-.188-.12h-12.08zM18.43 1.9a7.521 7.521 0 0 0-5.137 2.01l-.489.42 7.341 10.95H31.8l6.727-12.34-.53-.37a4.837 4.837 0 0 0-2.921-.98 11.049 11.049 0 0 0-4.1 1.13 11.132 11.132 0 0 1-4.074 1.11 4.441 4.441 0 0 1-1.548-.27A21.064 21.064 0 0 0 18.43 1.9zm2.894 51.46a.685.685 0 0 1-.682-.68v-8.65h-2.15a.67.67 0 1 1 0-1.34h2.15V24.72a.685.685 0 0 1 .671-.68h6.621a7.2 7.2 0 1 1 0 14.4h-5.927v4.25h5.927a.67.67 0 1 1 0 1.34h-5.927v8.65a.685.685 0 0 1-.683.68zm.683-16.27h5.927a5.85 5.85 0 1 0 .052-11.7h-5.979v11.7z" fill="#63636e" fill-rule="evenodd"/></svg>