<svg xmlns="http://www.w3.org/2000/svg" width="72" height="46"><path d="M71.215 12.721a13.757 13.757 0 0 0-3.37-5.076 20.83 20.83 0 0 0-4.915-3.513 32.693 32.693 0 0 0-7.292-2.733 31.959 31.959 0 0 0-2.636-.57 78.803 78.803 0 0 0-4.044-.555 41.384 41.384 0 0 0-2.885-.209c-.981-.044-1.941-.085-2.908-.052h-.05c-.033 0-.334-.015-.872-.015A61.267 61.267 0 0 0 23.477 3.26l-.05.014s-4.29 1.465-7.952 3.215v.456a59.529 59.529 0 0 1 7.952-3.153l.212-.058a63.139 63.139 0 0 1 5.483-1.264l.562-.087c.316-.06.659-.125 1.043-.195A89.934 89.934 0 0 1 39.8 1.2c1-.029 1.981-.046 2.915-.046.736 0 1.5.023 2.279.064.724.035 1.46.09 2.252.165.922.088 1.824.178 2.737.306.842.119 1.685.278 2.409.421.656.128 1.4.276 2.137.474.8.215 1.634.465 2.716.811a25.278 25.278 0 0 1 4.032 1.7 18.2 18.2 0 0 1 5.258 3.976 12.641 12.641 0 0 1 2.542 12.44 8.533 8.533 0 0 1-.175.486c-.041.1-.082.213-.127.317-.023.064-.05.125-.079.189l-.054.128a.029.029 0 0 1 0 .014c-.009.018-.015.034-.024.049a15.168 15.168 0 0 1-.467.951c-.089.163-.192.349-.293.52a.081.081 0 0 0-.014.023c-.1.169-.205.334-.311.5-.091.14-.186.283-.284.419a13.182 13.182 0 0 1-.736.964c-.168.21-.345.413-.532.614-.127.139-.26.279-.393.416l-.02.02v.02a24.416 24.416 0 0 1-3.571 3.244v3.485a28.236 28.236 0 0 0 1.783-1.418 28.665 28.665 0 0 0 1.879-1.753l.03-.029q.74-.706 1.407-1.462a21.583 21.583 0 0 0 2.7-3.808c.124-.212.246-.427.355-.646a.206.206 0 0 0 .032-.055 15.1 15.1 0 0 0 .991-2.366c.144-.424.269-.861.378-1.3a16.239 16.239 0 0 0 .431-3.011 13.048 13.048 0 0 0-.768-5.301zM54.084 38.285a49 49 0 0 1-7.431 2.4c-.036.005-.071.014-.107.023a70.276 70.276 0 0 1-8.069 1.247c-1.126.107-2.2.189-3.23.241-.784.039-1.546.061-2.291.067h-.851a73.574 73.574 0 0 1-3.911-.143 65.575 65.575 0 0 1-3.189-.288 44.178 44.178 0 0 1-2.311-.3 81.57 81.57 0 0 1-3.054-.558 42.586 42.586 0 0 1-2.675-.631 50.82 50.82 0 0 1-2.908-.89 26.1 26.1 0 0 1-4.644-2.072 17.189 17.189 0 0 1-4.738-3.823A12.787 12.787 0 0 1 1.9 22.975a17.719 17.719 0 0 1 1.333-4.52 23.454 23.454 0 0 1 2.181-3.877l.012-.021v-.02l.118-.169a22.958 22.958 0 0 1 5.264-4.89v-.346l-.269.17a29.558 29.558 0 0 0-4.1 3.192l-.3.285c-.148.146-.3.3-.468.477A20.38 20.38 0 0 0 3.7 15.6l-.109.155a18.955 18.955 0 0 0-3.352 8.15A21.636 21.636 0 0 0 0 26.734a13.842 13.842 0 0 0 2.773 8.81 18.583 18.583 0 0 0 4.767 4.444 31.057 31.057 0 0 0 8.315 3.79c.887.27 1.815.517 2.837.759.793.185 1.839.418 2.9.581 1.54.238 3.062.418 4.345.567.958.11 1.918.168 2.648.209C29.6 45.95 30.6 46 31.578 46h.033q1.006 0 1.924-.02s.775.006 2.113-.073h.012c.122-.006.243-.012.364-.02a.351.351 0 0 0 .056 0c.183-.011.375-.026.576-.041a66.383 66.383 0 0 0 11.525-1.91 53.978 53.978 0 0 0 5.9-1.9v-3.751zm-21.718-28.2a4.348 4.348 0 0 0-3.076 7.288 4.58 4.58 0 0 0 6.08 0 4.215 4.215 0 0 0 1.137-3.075 4.194 4.194 0 0 0-1.137-3.059 4.039 4.039 0 0 0-3.004-1.151zm1.525 6.212a1.836 1.836 0 0 1-1.557.746 1.859 1.859 0 0 1-1.563-.737 3.257 3.257 0 0 1-.552-2.008 3.2 3.2 0 0 1 .552-1.976 1.827 1.827 0 0 1 1.531-.736 1.892 1.892 0 0 1 1.571.728 3.13 3.13 0 0 1 .56 1.969 3.332 3.332 0 0 1-.542 2.017zm7.879 2.073c.305 0 .687-.015 1.135-.046l.143-.01v-1.5l-.161.008c-.128.007-.27.01-.425.01a2.361 2.361 0 0 1-.6-.059.574.574 0 0 1-.362-.273.969.969 0 0 1-.125-.38 6.299 6.299 0 0 1-.017-.539v-3.945h1.689v-1.312h-1.689V7.857H39.3v8.12a2.639 2.639 0 0 0 .506 1.91 2.92 2.92 0 0 0 1.964.485zm11.568-2.214l.079-.2h-1.979l-.041.088a1.762 1.762 0 0 1-1.719 1.1 1.942 1.942 0 0 1-1.5-.588 2.409 2.409 0 0 1-.547-1.588l-.007-.2h5.955v-.152a4.872 4.872 0 0 0-1.084-3.307 3.7 3.7 0 0 0-2.911-1.221 3.863 3.863 0 0 0-2.914 1.2 4.279 4.279 0 0 0-1.146 3.06 4.118 4.118 0 0 0 1.136 3.027 4.493 4.493 0 0 0 5.411.432 3.511 3.511 0 0 0 1.267-1.649zm-5.7-2.826a2.223 2.223 0 0 1 .612-1.3 1.83 1.83 0 0 1 1.329-.52 1.686 1.686 0 0 1 1.334.55 2.352 2.352 0 0 1 .544 1.276l.028.215h-3.878zM25.61 18.443v-5.449-.32a3.214 3.214 0 0 0-.071-.7 2.234 2.234 0 0 0-2.293-1.789c-.871-.018-1.742-.02-2.611-.023h-2.087a.123.123 0 0 0-.035 0h-.086v.088a.085.085 0 0 0 0 .029v8.054a.117.117 0 0 0 0 .032v.084h.121c.651-.006 1.3-.006 1.952 0h.135v-6.616h1.091c.331 0 .661.006.989.021a.691.691 0 0 1 .673.522 1.262 1.262 0 0 1 .031.306v5.763h2.192zm-7.75 12.615a2.42 2.42 0 0 1-2-.941 3.946 3.946 0 0 1-.745-2.521 5.081 5.081 0 0 1 .263-1.666 2.8 2.8 0 0 1 .913-1.286 2.465 2.465 0 0 1 1.6-.524 2.428 2.428 0 0 1 1.526.466A2.146 2.146 0 0 1 20.2 25.9h2.234a3.676 3.676 0 0 0-1.387-2.629 4.734 4.734 0 0 0-3.111-1.034 4.8 4.8 0 0 0-3.717 1.522 5.44 5.44 0 0 0-1.395 3.82 5.471 5.471 0 0 0 1.38 3.9 4.765 4.765 0 0 0 3.644 1.472A4.3 4.3 0 0 0 22.5 28.76h-2.26a2.247 2.247 0 0 1-2.38 2.298zm10.912-8.589l-3.958 10.24h2.337L28 30.426h3.869l.819 2.283h2.394L31.123 22.47h-2.351zm-.22 6.319l1.388-3.805 1.373 3.805h-2.761zm17.333-1.005a6.014 6.014 0 0 0-2.286-1.077c-.234-.067-.506-.139-.818-.216s-.553-.138-.723-.187-.36-.1-.569-.165a3.1 3.1 0 0 1-.475-.172 1.936 1.936 0 0 1-.321-.2.642.642 0 0 1-.219-.266.865.865 0 0 1-.058-.329.983.983 0 0 1 .445-.855 2.137 2.137 0 0 1 1.234-.309q1.84 0 1.972 1.523h2.161a2.907 2.907 0 0 0-1.139-2.449 4.733 4.733 0 0 0-2.863-.811 4.683 4.683 0 0 0-2.906.832 2.658 2.658 0 0 0-1.095 2.226 2.764 2.764 0 0 0 .11.8 3.406 3.406 0 0 0 .24.618 1.516 1.516 0 0 0 .431.481c.2.153.367.272.5.359a3.477 3.477 0 0 0 .65.287c.3.105.513.18.65.223s.38.112.73.208c.088.029.214.062.38.1a13.083 13.083 0 0 1 1.993.676.815.815 0 0 1 .475.776 1.156 1.156 0 0 1-.519 1 2.4 2.4 0 0 1-1.409.367q-2.292 0-2.351-1.925h-2.264a3.294 3.294 0 0 0 1.2 2.693 5.15 5.15 0 0 0 3.308.955 6.643 6.643 0 0 0 1.57-.18 4.713 4.713 0 0 0 1.358-.56 2.784 2.784 0 0 0 .986-1.035 3.087 3.087 0 0 0 .365-1.529 2.31 2.31 0 0 0-.743-1.858zm13.291 1.649v-6.948H56.9v3.849h-4.25v-3.849h-2.28v10.225h2.278V28.3h4.25V37c.758-.38 1.521-.793 2.28-1.238v-6.331z" fill="#63636e" fill-rule="evenodd"/></svg>