<svg xmlns="http://www.w3.org/2000/svg" xmlns:xlink="http://www.w3.org/1999/xlink" width="58" height="60" viewBox="0 0 58 60"><defs><path id="feiha" d="M1207.87 2259c-1.27 0-2.66-.06-4.24-.18h-.09l-1.85.02c-7.97 0-15.09-.95-15.16-.96l-3.39-.4-.28.2a4.4 4.4 0 0 1-2.57.81h-7.85c-2.45 0-4.44-2-4.44-4.46v-21c0-2.47 2-4.47 4.44-4.47h7.85c.75 0 1.46.18 2.12.53l.85.47.41-.9a12.96 12.96 0 0 1 2.41-3.6l.03-.01.02-.02c5.01-3.88 10.55-18.7 10.78-19.32l.08-.21-.03-.23c-.11-.9-.39-3.98.87-5.45a2.32 2.32 0 0 1 1.8-.82c.88 0 3.92.2 5.8 2.81 1.85 2.56 1.92 6.5.21 11.72-1.49 4.54-1.72 6.78-1.65 7.86l.07 1.07 1.04-.23c.72-.16 1.34-.3 1.9-.4h.03l.1-.02a38.98 38.98 0 0 1 7.66-.83c3.79 0 6.54.77 8.2 2.28 2.75 2.53 1.9 5.7 1.4 6.94l-.2.48.32.42a7 7 0 0 1 1.49 3.92 6.8 6.8 0 0 1-1.6 4.53l-.31.4.17.49a7.34 7.34 0 0 1-2.15 8.31l-.36.33.07.48a7 7 0 0 1-.77 4.38c-1.23 2.23-3.71 3.75-7.38 4.54-1.6.34-3.56.52-5.8.52zm-4.15-1.84c1.5.12 2.91.18 4.2.18 2.1 0 3.92-.16 5.4-.49 3.18-.67 5.3-1.93 6.3-3.73.9-1.62.62-3.28.47-3.9v-.04l-.06-.15a.85.85 0 0 1 .29-.96c1.95-1.46 2.88-3.23 2.78-5.25a6.31 6.31 0 0 0-.6-2.32v-.05l-.13-.22a.82.82 0 0 1 .11-1c1.3-1.34 1.93-2.74 1.86-4.16a5.73 5.73 0 0 0-1.7-3.62v-.01l-.03-.02a.81.81 0 0 1-.15-1.06l.01-.02c.97-1.57 1.4-4.06-.6-5.88-1.33-1.22-3.76-1.84-7.2-1.84-2.26 0-4.9.29-7.1.76l-.15.04c-.66.1-1.4.26-2.26.46l-.05.01-.05.02c-.22.08-.46.12-.7.12-.32 0-.79-.08-1.2-.45-1.36-1.22-1.08-4.59.9-10.6 1.5-4.61 1.52-8.15.02-10.22a5.47 5.47 0 0 0-4.35-2.13h-.53l-.27.46c-.55.93-.46 3.16-.29 4.35v.02c.03.13.02.26-.02.38-2.16 5.94-6.99 16.9-11.4 20.41l-.05.04-.04.06a11.71 11.71 0 0 0-2.6 4.82l-.08.25.08.25c.14.45.2.9.2 1.34v21.02c0 .33-.03.66-.1.95l-.2.98 2.35.28a130.1 130.1 0 0 0 16.8.92zm-31.28-26.96a2.8 2.8 0 0 0-2.79 2.8v21.03a2.8 2.8 0 0 0 2.8 2.8H1180.28a2.8 2.8 0 0 0 2.8-2.81V2233a2.8 2.8 0 0 0-2.8-2.8z"/></defs><g><g opacity=".4" transform="translate(-1168 -2199)"><use fill="#333" xlink:href="#feiha"/></g></g></svg>