<svg xmlns="http://www.w3.org/2000/svg" width="58" height="60"><path d="M39.87 60c-1.27 0-2.66-.06-4.24-.18h-.09c-.6.01-1.22.02-1.85.02a128.285 128.285 0 0 1-15.16-.96l-3.39-.4-.28.2a4.453 4.453 0 0 1-2.57.81H4.44A4.453 4.453 0 0 1 0 55.03V34.02a4.453 4.453 0 0 1 4.44-4.46h7.85a4.472 4.472 0 0 1 2.12.53l.85.47.41-.89a12.706 12.706 0 0 1 2.35-3.54.507.507 0 0 1 .06-.07l.03-.01.02-.02c5.01-3.88 10.55-18.69 10.78-19.32l.08-.21-.03-.23c-.11-.91-.39-3.98.87-5.45A2.315 2.315 0 0 1 31.62 0a7.262 7.262 0 0 1 5.82 2.81c1.84 2.56 1.91 6.5.2 11.72-1.49 4.54-1.72 6.78-1.65 7.86l.07 1.07 1.04-.23c.72-.16 1.34-.29 1.9-.4h.03l.1-.02a40.7 40.7 0 0 1 6.18-.79c.51-.03 1-.04 1.48-.04 3.79 0 6.54.77 8.2 2.28a6.075 6.075 0 0 1 1.4 6.94l-.2.48.32.42A6.98 6.98 0 0 1 58 36.02a6.809 6.809 0 0 1-1.6 4.53l-.31.41.17.48a7.8 7.8 0 0 1 .48 2.32 7.354 7.354 0 0 1-2.63 5.99l-.36.33.07.48a6.987 6.987 0 0 1-.77 4.38c-1.23 2.23-3.71 3.75-7.38 4.54a28.529 28.529 0 0 1-5.8.52zm-4.15-1.84c1.5.12 2.91.18 4.19.18a25.581 25.581 0 0 0 5.42-.49c3.17-.67 5.29-1.93 6.29-3.73a5.509 5.509 0 0 0 .47-3.9v-.04l-.06-.15a.854.854 0 0 1 .29-.96 6.044 6.044 0 0 0 2.78-5.25 6.323 6.323 0 0 0-.6-2.32v-.05l-.13-.22a.817.817 0 0 1 .11-.99 5.638 5.638 0 0 0 1.86-4.17 5.763 5.763 0 0 0-1.69-3.62l-.02-.01-.02-.02a.805.805 0 0 1-.15-1.06l.01-.02a4.522 4.522 0 0 0-.6-5.88c-1.33-1.22-3.76-1.84-7.21-1.84a35.687 35.687 0 0 0-7.08.76s-.14.03-.16.04c-.66.11-1.4.26-2.26.46l-.05.01-.05.02a2.045 2.045 0 0 1-.69.12 1.741 1.741 0 0 1-1.2-.45c-1.37-1.22-1.09-4.59.88-10.6 1.52-4.61 1.53-8.15.03-10.22a5.483 5.483 0 0 0-4.35-2.13l-.53-.01-.27.47c-.55.93-.46 3.16-.29 4.35l.01.02a.81.81 0 0 1-.03.38c-2.16 5.94-6.99 16.9-11.39 20.41l-.06.04-.04.06a11.673 11.673 0 0 0-2.61 4.82l-.07.25.08.25a4.491 4.491 0 0 1 .2 1.34v21.02a4.788 4.788 0 0 1-.09.95l-.21.98 2.35.28h.01a129.242 129.242 0 0 0 14.88.94c.65 0 1.29-.01 1.91-.02h.14zM4.44 31.2a2.8 2.8 0 0 0-2.79 2.81v21.02a2.8 2.8 0 0 0 2.79 2.81h.91v-.02h6.94a2.793 2.793 0 0 0 2.79-2.8V34.01a2.8 2.8 0 0 0-2.79-2.81H4.44z" fill="#63636e" fill-rule="evenodd"/></svg>