<svg xmlns="http://www.w3.org/2000/svg" width="32" height="32"><path d="M22.713 0H9.276a2.353 2.353 0 0 0-2.349 2.35v27.3A2.353 2.353 0 0 0 9.276 32h13.437a2.353 2.353 0 0 0 2.35-2.35V2.35A2.353 2.353 0 0 0 22.713 0zM7.993 4.267h16v20.267h-16V4.266zm1.283-3.2h13.437A1.284 1.284 0 0 1 24 2.349v.85H8v-.85a1.285 1.285 0 0 1 1.276-1.283zm13.437 29.867H9.276a1.285 1.285 0 0 1-1.283-1.283V25.6h16v4.051a1.284 1.284 0 0 1-1.28 1.282zm-6.718-4.8a2.133 2.133 0 1 0 2.134 2.133A2.136 2.136 0 0 0 16 26.133zm0 3.2a1.067 1.067 0 1 1 1.067-1.067A1.069 1.069 0 0 1 16 29.333zM13.861 2.667H16A.534.534 0 0 0 16 1.6h-2.134a.534.534 0 0 0-.005 1.066zm3.734 0h.534a.534.534 0 0 0 0-1.067H17.6a.534.534 0 0 0 0 1.066zm12.6-.23a.534.534 0 0 0-.755.754 5.116 5.116 0 0 1 0 7.228.534.534 0 0 0 .755.754 6.183 6.183 0 0 0-.004-8.737zm-2.247 1.214a.533.533 0 0 0-.754.754 3.5 3.5 0 0 1 0 4.948.533.533 0 1 0 .754.754 4.568 4.568 0 0 0-.004-6.457zm-25.39-.46a.534.534 0 0 0-.755-.754 6.183 6.183 0 0 0 0 8.736.534.534 0 1 0 .755-.754 5.115 5.115 0 0 1-.004-7.229zM4.8 3.5a.532.532 0 0 0-.754 0 4.568 4.568 0 0 0 0 6.456.534.534 0 1 0 .754-.755 3.5 3.5 0 0 1 0-4.947.534.534 0 0 0 0-.754z" fill="#fff" fill-rule="evenodd" opacity=".4"/></svg>