<svg xmlns="http://www.w3.org/2000/svg" width="26" height="26"><path d="M20.89 26.01a11.155 11.155 0 0 1-3.826-.814A31.808 31.808 0 0 1 .8 8.925C-.28 6.058-.282 3.706.794 2.63c.155-.155.312-.321.475-.493.983-1.033 2.093-2.2 3.564-2.144a4.263 4.263 0 0 1 3 1.925c2.972 3.7 1.632 5.016.081 6.544l-.274.271c-.253.254-.733 1.429 3.727 5.891a24.714 24.714 0 0 0 3.688 3.167c.625.406 1.742 1.021 2.2.562l.276-.279c1.525-1.548 2.843-2.884 6.536.087a4.262 4.262 0 0 1 1.923 3c.061 1.472-1.111 2.585-2.145 3.567-.17.162-.336.32-.491.474a3.41 3.41 0 0 1-2.464.808zM4.728.867c-1.045 0-1.989.994-2.825 1.874-.167.176-.33.347-.49.508-.8.8-.721 2.908.206 5.368a30.96 30.96 0 0 0 15.755 15.761c2.458.93 4.564 1.008 5.364.208.16-.161.332-.324.508-.491.9-.854 1.918-1.822 1.873-2.895a3.538 3.538 0 0 0-1.6-2.359c-3.078-2.477-3.939-1.6-5.367-.154l-.279.282c-.683.684-1.791.533-3.295-.445a25.611 25.611 0 0 1-3.831-3.283c-3.7-3.7-4.884-5.968-3.726-7.129l.279-.276c1.451-1.428 2.327-2.29-.15-5.372a3.55 3.55 0 0 0-2.358-1.6h-.068z" fill="#333" fill-rule="evenodd" opacity=".4"/></svg>