<svg xmlns="http://www.w3.org/2000/svg" width="26" height="26"><path d="M10.461 22.275H3.24a2.425 2.425 0 0 1-2.422-2.423V5.128A2.426 2.426 0 0 1 3.24 2.704h1.715v1.48a.409.409 0 0 0 .818 0V2.7h5.318v1.48a.409.409 0 0 0 .817 0V2.7h5.365v1.48a.409.409 0 0 0 .818 0V2.7h1.762a2.427 2.427 0 0 1 2.423 2.424v5.38a.409.409 0 0 0 .818 0v-5.38a3.245 3.245 0 0 0-3.241-3.241h-1.762V.404a.409.409 0 0 0-.818 0v1.479h-5.365V.404a.409.409 0 1 0-.817 0v1.479H5.773V.404a.409.409 0 1 0-.818 0v1.479H3.24A3.245 3.245 0 0 0 0 5.124v14.724a3.245 3.245 0 0 0 3.24 3.241h7.221a.409.409 0 0 0 0-.814zm7.833-11.689A7.707 7.707 0 1 0 26 18.293a7.715 7.715 0 0 0-7.706-7.707zm0 14.738a7.032 7.032 0 1 1 7.031-7.031 7.039 7.039 0 0 1-7.031 7.031zm-.612-16.519a.57.57 0 1 0 .57.57.57.57 0 0 0-.57-.57zm-4.675.57a.569.569 0 1 0 .569-.57.57.57 0 0 0-.569.57zM9.47 12.912a.569.569 0 1 0 .57.569.569.569 0 0 0-.57-.569zM5.364 8.805a.57.57 0 1 0 .57.57.57.57 0 0 0-.57-.57zm0 4.107a.569.569 0 1 0 .57.569.569.569 0 0 0-.57-.569zm0 4.106a.57.57 0 1 0 .57.569.569.569 0 0 0-.57-.569zm4.106 0a.57.57 0 1 0 .57.569.569.569 0 0 0-.57-.569zm0-8.213a.57.57 0 1 0 .57.57.57.57 0 0 0-.57-.57zM22.509 20.7h-.006a2.2 2.2 0 0 1-1.336-2.019 2.272 2.272 0 0 1 1.072-1.9h.009a.092.092 0 0 0 .038-.056.087.087 0 0 0-.014-.066 2.5 2.5 0 0 0-1.963-1.066 1.606 1.606 0 0 0-.171-.008 3.429 3.429 0 0 0-1.233.308 2 2 0 0 1-.59.176 1.932 1.932 0 0 1-.611-.179 2.953 2.953 0 0 0-1.076-.273H16.6a2.64 2.64 0 0 0-2.221 1.345c-.893 1.548-.325 3.9.661 5.323a2.4 2.4 0 0 0 1.675 1.352h.039a2.065 2.065 0 0 0 .777-.208 2.144 2.144 0 0 1 .92-.217 2.014 2.014 0 0 1 .876.21 1.855 1.855 0 0 0 .839.2 2.305 2.305 0 0 0 1.659-1.313 5.789 5.789 0 0 0 .726-1.488v-.01a.085.085 0 0 0-.042-.111zm-4.283-5.059h.112a2.038 2.038 0 0 0 1.5-.77 2.377 2.377 0 0 0 .559-1.722.087.087 0 0 0-.089-.077 2.408 2.408 0 0 0-1.591.816 2.258 2.258 0 0 0-.572 1.674.087.087 0 0 0 .081.075z" fill="#333" fill-rule="evenodd" opacity=".4"/></svg>