<svg xmlns="http://www.w3.org/2000/svg" width="31" height="50" viewBox="0 0 31 50">
  <metadata><?xpacket begin="﻿" id="W5M0MpCehiHzreSzNTczkc9d"?>
<x:xmpmeta xmlns:x="adobe:ns:meta/" x:xmptk="Adobe XMP Core 5.6-c138 79.159824, 2016/09/14-01:09:01        ">
   <rdf:RDF xmlns:rdf="http://www.w3.org/1999/02/22-rdf-syntax-ns#">
      <rdf:Description rdf:about=""/>
   </rdf:RDF>
</x:xmpmeta>
                                                                                                    
                                                                                                    
                                                                                                    
                                                                                                    
                                                                                                    
                                                                                                    
                                                                                                    
                                                                                                    
                                                                                                    
                                                                                                    
                                                                                                    
                                                                                                    
                                                                                                    
                                                                                                    
                                                                                                    
                                                                                                    
                                                                                                    
                                                                                                    
                                                                                                    
                                                                                                    
                           
<?xpacket end="w"?></metadata>
<defs>
    <style>
      .cls-1 {
        fill: #fff;
        fill-rule: evenodd;
      }
    </style>
  </defs>
  <path id="ok" class="cls-1" d="M1348.73,1721.78h0Zm0,0.01v0Zm14.69,16.1s-1.49-12.43-8.4-19.86a3.172,3.172,0,0,0-1.96-1.01h-0.01c-0.04,0-.09-0.01-0.13-0.01h-0.02c-0.04,0-.09-0.01-0.13-0.01h-0.17a0.487,0.487,0,0,0-.12.01h-0.03a0.487,0.487,0,0,0-.12.01h-0.03c-0.04.01-.08,0.01-0.12,0.02h-0.03c-0.04.01-.07,0.01-0.11,0.02-0.01,0-.03.01-0.04,0.01a0.44,0.44,0,0,1-.1.02,0.09,0.09,0,0,1-.05.01c-0.03.01-.06,0.02-0.1,0.03-0.01.01-.03,0.01-0.04,0.02-0.04.01-.07,0.02-0.1,0.03a0.169,0.169,0,0,0-.05.02,0.689,0.689,0,0,0-.08.03c-0.02.01-.04,0.01-0.06,0.02s-0.05.03-.08,0.04-0.04.01-.06,0.02a0.3,0.3,0,0,1-.08.04l-0.06.03c-0.02.02-.05,0.03-0.07,0.05l-0.06.03c-0.03.02-.05,0.03-0.08,0.05a0.219,0.219,0,0,1-.05.03l-0.11.08a0.035,0.035,0,0,1-.02.01,3.109,3.109,0,0,0-.33.29,3.035,3.035,0,0,0-.41,3.78,0.219,0.219,0,0,1,.03.05,2.128,2.128,0,0,1,.16.25,1.3,1.3,0,0,0,.1.15,1,1,0,0,0,.08.14c0.32,0.53.66,1.12,1,1.78l-2.65-2.28c0.04,0.04.21,0.18-.01-0.01a2.937,2.937,0,0,0-3.68-.12h0a1.063,1.063,0,0,0-.11.09h-0.01a1,1,0,0,1-.11.1h0c-0.08.07-.15,0.15-0.22,0.22a2.7,2.7,0,0,0,.22,3.76l3.86,3.51v0.01a12.456,12.456,0,0,0-2.21-1.25,2.584,2.584,0,0,0-1.4-.15,25.453,25.453,0,0,0-5.18,1.31h0c-0.31.13-.62,0.26-0.93,0.4a0.219,0.219,0,0,1-.05.03c-0.06.03-.13,0.06-0.19,0.09a0.59,0.59,0,0,0-.08.04c-0.06.03-.12,0.06-0.17,0.09a0.355,0.355,0,0,0-.09.04l-0.27.15c-0.04.03-.09,0.05-0.13,0.08a0.746,0.746,0,0,0-.12.07,1,1,0,0,1-.14.08,0.413,0.413,0,0,1-.11.07,1.526,1.526,0,0,1-.16.11c-0.03.02-.05,0.04-0.08,0.06-0.08.05-.15,0.11-0.23,0.16a0.265,0.265,0,0,1-.06.05c-0.06.05-.12,0.09-0.17,0.14-0.02.02-.05,0.04-0.07,0.06-0.06.04-.11,0.09-0.16,0.13l-0.06.06c-0.07.06-.14,0.13-0.21,0.2-2.95,2.95-.16,5.59,1.93,5.59a16.7,16.7,0,0,0,5.21-1.58,1.812,1.812,0,0,1,2.13.52l2.7,3.3a2.654,2.654,0,0,1,.61,1.61c0.04,1.29.08,2.31,0.11,3.12l0.09,2.42a6.275,6.275,0,0,1-.03.77,1.829,1.829,0,0,1-.08.25l-0.03.06h0a1.339,1.339,0,0,1-.06.12v0.01c-0.03.04-.06,0.09-0.09,0.14l-0.03.03a0.038,0.038,0,0,1-.02.02,2.226,2.226,0,0,1-.27.28l-1.43,1.26c-0.13.11-.26,0.22-0.41,0.35-0.03.02-.06,0.06-0.11,0.1l-0.08.07a1.593,1.593,0,0,1-.13.13,2.788,2.788,0,0,1-.44.31,0.405,0.405,0,0,1-.09.05l-0.06.03c-0.06.03-.12,0.05-0.18,0.08h0l-0.18.06a0.185,0.185,0,0,0-.07.02,0.3,0.3,0,0,0-.1.02c-0.04.01-.08,0.01-0.13,0.02-0.01,0-.02.01-0.03,0.01a1.1,1.1,0,0,0-.18.02,2.427,2.427,0,0,1-1.55-.43,3.558,3.558,0,0,1-1.9-2.22,45.225,45.225,0,0,0-1.53-5.9c-0.79-1.84-2.21-3.15-3.99-3.07h-0.13a0.22,0.22,0,0,1-.08.01c-0.04,0-.07.01-0.11,0.01a0.22,0.22,0,0,1-.08.01c-0.05.01-.1,0.02-0.16,0.03-0.02,0-.04.01-0.06,0.01-0.05.01-.1,0.03-0.15,0.04a0.185,0.185,0,0,0-.07.02l-0.13.03c-0.02.01-.05,0.02-0.07,0.03a1.266,1.266,0,0,0-.18.06h-0.01c-1.33.49-1.75,1.1-1.75,2.13,0,1.71,1.2,4.6,1.44,10.1a5.362,5.362,0,0,0,1.36,3.34c1.73,1.94,3.03,3.83,5.77,7.48a6.192,6.192,0,0,1,.7,1.19,3.188,3.188,0,0,1,.27,1.26h0v0.08a2.23,2.23,0,0,0,2.22,2.23h12.88a2.074,2.074,0,0,0,2.07-2.07c0.12-4.88-.33-6.02.56-7.69a18.711,18.711,0,0,0,1.23-3c0.32-1.04.75-2.14,1.18-3.35A23.757,23.757,0,0,0,1363.42,1737.89Z" transform="translate(-1333 -1717)"/>
</svg>
