<?xml version="1.0" encoding="UTF-8"?>
<!DOCTYPE svg PUBLIC "-//W3C//DTD SVG 1.1//EN" "http://www.w3.org/Graphics/SVG/1.1/DTD/svg11.dtd">
<svg version="1.1" xmlns="http://www.w3.org/2000/svg" xmlns:xlink="http://www.w3.org/1999/xlink" x="0" y="0" width="32.5" height="25" viewBox="0, 0, 32.5, 25">
  <g id="Layer_1">
    <path d="M29.644,9.4 C28.778,7.474 26.354,2.185 25.491,1.472 C24.374,0.549 21.174,-0 16.927,-0 L15.573,-0 C11.326,-0 8.126,0.549 7.009,1.471 C6.145,2.184 3.719,7.471 2.855,9.401 C0.882,10.491 0,12.27 0,15.131 C0.014,16.964 0.249,18.788 0.7,20.564 C0.783,20.856 1.051,21.055 1.354,21.052 L1.354,23.026 C1.372,24.131 2.28,25.014 3.385,25 L7.45,25 C8.555,25.014 9.463,24.131 9.481,23.026 L9.481,22.117 L9.85,22.3 C9.943,22.346 10.046,22.369 10.15,22.37 L22.338,22.37 C22.442,22.37 22.545,22.346 22.638,22.3 L23.013,22.118 L23.013,23.028 C23.032,24.135 23.943,25.017 25.05,25 L29.112,25 C30.218,25.014 31.126,24.132 31.144,23.026 L31.144,21.052 L31.144,21.052 C31.447,21.055 31.715,20.855 31.798,20.564 C32.248,18.788 32.483,16.964 32.498,15.131 C32.5,12.269 31.617,10.491 29.644,9.4 z M31.144,15.131 C31.142,15.79 31.107,16.449 31.037,17.105 L25.33,17.105 L27.443,15.051 C27.83,14.681 28.344,14.473 28.88,14.473 L31.126,14.473 Q31.15,14.788 31.15,15.131 z M7.885,2.475 C8.406,2.044 10.612,1.316 15.571,1.316 L16.925,1.316 C21.884,1.316 24.09,2.044 24.608,2.472 C25.861,4.467 26.948,6.561 27.858,8.734 C25.583,8.164 21.81,7.894 16.248,7.894 C10.686,7.894 6.913,8.164 4.638,8.734 C5.548,6.563 6.635,4.469 7.887,2.475 z M1.35,15.131 Q1.35,14.788 1.368,14.473 L3.614,14.473 C4.149,14.474 4.664,14.681 5.05,15.051 L7.163,17.105 L1.457,17.105 C1.387,16.449 1.352,15.79 1.35,15.131 z M8.121,23.031 C8.115,23.399 7.812,23.693 7.444,23.689 L3.381,23.689 C3.013,23.693 2.71,23.399 2.704,23.031 L2.704,21.057 L7.284,21.057 L8.121,21.464 L8.121,23.031 z M22.18,21.057 L10.316,21.057 L7.751,19.811 C7.657,19.766 7.555,19.742 7.451,19.741 L1.89,19.741 C1.819,19.426 1.726,18.973 1.637,18.426 L8.802,18.426 C9.073,18.427 9.319,18.267 9.428,18.019 C9.533,17.773 9.475,17.487 9.281,17.302 L6.012,14.126 C5.371,13.504 4.511,13.159 3.618,13.163 L1.55,13.163 C1.794,11.976 2.586,10.974 3.685,10.463 L3.7,10.456 C5.325,9.633 9.546,9.217 16.247,9.217 C22.948,9.217 27.176,9.634 28.799,10.458 C29.903,10.968 30.699,11.973 30.943,13.165 L28.879,13.165 C27.986,13.161 27.126,13.506 26.484,14.128 L23.215,17.304 C23.023,17.49 22.965,17.775 23.069,18.021 C23.177,18.27 23.424,18.43 23.695,18.428 L30.86,18.428 C30.771,18.975 30.678,19.428 30.608,19.743 L25.05,19.743 C24.946,19.743 24.843,19.767 24.75,19.813 L23.376,20.48 L23.376,20.48 z M29.788,23.031 C29.782,23.4 29.479,23.694 29.11,23.689 L25.05,23.689 C24.682,23.693 24.379,23.399 24.373,23.031 L24.373,21.464 L25.21,21.057 L29.79,21.057 L29.79,23.031 z M24.307,13.541 C24.192,13.308 23.954,13.161 23.694,13.163 L8.794,13.163 C8.534,13.161 8.296,13.308 8.18,13.541 C8.069,13.772 8.106,14.047 8.274,14.241 L11.659,18.188 C11.79,18.339 11.979,18.425 12.179,18.425 L20.304,18.425 C20.504,18.426 20.694,18.339 20.824,18.188 L24.21,14.241 C24.382,14.048 24.422,13.77 24.311,13.536 z M19.99,17.11 L12.5,17.11 L10.25,14.473 L22.25,14.473 z" fill="#FFFFFF" id="car"/>
  </g>
</svg>
