<svg xmlns="http://www.w3.org/2000/svg" width="56" height="50" viewBox="0 0 56 50">
  <metadata><?xpacket begin="﻿" id="W5M0MpCehiHzreSzNTczkc9d"?>
<x:xmpmeta xmlns:x="adobe:ns:meta/" x:xmptk="Adobe XMP Core 5.6-c138 79.159824, 2016/09/14-01:09:01        ">
   <rdf:RDF xmlns:rdf="http://www.w3.org/1999/02/22-rdf-syntax-ns#">
      <rdf:Description rdf:about=""/>
   </rdf:RDF>
</x:xmpmeta>
                                                                                                    
                                                                                                    
                                                                                                    
                                                                                                    
                                                                                                    
                                                                                                    
                                                                                                    
                                                                                                    
                                                                                                    
                                                                                                    
                                                                                                    
                                                                                                    
                                                                                                    
                                                                                                    
                                                                                                    
                                                                                                    
                                                                                                    
                                                                                                    
                                                                                                    
                                                                                                    
                           
<?xpacket end="w"?></metadata>
<defs>
    <style>
      .cls-1 {
        fill: #fff;
        fill-rule: evenodd;
      }
    </style>
  </defs>
  <path id="cash" class="cls-1" d="M932.1,1767H983.9a2.1,2.1,0,0,0,0-4.19H932.117A2.1,2.1,0,0,0,932.1,1767Zm51.805-7.58a2.09,2.09,0,0,0,0-4.18H932.117a2.09,2.09,0,0,0-.02,4.18H983.9Zm-10.428-21.99a2.97,2.97,0,1,0-2.948-2.97A2.963,2.963,0,0,0,973.474,1737.43Zm-38.626,14.5h46.3a4.88,4.88,0,0,0,4.848-4.89v-25.16a4.872,4.872,0,0,0-4.848-4.88h-46.3a4.872,4.872,0,0,0-4.848,4.88v25.16A4.88,4.88,0,0,0,934.848,1751.93Zm-0.712-24.98a4.143,4.143,0,0,0,.87.08,4.931,4.931,0,0,0,4.908-4.95,6.859,6.859,0,0,0-.079-0.91h36.053a4.821,4.821,0,0,0-.158,1.21,4.93,4.93,0,0,0,4.907,4.95,4.752,4.752,0,0,0,1.207-.16v15.17a4.869,4.869,0,0,0-1.207-.16,4.922,4.922,0,0,0-4.907,4.94c0,0.2.02,0.42,0.04,0.62H939.835a4.709,4.709,0,0,0,.079-0.92,4.923,4.923,0,0,0-4.908-4.94,4.263,4.263,0,0,0-.87.08v-15.01Zm8.409,10.48a2.97,2.97,0,1,0-2.948-2.97A2.963,2.963,0,0,0,942.545,1737.43ZM958,1723.76a10.706,10.706,0,1,0,10.586,10.7A10.631,10.631,0,0,0,958,1723.76Zm4.45,10.89a3.993,3.993,0,0,1-2.907,1.09h-3.028v1.06h4.5a0.291,0.291,0,0,1,.205.08,0.271,0.271,0,0,1,.08.21v1.14a0.271,0.271,0,0,1-.08.21,0.293,0.293,0,0,1-.205.08h-4.5v1.72a0.268,0.268,0,0,1-.085.21,0.3,0.3,0,0,1-.2.08h-1.487a0.291,0.291,0,0,1-.205-0.08,0.271,0.271,0,0,1-.08-0.21v-1.72h-1.995a0.293,0.293,0,0,1-.205-0.08,0.275,0.275,0,0,1-.08-0.21v-1.14a0.275,0.275,0,0,1,.08-0.21,0.293,0.293,0,0,1,.205-0.08h1.995v-1.06h-1.995a0.293,0.293,0,0,1-.205-0.08,0.275,0.275,0,0,1-.08-0.21v-1.33a0.308,0.308,0,0,1,.08-0.21,0.293,0.293,0,0,1,.205-0.08h1.995v-5.64a0.271,0.271,0,0,1,.08-0.21,0.291,0.291,0,0,1,.205-0.08h4.8a3.993,3.993,0,0,1,2.907,1.09A4.117,4.117,0,0,1,962.45,1734.65Zm-3.085-4.84h-2.85v4.02h2.85a2.11,2.11,0,0,0,1.522-.56,2.105,2.105,0,0,0,0-2.9A2.11,2.11,0,0,0,959.365,1729.81Z" transform="translate(-930 -1717)"/>
</svg>
