<svg xmlns="http://www.w3.org/2000/svg" width="31" height="32" viewBox="0 0 31 32">
  <metadata><?xpacket begin="﻿" id="W5M0MpCehiHzreSzNTczkc9d"?>
<x:xmpmeta xmlns:x="adobe:ns:meta/" x:xmptk="Adobe XMP Core 5.6-c138 79.159824, 2016/09/14-01:09:01        ">
   <rdf:RDF xmlns:rdf="http://www.w3.org/1999/02/22-rdf-syntax-ns#">
      <rdf:Description rdf:about=""/>
   </rdf:RDF>
</x:xmpmeta>
                                                                                                    
                                                                                                    
                                                                                                    
                                                                                                    
                                                                                                    
                                                                                                    
                                                                                                    
                                                                                                    
                                                                                                    
                                                                                                    
                                                                                                    
                                                                                                    
                                                                                                    
                                                                                                    
                                                                                                    
                                                                                                    
                                                                                                    
                                                                                                    
                                                                                                    
                                                                                                    
                           
<?xpacket end="w"?></metadata>
<defs>
    <style>
      .cls-1 {
        fill: #fff;
        fill-rule: evenodd;
      }
    </style>
  </defs>
  <path id="phone" class="cls-1" d="M446.907,331.014a12.945,12.945,0,0,1-4.561-1,34.181,34.181,0,0,1-11.509-8.138,35.459,35.459,0,0,1-7.883-11.889c-1.288-3.527-1.291-6.422-.007-7.747,0.185-.191.372-0.395,0.566-0.607,1.172-1.272,2.5-2.7,4.249-2.638,1.209,0.051,2.38.827,3.58,2.368,3.543,4.552,1.946,6.174.1,8.055l-0.327.334c-0.3.312-.874,1.758,4.443,7.25a29.742,29.742,0,0,0,4.4,3.9c0.745,0.5,2.077,1.256,2.623.691l0.329-.342c1.818-1.906,3.389-3.551,7.793.107,1.493,1.238,2.243,2.447,2.293,3.7,0.072,1.811-1.325,3.181-2.558,4.389-0.2.2-.4,0.394-0.586,0.584A3.982,3.982,0,0,1,446.907,331.014Zm-19.27-30.946c-1.246,0-2.371,1.223-3.367,2.306-0.2.217-.395,0.428-0.586,0.626-0.956.986-.859,3.579,0.247,6.606a34.357,34.357,0,0,0,7.644,11.507,33.147,33.147,0,0,0,11.14,7.892c2.931,1.144,5.442,1.241,6.4.255,0.191-.2.395-0.4,0.606-0.6,1.071-1.051,2.286-2.242,2.233-3.564a4.371,4.371,0,0,0-1.9-2.9c-3.67-3.048-4.7-1.972-6.4-.189l-0.334.347c-0.813.842-2.135,0.656-3.928-.548a30.8,30.8,0,0,1-4.567-4.041c-4.413-4.556-5.824-7.345-4.443-8.774l0.333-.339c1.73-1.758,2.774-2.819-.179-6.612-0.987-1.265-1.932-1.927-2.812-1.965h-0.081Z" transform="translate(-422 -299)"/>
</svg>
