<svg xmlns="http://www.w3.org/2000/svg" width="32" height="32" viewBox="0 0 32 32">
  <metadata><?xpacket begin="﻿" id="W5M0MpCehiHzreSzNTczkc9d"?>
<x:xmpmeta xmlns:x="adobe:ns:meta/" x:xmptk="Adobe XMP Core 5.6-c138 79.159824, 2016/09/14-01:09:01        ">
   <rdf:RDF xmlns:rdf="http://www.w3.org/1999/02/22-rdf-syntax-ns#">
      <rdf:Description rdf:about=""/>
   </rdf:RDF>
</x:xmpmeta>
                                                                                                    
                                                                                                    
                                                                                                    
                                                                                                    
                                                                                                    
                                                                                                    
                                                                                                    
                                                                                                    
                                                                                                    
                                                                                                    
                                                                                                    
                                                                                                    
                                                                                                    
                                                                                                    
                                                                                                    
                                                                                                    
                                                                                                    
                                                                                                    
                                                                                                    
                                                                                                    
                           
<?xpacket end="w"?></metadata>
<defs>
    <style>
      .cls-1 {
        fill: #fff;
        fill-rule: evenodd;
      }
    </style>
  </defs>
  <path id="cash" class="cls-1" d="M774.317,327.432a0.625,0.625,0,1,0,.183.442A0.632,0.632,0,0,0,774.317,327.432Zm24.028-17a0.622,0.622,0,1,0,.184.442A0.625,0.625,0,0,0,798.345,310.433Zm2.472-11.251a0.627,0.627,0,0,0-.442-0.183H785a0.625,0.625,0,0,0-.625.625v1.787L778.45,303a0.625,0.625,0,0,0-.442.765l3.071,11.459-2.656,2.656a1.877,1.877,0,0,0-1.548-.818h-6A1.877,1.877,0,0,0,769,318.937v10.187A1.877,1.877,0,0,0,770.875,331h6a1.879,1.879,0,0,0,1.82-1.424l0.743,0.649a3.147,3.147,0,0,0,2.07.775h18.867a0.625,0.625,0,0,0,.625-0.625v-30.75A0.627,0.627,0,0,0,800.817,299.182ZM777.5,329.124a0.626,0.626,0,0,1-.625.625h-6a0.625,0.625,0,0,1-.625-0.625V318.937a0.625,0.625,0,0,1,.625-0.625h2.375v7.2a0.625,0.625,0,0,0,1.25,0v-7.2h2.375a0.626,0.626,0,0,1,.625.625v10.187h0Zm1.877-25.079,5-1.338v2.316l-0.419.112a0.624,0.624,0,0,0-.442.765,1.685,1.685,0,0,1-1.19,2.061,0.626,0.626,0,0,0-.442.767l2.437,9.021h-1.255l-0.646-2.529a0.635,0.635,0,0,0-.105-0.219Zm5,3.844v5.274l-1.14-4.222A2.929,2.929,0,0,0,784.375,307.889Zm8.979,21.86H781.508a1.9,1.9,0,0,1-1.249-.468l-1.509-1.316v-8.644l2.729-2.729,0.494,1.936a0.625,0.625,0,0,0,.606.47h12.288a0.875,0.875,0,1,1,0,1.75h-6.3a0.626,0.626,0,0,0,0,1.251h8.253a0.875,0.875,0,1,1,0,1.749H788.57a0.625,0.625,0,0,0,0,1.25h6.916a0.875,0.875,0,1,1,0,1.75H788.57a0.625,0.625,0,0,0,0,1.25h4.784A0.875,0.875,0,1,1,793.354,329.749Zm6.4,0h-4.46a2.12,2.12,0,0,0,0-1.75h0.2a31.425,31.425,0,0,1,3.462-5.125,2.118,2.118,0,0,0-.419-1.266v-7.921a0.625,0.625,0,1,0-1.25,0V320.8a2.145,2.145,0,0,0-.456-0.05H796.8a2.123,2.123,0,0,0-1.936-3h-1a2.991,2.991,0,1,0-2.35,0H788.1V305.866a2.941,2.941,0,0,0,2.24-2.241h4.7a2.94,2.94,0,0,0,2.241,2.241v1.943a0.625,0.625,0,0,0,1.25,0v-2.5a0.625,0.625,0,0,0-.625-0.625A1.685,1.685,0,0,1,796.221,303a0.625,0.625,0,0,0-.625-0.625h-5.818a0.625,0.625,0,0,0-.625.625,1.684,1.684,0,0,1-1.682,1.683,0.624,0.624,0,0,0-.625.625V317.75h-1.221v-17.5H799.75v29.5Zm-7.063-13.008A1.742,1.742,0,1,1,794.428,315,1.744,1.744,0,0,1,792.687,316.741Z" transform="translate(-769 -299)"/>
</svg>
