<?xml version="1.0" encoding="UTF-8" standalone="no"?>
<!DOCTYPE svg  PUBLIC '-//W3C//DTD SVG 1.1//EN'  'http://www.w3.org/Graphics/SVG/1.1/DTD/svg11.dtd'>
<svg xmlns="http://www.w3.org/2000/svg" version="1.1">
<defs>
<font id="AGLettericaCondensedLight-Oblique" horiz-adv-x="444">
<font-face font-family="AGLettericaCondensedLight" unicode-range="U+0020-00FE" underline-position="-177" font-weight="400" x-height="552" bbox="-77 -191 860 917" underline-thickness="58" descent="-200" panose-1="0 0 0 0 0 0 0 0 0 0" ascent="800" font-style="oblique" units-per-em="1000" cap-height="750"/>
<missing-glyph/>
<glyph glyph-name="space" horiz-adv-x="222" unicode=" "/>
<glyph glyph-name="exclam" horiz-adv-x="222" unicode="!" d="M116 189h-40q16 121 24 181q13 96 28 181l35 199h64l-35 -199q-17 -95 -35 -181q-28 -121 -41 -181zM98 13h-69l16 88h69z"/>
<glyph glyph-name="quotedbl" horiz-adv-x="309" unicode='&quot;' d="M115 524l40 226h52l-40 -226h-52zM226 524l40 226h52l-40 -226h-52z"/>
<glyph glyph-name="numbersign" unicode="#" d="M-1 0l108 249h-100l24 51h97l57 131h-99l24 51h96l111 262h48l-112 -262h70l111 262h47l-111 -262h96l-24 -51h-92l-57 -131h94l-24 -51h-91l-106 -249h-50l108 249h-70l-108 -249h-47zM175 300h70l57 131h-69z"/>
<glyph glyph-name="dollar" unicode="$" d="M218 402l45 258q-53 -8 -82 -41t-39 -87q-2 -16 -2 -23q0 -34 19 -62.5t59 -44.5zM250 315l-49 -278q53 0 91 41.5t48 97.5q2 9 2 25q0 40 -27 70q-23 25 -65 44zM192 -14l-15 -82h-47l15 82q-71 6 -106 47t-35 106q0 34 9 72h60q-8 -35 -8 -64q0 -46 20.5 -75t68.5 -34 l52 298q-63 30 -93 63q-37 41 -37 99v15.5t4 23.5q9 51 42 94q54 70 150 80l12 67h47l-11 -62q68 -15 99 -56q26 -35 26 -90q0 -26 -4 -47h-58q3 17 3 34q0 39 -16 64q-19 30 -60 39l-49 -278q30 -14 55 -29q34 -21 53 -42q36 -42 36 -93v-24q-3 -12 -4 -17 q-14 -82 -69.5 -132t-139.5 -59z"/>
<glyph glyph-name="percent" horiz-adv-x="778" unicode="%" d="M588 358q57 0 83 -35q22 -29 22 -84q0 -30 -6 -62q-16 -92 -58 -135.5t-105 -43.5q-59 0 -86 32q-23 28 -23 79q0 14 2 31t5 37q14 82 47 125q42 56 119 56zM534 42q38 0 64 39q22 34 33 96q3 20 5 35.5t2 27.5q0 35 -11 52q-14 22 -47 22q-47 0 -75 -52q-17 -31 -27 -85 q-6 -36 -6 -60q0 -40 15.5 -57.5t46.5 -17.5zM285 728q57 0 83 -35q22 -29 22 -84q0 -30 -6 -62q-16 -93 -57.5 -135.5t-105.5 -42.5q-61 0 -87 32q-22 27 -22 79q0 13 2 30.5t5 36.5q15 81 48 125q42 56 118 56zM232 413q39 0 64 39q21 33 33 96q2 14 4 31t2 31 q0 34 -11 52q-14 22 -46 22q-48 0 -76 -52q-17 -32 -24.5 -76t-7.5 -68q0 -40 15.5 -57.5t46.5 -17.5zM162 -15l438 756h44l-438 -756h-44z"/>
<glyph glyph-name="ampersand" horiz-adv-x="611" unicode="&amp;" d="M387 119l-127 264q-65 -43 -98 -82q-39 -47 -51 -113q-3 -18 -3 -34q0 -53 31.5 -83.5t87.5 -30.5q51 0 88.5 18t71.5 61zM293 470q43 26 75 68.5t41 88.5q2 18 2 25q0 58 -65 58q-76 0 -90 -78q-3 -17 -3 -32q0 -25 8 -55.5t32 -74.5zM241 431q-25 49 -33 73 q-14 40 -14 78v19t4 29q12 65 55.5 101.5t106.5 36.5q53 0 85.5 -28.5t32.5 -77.5q0 -13 -3 -28q-12 -67 -55 -120q-36 -44 -103 -88l113 -244l4 6q17 33 30 73.5t21 81.5h65q-9 -45 -33 -109.5t-49 -99.5l-6 -8l60 -133h-71l-38 76l-4 -4q-43 -44 -89.5 -63.5t-104.5 -19.5 q-81 0 -127 43t-46 120q0 21 5 49q14 76 70 138q42 46 124 99z"/>
<glyph glyph-name="quotesingle" horiz-adv-x="198" unicode="&apos;" d="M115 524l40 226h52l-40 -226h-52z"/>
<glyph glyph-name="parenleft" horiz-adv-x="278" unicode="(" d="M282 768h47q-83 -100 -137 -224q-49 -114 -72 -245q-19 -106 -19 -198q0 -78 14 -150.5t45 -141.5h-47q-74 156 -74 323q0 73 16 166q22 128 79.5 249t147.5 221z"/>
<glyph glyph-name="parenright" horiz-adv-x="278" unicode=")" d="M-3 -191h-47q82 98 137 224q50 116 73 244q18 102 18 194q0 78 -12 146t-41 141l-6 10h47q74 -150 74 -331q0 -35 -3 -71t-10 -75q-24 -136 -78 -253q-59 -127 -152 -229z"/>
<glyph glyph-name="asterisk" horiz-adv-x="389" unicode="*" d="M211 593l-102 37l21 42l105 -42l20 114h44l-20 -114l118 42l6 -45l-116 -36l54 -105l-41 -24l-56 107l-96 -107l-30 27z"/>
<glyph glyph-name="plus" unicode="+" d="M186 220h-176l9 51h176l38 219h51l-38 -219h176l-9 -51h-176l-39 -220h-51z"/>
<glyph glyph-name="comma" horiz-adv-x="222" unicode="," d="M3 -136l7 37q22 9 33 37q5 12 12 49l2 13h-30l16 88h69l-10 -56l-15 -71q-11 -44 -30 -66t-54 -31z"/>
<glyph glyph-name="hyphen" horiz-adv-x="333" unicode="-" d="M291 269h-259l11 58h259z"/>
<glyph glyph-name="period" horiz-adv-x="222" unicode="." d="M96 0h-69l16 88h69z"/>
<glyph glyph-name="slash" horiz-adv-x="278" unicode="/" d="M-77 -94l393 844h55l-394 -844h-54z"/>
<glyph glyph-name="zero" unicode="0" d="M52 370q38 219 110 306q56 68 144 68q77 0 111 -58q28 -47 28 -132q0 -48 -11 -113t-15 -88q-20 -115 -40 -175q-30 -90 -76 -137q-54 -55 -136 -55q-75 0 -109 51q-29 44 -29 132q0 39 3.5 76t19.5 125zM114 353q-21 -119 -21 -187q0 -67 19.5 -96.5t62.5 -29.5 q52 0 85 40q58 72 95 278q13 75 19 120t6 85q0 63 -19 93q-22 34 -73 34q-63 0 -101.5 -73t-72.5 -264z"/>
<glyph glyph-name="one" unicode="1" d="M109 560l8 47q84 0 125 26q48 30 70 111h53l-131 -744h-65l101 572q-21 -4 -38.5 -6t-38.5 -2q-14 0 -48 -2t-36 -2z"/>
<glyph glyph-name="two" unicode="2" d="M60 61h297l-11 -61h-362l9 52q17 78 62 128q7 7 113 100q51 44 100.5 88t71.5 80q28 45 38 103q3 17 3 35q0 43 -17 71q-20 33 -57 33q-7 1 -21 1q-61 0 -98 -53q-28 -40 -44 -115h-62q13 94 67 154q60 67 151 67q68 0 107.5 -40.5t39.5 -111.5q0 -19 -5 -47 q-13 -73 -69 -146q-44 -58 -121 -123l-132 -108q-17 -14 -31 -36q-22 -33 -29 -71z"/>
<glyph glyph-name="three" unicode="3" d="M204 353h-44l10 54h20q149 0 175 149q1 10 2.5 19t1.5 21q0 43 -18 66q-22 28 -67 28q-55 0 -91 -48q-26 -35 -42 -98h-59q14 84 61 138q54 62 135 62q72 0 109 -39t37 -105q0 -21 -5 -49q-10 -58 -46 -101t-92 -65q54 -13 79 -53q21 -34 21 -85q0 -10 -0.5 -18t-4.5 -33 q-18 -101 -78.5 -155.5t-145.5 -54.5q-70 0 -108 31q-46 38 -46 115q0 27 6 62h61q-2 -12 -3 -23t-1 -25q0 -50 20 -75q24 -31 78 -31q64 0 105 49q35 42 47 109q3 17 3 38q0 50 -23 79q-30 38 -97 38z"/>
<glyph glyph-name="four" unicode="4" d="M24 260l342 484h61l-86 -490h66l-10 -54h-66l-35 -200h-65l35 200h-253zM82 254h194l66 373z"/>
<glyph glyph-name="five" unicode="5" d="M8 178h64q-1 -8 -1.5 -15.5t-0.5 -17.5q0 -49 18 -74q22 -31 72 -31q71 0 115 64q36 52 51 138q6 35 6 67q0 55 -21 83q-25 34 -81 34q-34 0 -65 -19.5t-51 -52.5h-55l110 376h278l-11 -61h-224l-68 -227q23 20 52 29t58 9q77 0 112 -48q31 -42 31 -117q0 -15 -1.5 -34 t-5.5 -41q-18 -108 -73 -175q-64 -79 -165 -79q-76 0 -114 40q-34 36 -34 105q0 11 1.5 25t2.5 22z"/>
<glyph glyph-name="six" unicode="6" d="M245 416q-66 0 -106 -56q-31 -43 -44 -115q-7 -37 -7 -72q0 -58 18 -91q23 -42 74 -42q64 0 108 68q33 52 46 124q6 32 6 64q0 55 -19 84q-24 36 -76 36zM174 -14q-80 0 -116 59q-29 48 -29 135q0 38 3.5 68.5t11.5 75.5q34 154 38 169q32 111 80 172q62 79 155 79 q61 0 96 -34t35 -94q0 -16 -3 -36h-60q1 9 1 25q0 42 -19 63.5t-65 21.5q-41 0 -78 -39q-30 -32 -49 -77q-30 -74 -53 -175q35 35 70 53t77 18q73 0 108 -53q29 -44 29 -116q0 -33 -6 -65q-18 -98 -63 -162q-62 -88 -163 -88z"/>
<glyph glyph-name="seven" unicode="7" d="M119 669l11 61h361l-11 -59q-53 -53 -124 -159q-52 -78 -95 -154q-46 -82 -81 -181q-28 -78 -53 -177h-65q37 164 129 344q99 193 224 325h-296z"/>
<glyph glyph-name="eight" unicode="8" d="M234 364q-54 0 -93.5 -39.5t-53.5 -117.5q-4 -25 -4.5 -34.5t-0.5 -15.5q0 -52 21.5 -84.5t69.5 -32.5q70 0 111 51q34 43 46 116q5 30 5 52q0 49 -22 75q-25 30 -79 30zM293 690q-68 0 -103 -73q-31 -65 -23 -73q-3 -18 -3 -34q0 -42 18 -65q22 -27 66 -27q52 0 85 44 q26 35 37 91q2 10 3 22.5t1 23.5q0 42 -17 64q-20 27 -64 27zM162 396q-31 14 -45 41.5t-14 64.5q0 12 2 27t4 28q14 80 63 131q54 56 131 56q70 0 103 -38q30 -34 30 -99q0 -23 -5 -56q-9 -53 -33 -90q-28 -44 -74 -63q40 -23 58 -58.5t18 -80.5q0 -23 -5 -55 q-20 -115 -83 -170q-54 -48 -157 -48q-64 0 -101.5 43.5t-37.5 118.5q0 9 0.5 17t4.5 36q13 68 40 110q34 53 101 85z"/>
<glyph glyph-name="nine" unicode="9" d="M293 690q-64 0 -106 -68q-31 -51 -44 -125q-3 -17 -5 -35t-2 -36q0 -52 18 -79q22 -34 73 -34q65 0 105 56q30 43 43 115q3 17 5 37t2 40q0 58 -17 89q-22 40 -72 40zM302 744q78 0 113 -56q28 -45 28 -130q0 -34 -4.5 -70.5t-11.5 -76.5q-19 -86 -37 -172 q-31 -114 -77 -174q-61 -79 -156 -79q-60 0 -95 34t-35 94q0 17 3 35h60q-1 -7 -1 -21q0 -43 19.5 -65.5t65.5 -22.5q41 0 78 38q28 30 48 77q31 77 48 175q-33 -35 -66 -53t-75 -18q-74 0 -108 52q-28 42 -28 116q0 34 6 66q17 98 62 162q62 89 163 89z"/>
<glyph glyph-name="colon" horiz-adv-x="222" unicode=":" d="M172 433h-69l16 88h69zM96 0h-69l16 88h69z"/>
<glyph glyph-name="semicolon" horiz-adv-x="222" unicode=";" d="M3 -136l7 37q22 9 33 37q5 12 12 49l2 13h-30l16 88h69l-10 -56l-15 -71q-11 -44 -30 -66t-54 -31zM103 433l16 88h69l-16 -88h-69z"/>
<glyph glyph-name="less" unicode="&lt;" d="M8 223l8 44l448 234l-10 -56l-387 -195l-1 -5l318 -201l-10 -56z"/>
<glyph glyph-name="equal" unicode="=" d="M437 360l-9 -51h-403l9 51h403zM406 182l-9 -51h-403l9 51h403z"/>
<glyph glyph-name="greater" unicode="&gt;" d="M423 267l-8 -44l-448 -234l10 56l387 195l1 5l-317 201l10 56z"/>
<glyph glyph-name="question" horiz-adv-x="389" unicode="?" d="M183 171h-56q8 69 36 120q23 42 81 104q49 53 67 80q30 44 38 93q3 20 3 36q0 42 -20.5 66.5t-61.5 24.5q-69 0 -104 -47q-26 -35 -39 -112h-62q12 84 54 140q57 74 155 74q62 0 100 -32q42 -36 42 -104v-25q-3 -12 -4 -17q-9 -51 -32 -91q-28 -48 -92 -115 q-55 -56 -73 -89q-22 -39 -32 -106zM161 0h-70l16 88h70z"/>
<glyph glyph-name="at" horiz-adv-x="800" unicode="@" d="M480 564q-77 0 -156 -90q-72 -82 -86 -162q-3 -17 -3 -30q0 -41 22.5 -65.5t59.5 -24.5q50 0 89.5 25.5t58.5 61.5l81 158q14 30 14 54q0 32 -20.5 52.5t-59.5 20.5zM594 541l24 49h55l-160 -314q-14 -29 -15 -32q-9 -22 -9 -34q0 -14 8 -21t28 -7q31 0 77 33 q38 27 68 61q24 27 49.5 78t32.5 91q4 23 4 49q0 102 -75.5 164.5t-185.5 62.5q-143 0 -260.5 -103.5t-143.5 -246.5q-4 -30 -5 -36v-22q0 -120 82.5 -201.5t206.5 -81.5q81 0 165 39.5t145 106.5h53q-64 -89 -166 -141.5t-205 -52.5q-148 0 -239.5 91.5t-91.5 233.5 q0 14 1.5 32t5.5 40q28 162 164.5 276t299.5 114q140 0 228 -90q72 -74 72 -180q0 -14 -1 -29t-4 -30q-9 -50 -38 -105q-25 -49 -56 -84q-45 -51 -91 -79q-56 -34 -111 -34q-29 0 -49 12t-20 38q1 5 1 8q-34 -26 -70.5 -38t-72.5 -12q-54 0 -83 33t-29 85q0 18 3 36 q20 114 103 207q92 103 201 103q38 0 66.5 -18t37.5 -51z"/>
<glyph glyph-name="A" horiz-adv-x="500" unicode="A" d="M151 289h200l-32 379zM295 750h75l69 -750h-66l-18 231h-228l-102 -231h-63z"/>
<glyph glyph-name="B" horiz-adv-x="500" unicode="B" d="M209 364h-68l-54 -306h81q93 0 139 31q54 37 70 128q4 21 4 43q0 64 -50 87q-37 17 -122 17zM151 422h67q88 0 131 26q54 32 69 117q3 18 3 34q0 59 -47 79q-33 14 -114 14h-61zM115 0h-103l132 750h164q47 0 83.5 -8t59.5 -33q36 -37 36 -98v-26q-3 -13 -4 -18 q-10 -60 -41 -103q-34 -48 -91 -68q49 -14 72.5 -48t23.5 -84q0 -20 -5 -48q-23 -130 -115 -179q-70 -37 -212 -37z"/>
<glyph glyph-name="C" horiz-adv-x="556" unicode="C" d="M422 254h65q-17 -108 -81 -184q-74 -88 -179 -88q-93 0 -134 63q-34 52 -34 147q0 46 8 105q5 41 16 99q17 98 41 164q34 94 86 145q65 63 157 63q83 0 127 -51q41 -47 41 -128q0 -15 -1 -25t-4 -30h-65q1 10 1.5 22t0.5 18q0 61 -23 95q-28 41 -89 41q-80 0 -131 -77 q-47 -70 -79 -252q-9 -55 -13 -83q-8 -59 -8 -94q0 -75 24 -115q29 -49 96 -49q76 0 124 72q36 53 54 142z"/>
<glyph glyph-name="D" horiz-adv-x="556" unicode="D" d="M209 692l-112 -634h78h14q42 0 63 3.5t41 12.5q70 30 113 134q27 66 45 168q12 65 15 90.5t3 59.5q0 51 -14 90t-48 59q-16 10 -44 13.5t-62 3.5h-36h-56zM22 0l132 750h134q80 0 118 -10q57 -15 92 -61q18 -27 26.5 -69.5t8.5 -90.5q0 -20 -2 -42.5t-5 -44.5 q-19 -110 -27 -141q-20 -83 -51 -138q-49 -91 -118 -125q-57 -28 -161 -28h-147z"/>
<glyph glyph-name="E" unicode="E" d="M362 0h-345l132 750h340l-10 -58h-275l-48 -270h250l-10 -58h-250l-54 -306h280z"/>
<glyph glyph-name="F" unicode="F" d="M84 0h-65l132 750h345l-10 -58h-280l-48 -270h250l-10 -58h-250z"/>
<glyph glyph-name="G" horiz-adv-x="556" unicode="G" d="M423 314h-161l11 58h226l-66 -372h-52l7 77q-74 -95 -181 -95q-91 0 -131 63q-34 53 -34 147q0 40 3.5 74.5t21 132.5t38.5 160q33 97 85 147q64 62 164 62q79 0 125 -51q43 -48 43 -125q0 -26 -4 -47h-62q0 76 -18 113q-26 52 -92 52q-107 0 -165 -129q-29 -66 -54 -206 q-5 -31 -11.5 -80t-6.5 -84q0 -76 22 -118q28 -53 91 -53q65 0 110 47q36 38 60 108q14 42 31 119z"/>
<glyph glyph-name="H" horiz-adv-x="556" unicode="H" d="M83 0h-65l132 750h65l-56 -319h290l56 319h65l-132 -750h-65l66 373h-290z"/>
<glyph glyph-name="I" horiz-adv-x="222" unicode="I" d="M94 0h-65l132 750h65z"/>
<glyph glyph-name="J" horiz-adv-x="389" unicode="J" d="M1 219h65l-3 -16q-4 -21 -5 -31q-5 -30 -5 -52q0 -37 16 -58.5t57 -21.5q52 0 77 39q16 25 27 85l103 586h65l-104 -590q-15 -84 -55 -128q-46 -50 -129 -50q-65 0 -96 39q-27 34 -27 96v30q3 14 4 20z"/>
<glyph glyph-name="K" horiz-adv-x="500" unicode="K" d="M82 0h-65l132 750h65l-66 -375l339 375h75l-275 -303l154 -447h-70l-136 394l-103 -110z"/>
<glyph glyph-name="L" unicode="L" d="M367 0h-343l132 750h65l-122 -692h278z"/>
<glyph glyph-name="M" horiz-adv-x="722" unicode="M" d="M88 0h-65l132 750h109l63 -654l299 654h106l-132 -750h-65l121 685l-309 -685h-69l-67 685z"/>
<glyph glyph-name="N" horiz-adv-x="556" unicode="N" d="M229 750l163 -644l115 644h65l-132 -750h-79l-165 642l-115 -642h-65l132 750h81z"/>
<glyph glyph-name="O" horiz-adv-x="556" unicode="O" d="M223 -18q-94 0 -135 63q-34 52 -34 148q0 45 7 96.5t17 106.5q17 99 41 164q34 94 87 145q65 63 157 63q96 0 138 -62q35 -51 35 -146q0 -43 -7 -93.5t-17 -107.5q-19 -108 -40 -170q-33 -96 -86 -146q-64 -61 -163 -61zM239 40q101 0 157 127q29 66 54 207q6 33 12.5 82 t6.5 85q0 78 -23 118q-29 51 -96 51q-97 0 -154 -124q-32 -71 -56 -205q-9 -55 -13 -83q-8 -59 -8 -94q0 -75 24 -115q29 -49 96 -49z"/>
<glyph glyph-name="P" horiz-adv-x="500" unicode="P" d="M91 0h-65l132 750h133q116 0 167 -29q57 -33 57 -112q0 -12 -1 -26t-4 -29q-10 -55 -31.5 -95.5t-58 -67.5t-94.5 -41q-45 -11 -76 -11h-99zM213 692l-52 -295h56q101 0 148 25q62 33 79 126q2 10 3 22t1 22q0 55 -35 77.5t-105 22.5h-95z"/>
<glyph glyph-name="Q" horiz-adv-x="556" unicode="Q" d="M321 66l-66 61l44 45l65 -62q36 48 59 134q12 45 27 130q6 33 12.5 82t6.5 85q0 78 -23 118q-29 51 -96 51q-97 0 -154 -124q-32 -71 -56 -205q-9 -55 -13 -83q-8 -59 -8 -94q0 -75 24 -115q29 -49 96 -49q47 0 82 26zM407 69l70 -67l-42 -44l-71 68q-27 -21 -62.5 -32.5 t-78.5 -11.5q-94 0 -135 63q-34 52 -34 147q0 46 8 105q5 40 16 98q18 101 41 165q34 93 87 145q65 63 157 63q96 0 138 -62q35 -51 35 -146q0 -43 -7 -93.5t-17 -107.5q-17 -100 -34 -152q-26 -84 -71 -138z"/>
<glyph glyph-name="R" horiz-adv-x="500" unicode="R" d="M207 353h-67l-62 -353h-65l132 750h145q98 0 146 -29q56 -34 56 -112q0 -14 -2 -28t-3 -23q-10 -62 -44 -109q-39 -55 -97 -67q42 -12 59 -39.5t17 -70.5q0 -18 -3 -40t-5 -35q-6 -38 -11 -76.5t-5 -54.5q0 -21 4 -36.5t13 -20.5l-2 -9h-71q-6 24 -6 57q0 39 5.5 86 t13.5 103q1 7 1 19q0 56 -45 75q-30 13 -104 13zM200 692l-50 -281h114q42 0 78 20q65 36 80 122q4 23 4 45q0 53 -32 73.5t-100 20.5h-94z"/>
<glyph glyph-name="S" horiz-adv-x="500" unicode="S" d="M237 433l54 -24q85 -38 112 -62q46 -40 46 -108v-26q-3 -14 -4 -20q-17 -97 -85 -154t-167 -57q-85 0 -128.5 45.5t-43.5 123.5q0 29 6 61h64q-5 -30 -5 -51q0 -57 27.5 -89t88.5 -32q70 0 117.5 40.5t60.5 110.5q3 18 3 34q0 64 -65 98q-5 2 -76 32.5t-102 61.5 q-40 40 -40 102v25q3 12 4 17q16 93 78 150t153 57q75 0 118 -41t43 -111q0 -14 -1 -21.5t-4 -25.5h-63q5 23 5 39q0 47 -28.5 74.5t-80.5 27.5q-63 0 -103 -40t-51 -105q-4 -20 -4 -40q0 -33 16.5 -53.5t54.5 -38.5z"/>
<glyph glyph-name="T" unicode="T" d="M262 692h-170l10 58h405l-10 -58h-170l-122 -692h-65z"/>
<glyph glyph-name="U" horiz-adv-x="556" unicode="U" d="M58 198l97 552h65l-96 -544q-3 -17 -5 -34.5t-2 -31.5q0 -51 25.5 -75.5t89.5 -24.5q82 0 124 48q35 40 49 124l95 538h65l-92 -522q-21 -120 -73 -178q-61 -68 -176 -68q-89 0 -130.5 38.5t-41.5 114.5q0 28 6 63z"/>
<glyph glyph-name="V" horiz-adv-x="500" unicode="V" d="M165 0l-69 750h68l51 -665l291 665h63l-331 -750h-73z"/>
<glyph glyph-name="W" horiz-adv-x="722" unicode="W" d="M479 750l11 -636l234 636h63l-280 -750h-73l-12 642l-237 -642h-73l-13 750h66l3 -633l236 633h75z"/>
<glyph glyph-name="X" horiz-adv-x="500" unicode="X" d="M229 387l-120 363h73l96 -301l206 301h72l-250 -363l126 -387h-71l-105 326l-218 -326h-70z"/>
<glyph glyph-name="Y" horiz-adv-x="500" unicode="Y" d="M268 393l228 357h68l-276 -431l-56 -319h-65l56 319l-122 431h72z"/>
<glyph glyph-name="Z" unicode="Z" d="M361 0h-377l11 60l418 632h-293l10 58h363l-10 -56l-421 -636h309z"/>
<glyph glyph-name="bracketleft" horiz-adv-x="278" unicode="[" d="M169 -58l-8 -46h-155l153 872h153l-8 -46h-95l-137 -780h97z"/>
<glyph glyph-name="backslash" horiz-adv-x="222" unicode="\" d="M158 0l-116 750h54l116 -750h-54z"/>
<glyph glyph-name="bracketright" horiz-adv-x="278" unicode="]" d="M136 -104h-155l8 46h97l137 780h-95l8 46h153z"/>
<glyph glyph-name="asciicircum" unicode="^" d="M283 750h41l63 -410h-47l-51 335l-166 -335h-47z"/>
<glyph glyph-name="underscore" horiz-adv-x="500" unicode="_" d="M429 -119h-500l10 58h500z"/>
<glyph glyph-name="grave" horiz-adv-x="333" unicode="`" d="M286 606h-51l-114 139h78z"/>
<glyph glyph-name="a" horiz-adv-x="389" unicode="a" d="M256 201l18 97q-30 -15 -78 -33q-17 -6 -46 -18q-48 -19 -66 -41.5t-27 -72.5q-3 -17 -3 -31q0 -31 15 -48t49 -17q27 0 49.5 11t41 32t31.5 57q10 26 16 64zM120 413h-56q11 73 56 113t118 40q38 0 65 -9.5t41 -32.5q8 -12 11 -25t3 -30q0 -11 -2 -25.5t-4 -27.5 l-59 -339q-2 -16 -2 -19q0 -12 7 -15t28 -3l-7 -42q-9 -4 -17.5 -5t-19.5 -1q-14 0 -28 3q-15 6 -18.5 14.5t-3.5 26.5v9q-26 -29 -61.5 -44t-71.5 -15q-56 0 -79.5 26.5t-23.5 75.5q0 22 5 54q9 51 32 85.5t69 56.5q20 9 101 38q34 12 61 24q6 2 12 9.5t7 12.5q6 16 10 45 t4 47q0 27 -16 41t-53 14q-54 0 -78 -32q-11 -14 -30 -70z"/>
<glyph glyph-name="b" unicode="b" d="M186 37q73 0 115 89q24 51 41 148q5 25 9.5 58t4.5 61q0 56 -16 85q-20 37 -66 37q-73 0 -113 -86q-22 -48 -39 -143q-7 -42 -9 -58q-6 -43 -6 -72q0 -55 15 -83q19 -36 64 -36zM72 0h-58l132 750h58l-43 -243q34 30 66.5 44.5t70.5 14.5q64 0 93 -51q23 -41 23 -115 q0 -31 -3 -56.5t-10 -65.5q-14 -78 -30 -125q-25 -73 -64 -115q-48 -52 -116 -52q-82 0 -108 66z"/>
<glyph glyph-name="c" horiz-adv-x="389" unicode="c" d="M282 183h58q-14 -86 -56 -137q-49 -60 -131 -60q-74 0 -106 46q-26 38 -26 111q0 33 3.5 62.5t11.5 73.5q22 122 59 188q56 99 158 99q61 0 92 -37.5t31 -97.5q0 -23 -4 -42h-57q0 7 1 15.5t1 13.5q0 44 -19 70.5t-58 26.5q-71 0 -109 -90q-18 -42 -39 -156 q-5 -29 -9 -60.5t-4 -55.5q0 -53 16 -81q20 -35 68 -35q53 0 83 49q18 29 36 97z"/>
<glyph glyph-name="d" unicode="d" d="M254 515q-71 0 -114 -96q-24 -54 -41 -152q-3 -20 -7 -52t-4 -55q0 -54 17 -85q21 -38 68 -38q76 0 116 103q16 41 38 160q4 20 7.5 49t3.5 51q0 52 -16 80q-20 35 -68 35zM406 750h58l-132 -750h-58l9 52q-48 -66 -132 -66q-68 0 -98 49q-24 39 -24 114q0 33 3.5 62 t10.5 67q21 118 58 185q57 103 154 103q71 0 106 -59z"/>
<glyph glyph-name="e" horiz-adv-x="389" unicode="e" d="M361 335l-10 -56h-259q-7 -39 -12 -73t-5 -58q0 -52 15 -78q19 -33 64 -33q55 0 85 46q20 30 37 97h56q-15 -84 -58 -135q-50 -59 -130 -59q-70 0 -100 47q-25 39 -25 111q0 34 3.5 61.5t10.5 68.5q15 82 29 125q24 74 63 115q49 52 119 52q66 0 98 -46q27 -39 27 -106 q0 -37 -8 -79zM101 330h201q5 28 7 48.5t2 33.5q0 47 -15 72q-19 31 -62 31q-59 0 -96 -68q-23 -44 -37 -117z"/>
<glyph glyph-name="f" horiz-adv-x="222" unicode="f" d="M27 0l88 501h-59l9 51h59l11 60q14 82 41 108q31 30 112 30l-9 -51q-53 0 -67 -18q-9 -11 -19 -66l-11 -63h69l-9 -51h-69l-88 -501h-58z"/>
<glyph glyph-name="g" unicode="g" d="M250 515q-66 0 -108 -97q-25 -58 -40 -148q-5 -30 -9 -59.5t-4 -53.5q0 -53 17 -83q21 -37 68 -37q69 0 108 85q21 46 38 140q12 66 12 67q7 44 7 73q0 53 -17 79q-22 34 -72 34zM371 552h58l-95 -540q-17 -96 -62 -145q-52 -56 -144 -56q-58 0 -93 25q-39 28 -39 80 q0 13 1 20h59q-4 -36 20 -55t62 -19q78 0 110 59q12 22 33 118h-4q-26 -28 -58 -40.5t-67 -12.5q-68 0 -98 46q-25 38 -25 108q0 27 4 59.5t11 70.5q21 124 53 187q55 109 153 109q43 0 68 -15t43 -49z"/>
<glyph glyph-name="h" unicode="h" d="M71 0h-58l132 750h58l-43 -247q52 63 131 63q39 0 66.5 -10.5t40.5 -37.5q6 -11 8.5 -22.5t2.5 -28.5t-3 -37t-4 -30l-71 -400h-58l69 389q3 16 4.5 30t1.5 26q0 34 -13 50q-17 20 -56 20t-72.5 -22t-59.5 -60z"/>
<glyph glyph-name="i" horiz-adv-x="222" unicode="i" d="M90 0h-58l97 552h58zM210 655h-67l17 95h67z"/>
<glyph glyph-name="j" horiz-adv-x="222" unicode="j" d="M-62 -189l9 54q16 0 24 1q10 3 14 3q23 7 33 32q5 13 10 45l107 606h58l-107 -608q-8 -45 -13 -59q-11 -31 -36 -52q-22 -13 -46 -17.5t-53 -4.5zM165 750h67l-16 -92h-67z"/>
<glyph glyph-name="k" horiz-adv-x="389" unicode="k" d="M70 0h-58l132 750h58l-81 -458l225 260h73l-186 -206l92 -346h-61l-82 287l-76 -85z"/>
<glyph glyph-name="l" horiz-adv-x="222" unicode="l" d="M90 0h-58l132 750h58z"/>
<glyph glyph-name="m" horiz-adv-x="667" unicode="m" d="M140 421l-74 -421h-58l97 552h58l-8 -49q52 63 130 63q41 0 60 -9q29 -13 45 -53q28 31 65.5 46.5t77.5 15.5q57 0 81 -25.5t24 -73.5q0 -21 -5 -51l-73 -416h-58l75 423q2 7 2 15v12q0 30 -13 46q-16 20 -49 20q-51 0 -87.5 -30.5t-45.5 -82.5l-71 -403h-58l70 399 q2 13 4 27.5t2 24.5q0 31 -13 46q-16 18 -54 18q-37 0 -77 -29t-47 -65z"/>
<glyph glyph-name="n" unicode="n" d="M145 407l-72 -407h-58l97 552h58l-9 -54q28 31 64 49.5t75 18.5q48 0 78 -27t30 -75q0 -17 -2 -26l-77 -438h-58l71 401q2 13 4 28.5t2 24.5q0 30 -13 44q-16 17 -54 17q-46 0 -87 -30.5t-49 -77.5z"/>
<glyph glyph-name="o" unicode="o" d="M169 -14q-76 0 -109 47q-27 39 -27 113q0 34 5 72q2 13 12 71q28 156 91 222q53 55 133 55q74 0 106 -51q27 -42 27 -118q0 -32 -3 -59t-9 -60q-22 -127 -61 -193q-58 -99 -165 -99zM177 37q76 0 118 89q24 50 42 151q7 37 10 62t3 54q0 56 -18 85q-23 37 -74 37 q-68 0 -109 -85q-26 -53 -39.5 -132t-14.5 -88q-4 -31 -4 -54q0 -54 17 -83q21 -36 69 -36z"/>
<glyph glyph-name="p" unicode="p" d="M115 279q-9 -50 -10 -60q-6 -42 -6 -68q0 -53 17 -80q21 -34 69 -34q70 0 110 89q22 49 39 145q9 55 9 56q5 38 5 68q0 55 -15 84q-19 36 -62 36q-79 0 -118 -86q-18 -41 -38 -150zM76 45l-41 -235h-60l130 742h58l-8 -50q25 29 57 46.5t66 17.5q72 0 104 -48 q26 -39 26 -112q0 -24 -3.5 -55t-9.5 -61q-15 -87 -29 -132q-24 -79 -62 -120q-48 -52 -123 -52q-36 0 -62.5 14.5t-42.5 44.5z"/>
<glyph glyph-name="q" unicode="q" d="M169 37q59 0 96 54q33 48 58 186q4 22 9.5 61t5.5 63q0 51 -16 79q-20 35 -65 35q-74 0 -115 -92q-22 -49 -40 -152q-6 -31 -9.5 -58t-3.5 -56q0 -53 16 -83q20 -37 64 -37zM363 502l8 50h58l-130 -741h-60l41 234q-24 -28 -57 -43.5t-68 -15.5q-70 0 -101 46 q-25 37 -25 108q0 27 4 61t11 72q15 82 31 130q25 74 65 114q49 49 122 49q34 0 59 -16.5t42 -47.5z"/>
<glyph glyph-name="r" horiz-adv-x="278" unicode="r" d="M171 552l-11 -64q31 44 63.5 61t83.5 17l-11 -61q-65 0 -104 -38t-51 -105l-64 -362h-58l97 552h55z"/>
<glyph glyph-name="s" horiz-adv-x="389" unicode="s" d="M66 407q0 74 46.5 116.5t123.5 42.5q126 0 126 -117q0 -15 -2 -24.5t-2 -13.5h-57q2 16 2 23q0 37 -20 59t-58 22q-41 0 -65.5 -22.5t-32.5 -65.5q-1 -5 -1 -15q0 -25 14 -41.5t39 -27.5q78 -38 105 -64q44 -41 44 -103q0 -15 -2 -24.5t-2 -13.5q-13 -73 -61.5 -112.5 t-121.5 -39.5q-68 0 -102.5 31t-34.5 90v17.5t4 25.5h59q-1 -8 -1 -22q0 -43 21 -67t67 -24q45 0 75 29t38 75q2 16 2 22q0 57 -102 111t-102 116q0 11 1 17z"/>
<glyph glyph-name="t" horiz-adv-x="222" unicode="t" d="M159 43l-9 -48q-17 -3 -34 -4.5t-20 -1.5q-12 0 -21 3q-47 17 -47 60q0 17 4 36l72 413h-50l9 51h50l29 162h58l-29 -162h77l-9 -51h-77l-71 -407q-2 -8 -2.5 -12.5t-0.5 -9.5q0 -12 4.5 -20t17.5 -10q6 -3 20 -3q7 0 16 1.5t13 2.5z"/>
<glyph glyph-name="u" unicode="u" d="M294 132l74 420h58l-97 -552h-56l9 51q-33 -34 -70 -49.5t-82 -15.5q-56 0 -78.5 26t-22.5 75q0 13 2 29t4 28l72 408h58l-73 -418q-2 -9 -3 -17t-1 -17q0 -33 20 -48t64 -15q32 0 66.5 29t55.5 66z"/>
<glyph glyph-name="v" horiz-adv-x="389" unicode="v" d="M126 552l38 -447l197 447h59l-243 -552h-63l-50 552h62z"/>
<glyph glyph-name="w" horiz-adv-x="556" unicode="w" d="M357 552l10 -440l168 440h57l-217 -552h-61l-9 433l-163 -433h-64l-20 552h58l13 -440l164 440h64z"/>
<glyph glyph-name="x" horiz-adv-x="389" unicode="x" d="M261 0l-77 234l-158 -234h-63l196 289l-89 263h65l68 -213l144 213h67l-184 -263l96 -289h-65z"/>
<glyph glyph-name="y" horiz-adv-x="389" unicode="y" d="M-55 -188l9 51h28q34 0 50.5 8.5t27.5 25.5q27 46 50 101l-46 554h61l36 -447l200 447h59l-246 -545q-35 -81 -46 -101q-33 -60 -73 -83q-15 -7 -30.5 -10.5t-30.5 -3.5q-14 0 -26 1t-23 2z"/>
<glyph glyph-name="z" horiz-adv-x="333" unicode="z" d="M265 0h-297l10 55l309 446h-219l9 51h280l-9 -54l-308 -447h234z"/>
<glyph glyph-name="braceleft" horiz-adv-x="351" unicode="{" d="M159 450l30 168q15 85 51.5 117.5t121.5 32.5q-51 -21 -72 -47t-28 -67l-31 -177q-10 -58 -30 -86q-26 -36 -84 -53q39 -8 55.5 -27.5t16.5 -54.5q0 -17 -5 -45l-33 -190q-3 -18 -3 -33q0 -25 13.5 -43.5t49.5 -35.5q-17 -1 -26 -1q-23 0 -42.5 5.5t-34.5 18t-20.5 27.5 t-5.5 35q0 21 5 46l33 189q4 18 4.5 21.5t0.5 15.5q0 21 -11 37.5t-25 24.5t-32 8q39 13 59.5 27.5t30.5 37.5q6 15 12 49z"/>
<glyph glyph-name="bar" horiz-adv-x="222" unicode="|" d="M35 0l132 750h52l-132 -750h-52z"/>
<glyph glyph-name="braceright" horiz-adv-x="351" unicode="}" d="M283 635l-33 -189q-4 -18 -4.5 -21.5t-0.5 -15.5q0 -21 11 -37.5t25 -24.5t32 -8q-39 -13 -59.5 -27.5t-30.5 -37.5q-6 -15 -12 -49l-30 -168q-15 -85 -51.5 -117.5t-121.5 -32.5q51 21 72 47t28 67l31 177q10 58 30 86q26 36 84 53q-39 8 -55.5 27.5t-16.5 54.5 q0 17 5 45l33 190q3 18 3 33q0 25 -13.5 43.5t-49.5 35.5q17 1 26 1q23 0 42.5 -5.5t36.5 -19.5q13 -11 18.5 -26t5.5 -35q0 -21 -5 -46z"/>
<glyph glyph-name="asciitilde" unicode="~" d="M36 179l-27 35q40 51 69 68.5t60 17.5q20 0 45 -8q17 -5 44 -18l32 -14q30 -12 46 -12q19 0 39 12q25 15 51 49l27 -34q-26 -34 -55 -55q-36 -26 -72 -26q-23 0 -66 17q-27 12 -36 15q-36 14 -38 15q-14 4 -27 4q-28 0 -53 -22q-13 -11 -39 -44z"/>
<glyph glyph-name="nonbreakingspace" horiz-adv-x="500" unicode=" "/>
<glyph glyph-name="exclamdown" horiz-adv-x="500" unicode="¡" d="M226 193l-135 557h72l107 -473l236 473h68l-324 -629q-43 -85 -81 -114q-32 -25 -75 -25l-49 3l11 61l37 -2q23 0 41 12q22 15 43 52zM220 917h40q0 -40 24 -60.5t66 -20.5q41 0 73.5 21t47.5 60h37q-17 -61 -62.5 -93.5t-108.5 -32.5q-59 0 -88 33t-29 93z"/>
<glyph glyph-name="exclamdown" horiz-adv-x="500" unicode="Ў" d="M226 193l-135 557h72l107 -473l236 473h68l-324 -629q-43 -85 -81 -114q-32 -25 -75 -25l-49 3l11 61l37 -2q23 0 41 12q22 15 43 52zM220 917h40q0 -40 24 -60.5t66 -20.5q41 0 73.5 21t47.5 60h37q-17 -61 -62.5 -93.5t-108.5 -32.5q-59 0 -88 33t-29 93z"/>
<glyph glyph-name="cent" horiz-adv-x="389" unicode="¢" d="M-55 -188l9 51h28q34 0 50.5 8.5t27.5 25.5q27 46 50 101l-46 554h61l36 -447l200 447h59l-246 -545q-35 -81 -46 -101q-33 -60 -73 -83q-15 -7 -30.5 -10.5t-30.5 -3.5q-14 0 -26 1t-23 2zM133 738h40q0 -40 24.5 -60.5t66.5 -20.5q41 0 73 20.5t47 60.5h37 q-17 -61 -62.5 -93.5t-107.5 -32.5q-58 0 -88 33t-30 93z"/>
<glyph glyph-name="cent" horiz-adv-x="389" unicode="ў" d="M-55 -188l9 51h28q34 0 50.5 8.5t27.5 25.5q27 46 50 101l-46 554h61l36 -447l200 447h59l-246 -545q-35 -81 -46 -101q-33 -60 -73 -83q-15 -7 -30.5 -10.5t-30.5 -3.5q-14 0 -26 1t-23 2zM133 738h40q0 -40 24.5 -60.5t66.5 -20.5q41 0 73 20.5t47 60.5h37 q-17 -61 -62.5 -93.5t-107.5 -32.5q-58 0 -88 33t-30 93z"/>
<glyph glyph-name="sterling" horiz-adv-x="389" unicode="£" d="M1 219h65l-3 -16q-4 -21 -5 -31q-5 -30 -5 -52q0 -37 16 -58.5t57 -21.5q52 0 77 39q16 25 27 85l103 586h65l-104 -590q-15 -84 -55 -128q-46 -50 -129 -50q-65 0 -96 39q-27 34 -27 96v30q3 14 4 20z"/>
<glyph glyph-name="sterling" horiz-adv-x="389" unicode="Ј" d="M1 219h65l-3 -16q-4 -21 -5 -31q-5 -30 -5 -52q0 -37 16 -58.5t57 -21.5q52 0 77 39q16 25 27 85l103 586h65l-104 -590q-15 -84 -55 -128q-46 -50 -129 -50q-65 0 -96 39q-27 34 -27 96v30q3 14 4 20z"/>
<glyph glyph-name="currency" unicode="¤" d="M-31 104l46 38q-24 45 -24 93q0 21 4 40q8 40 23 71.5t44 64.5l-32 39l56 47l33 -38q66 44 146 44q67 0 124 -44l46 38l38 -47l-46 -39q12 -22 17.5 -44t5.5 -48v-23q-3 -17 -4 -25q-6 -37 -22 -66.5t-44 -62.5l32 -38l-55 -48l-32 39q-71 -45 -148 -45q-34 0 -65 11.5 t-57 33.5l-47 -39zM383 278q2 7 2 15v12q0 56 -36.5 94.5t-95.5 38.5q-69 0 -125.5 -46.5t-68.5 -116.5q-3 -14 -3 -28q0 -56 38 -94t97 -38q68 0 124 47t68 116z"/>
<glyph glyph-name="yen" unicode="¥" d="M431 750l19 108h65l-29 -166h-280l-122 -692h-65l132 750h280z"/>
<glyph glyph-name="yen" unicode="Ґ" d="M431 750l19 108h65l-29 -166h-280l-122 -692h-65l132 750h280z"/>
<glyph glyph-name="brokenbar" horiz-adv-x="222" unicode="¦" d="M35 0l53 300h52l-53 -300h-52zM167 750h52l-53 -300h-52z"/>
<glyph glyph-name="section" unicode="§" d="M310 378l-120 99q-38 -16 -65.5 -46t-34.5 -68q-2 -7 -2 -14.5v-10.5q0 -25 10.5 -42t34.5 -36l135 -109q36 15 63.5 44t33.5 64q2 16 2 23q0 30 -16 54q-11 17 -41 42zM228 103l-133 117q-29 25 -43.5 51.5t-14.5 60.5q0 18 2 28q9 48 43 85q27 29 79 59 q-18 25 -26.5 45.5t-8.5 45.5q0 14 3 34q11 61 67 104q29 22 52 28.5t60 6.5q64 0 97 -38t33 -100v-19q-2 -9 -2 -12h-55q0 7 0.5 15.5t0.5 10.5q0 44 -17 68q-21 30 -65 30q-92 0 -113 -87q-5 -21 -5 -26v-9q0 -47 50 -85l99 -76q47 -37 69 -78q18 -34 18 -71q0 -15 -3 -30 q-8 -44 -42 -82q-29 -33 -77 -59q35 -37 35 -92q0 -13 -3 -27q-12 -67 -61.5 -107.5t-118.5 -40.5q-64 0 -98 35t-34 94q0 22 4 41h54q-2 -8 -3 -18.5t-1 -18.5q0 -88 84 -88q48 0 81 31q29 27 36 66q2 16 2 23q0 26 -11.5 46t-33.5 39z"/>
<glyph glyph-name="dieresis" unicode="¨" d="M362 0h-345l132 750h340l-10 -58h-275l-48 -270h250l-10 -58h-250l-54 -306h280zM206 815l18 102h64l-18 -102h-64zM364 815l18 102h64l-18 -102h-64z"/>
<glyph glyph-name="dieresis" unicode="Ё" d="M362 0h-345l132 750h340l-10 -58h-275l-48 -270h250l-10 -58h-250l-54 -306h280zM206 815l18 102h64l-18 -102h-64zM364 815l18 102h64l-18 -102h-64z"/>
<glyph glyph-name="copyright" horiz-adv-x="800" unicode="©" d="M348 -18q-140 0 -230.5 92.5t-90.5 231.5q0 34 6 70q28 162 161.5 277.5t292.5 115.5q139 0 228.5 -92.5t89.5 -230.5q0 -34 -6 -70q-29 -164 -160.5 -279t-290.5 -115zM356 29q139 0 254.5 101t141.5 246q6 33 6 63q0 121 -78.5 201.5t-201.5 80.5q-139 0 -255.5 -101 t-141.5 -244q-6 -33 -6 -63q0 -123 78.5 -203.5t202.5 -80.5zM544 304h55q-20 -68 -78 -110t-126 -42q-82 0 -129 49t-47 130v19t4 29q18 100 85 163t164 63q69 0 111.5 -39.5t42.5 -108.5h-55q0 45 -29.5 73.5t-76.5 28.5q-73 0 -123 -51t-63 -128q-2 -10 -3 -19t-1 -21 q0 -60 33.5 -100.5t94.5 -40.5q46 0 86 29t55 76z"/>
<glyph glyph-name="ordfeminine" horiz-adv-x="556" unicode="ª" d="M487 254q-17 -108 -81 -184q-74 -88 -179 -88q-93 0 -134 63q-34 52 -34 147q0 46 8 105q5 41 16 99q17 98 41 164q34 94 86 145q65 63 157 63q83 0 127 -51q41 -47 41 -128q0 -15 -1 -25t-4 -30h-65q1 10 1.5 22t0.5 18q0 61 -23 95q-28 41 -89 41q-63 0 -109 -50 q-38 -42 -63 -114q-17 -49 -31 -124h236l-10 -58h-236q-8 -48 -13 -86t-5 -75q0 -74 24 -114q29 -49 96 -49q76 0 124 72q36 53 54 142h65z"/>
<glyph glyph-name="ordfeminine" horiz-adv-x="556" unicode="Є" d="M487 254q-17 -108 -81 -184q-74 -88 -179 -88q-93 0 -134 63q-34 52 -34 147q0 46 8 105q5 41 16 99q17 98 41 164q34 94 86 145q65 63 157 63q83 0 127 -51q41 -47 41 -128q0 -15 -1 -25t-4 -30h-65q1 10 1.5 22t0.5 18q0 61 -23 95q-28 41 -89 41q-63 0 -109 -50 q-38 -42 -63 -114q-17 -49 -31 -124h236l-10 -58h-236q-8 -48 -13 -86t-5 -75q0 -74 24 -114q29 -49 96 -49q76 0 124 72q36 53 54 142h65z"/>
<glyph glyph-name="guillemotleft" horiz-adv-x="500" unicode="«" d="M197 130l-122 106l12 70l160 106l-11 -60l-115 -81l87 -79zM384 130l-122 106l12 70l160 106l-11 -60l-116 -81l88 -79z"/>
<glyph glyph-name="logicalnot" unicode="¬" d="M34 360h403l-47 -267h-51l38 216h-352z"/>
<glyph glyph-name="minus" horiz-adv-x="333" unicode="­" d="M91 690h296l-8 -45h-296z"/>
<glyph glyph-name="registered" horiz-adv-x="800" unicode="®" d="M348 -18q-140 0 -230.5 92.5t-90.5 231.5q0 34 6 70q28 162 161.5 277.5t292.5 115.5q139 0 228.5 -92.5t89.5 -230.5q0 -34 -6 -70q-29 -164 -160.5 -279t-290.5 -115zM356 29q139 0 254.5 101t141.5 246q6 33 6 63q0 121 -78.5 201.5t-201.5 80.5q-139 0 -255.5 -101 t-141.5 -244q-6 -33 -6 -63q0 -123 78.5 -203.5t202.5 -80.5zM475 359l94 -203h-62l-87 203h-96l-35 -203h-52l77 440h186q42 0 63.5 -5.5t37.5 -16.5t24 -29.5t8 -41.5v-12q-2 -8 -2 -12q-11 -62 -52.5 -91t-103.5 -29zM332 401h80h31q57 0 84 11q43 18 52 68q2 12 2 18 q0 34 -32 48q-23 10 -68 10h-122z"/>
<glyph glyph-name="macron" horiz-adv-x="222" unicode="¯" d="M94 0h-65l132 750h65zM95 815l18 102h64l-18 -102h-64zM253 815l18 102h64l-18 -102h-64z"/>
<glyph glyph-name="macron" horiz-adv-x="222" unicode="Ї" d="M94 0h-65l132 750h65zM95 815l18 102h64l-18 -102h-64zM253 815l18 102h64l-18 -102h-64z"/>
<glyph glyph-name="degree" horiz-adv-x="400" unicode="°" d="M405 594q-11 -62 -63 -106t-114 -44q-55 0 -90 35t-35 88q0 18 2 27q10 62 61.5 106t114.5 44q55 0 90.5 -35.5t35.5 -89.5q0 -9 -2 -25zM365 594q1 6 1 18q0 39 -26.5 65.5t-66.5 26.5q-45 0 -83 -32t-45 -78q-2 -14 -2 -20q0 -39 25.5 -64.5t66.5 -25.5q45 0 83.5 32.5 t46.5 77.5z"/>
<glyph glyph-name="plusminus" unicode="±" d="M195 270h-176l9 51h176l29 169h51l-29 -169h176l-9 -51h-176l-30 -170h-51zM383 51l-9 -51h-403l9 51h403z"/>
<glyph glyph-name="twosuperior" horiz-adv-x="222" unicode="²" d="M94 0h-65l132 750h65z"/>
<glyph glyph-name="twosuperior" horiz-adv-x="222" unicode="І" d="M94 0h-65l132 750h65z"/>
<glyph glyph-name="threesuperior" horiz-adv-x="222" unicode="³" d="M90 0h-58l97 552h58zM210 655h-67l17 95h67z"/>
<glyph glyph-name="threesuperior" horiz-adv-x="222" unicode="і" d="M90 0h-58l97 552h58zM210 655h-67l17 95h67z"/>
<glyph glyph-name="acute" horiz-adv-x="360" unicode="´" d="M362 500h-201l-88 -500h-57l97 552h201l19 108h57z"/>
<glyph glyph-name="acute" horiz-adv-x="360" unicode="ґ" d="M362 500h-201l-88 -500h-57l97 552h201l19 108h57z"/>
<glyph glyph-name="mu" unicode="µ" d="M294 132l74 420h58l-97 -552h-56l9 51q-33 -34 -70 -49.5t-82 -15.5q-20 0 -35 6.5t-25 17.5l-35 -199h-58l130 741h58l-73 -418q-2 -9 -3 -17t-1 -17q0 -33 20 -48t64 -15q32 0 66.5 29t55.5 66z"/>
<glyph glyph-name="paragraph" horiz-adv-x="564" unicode="¶" d="M159 -116l85 482q-67 0 -106.5 43.5t-39.5 110.5q0 18 3 36q17 100 83 149q60 45 158 45h183l-152 -866h-58l140 799h-98l-140 -799h-58z"/>
<glyph glyph-name="cedilla" horiz-adv-x="389" unicode="¸" d="M361 335l-10 -56h-259q-7 -39 -12 -73t-5 -58q0 -52 15 -78q19 -33 64 -33q55 0 85 46q20 30 37 97h56q-15 -84 -58 -135q-50 -59 -130 -59q-70 0 -100 47q-25 39 -25 111q0 34 3.5 61.5t10.5 68.5q15 82 29 125q24 74 63 115q49 52 119 52q66 0 98 -46q27 -39 27 -106 q0 -37 -8 -79zM101 330h201q5 28 7 48.5t2 33.5q0 47 -15 72q-19 31 -62 31q-59 0 -96 -68q-23 -44 -37 -117zM143 617l18 102h64l-18 -102h-64zM301 617l18 102h64l-18 -102h-64z"/>
<glyph glyph-name="cedilla" horiz-adv-x="389" unicode="ё" d="M361 335l-10 -56h-259q-7 -39 -12 -73t-5 -58q0 -52 15 -78q19 -33 64 -33q55 0 85 46q20 30 37 97h56q-15 -84 -58 -135q-50 -59 -130 -59q-70 0 -100 47q-25 39 -25 111q0 34 3.5 61.5t10.5 68.5q15 82 29 125q24 74 63 115q49 52 119 52q66 0 98 -46q27 -39 27 -106 q0 -37 -8 -79zM101 330h201q5 28 7 48.5t2 33.5q0 47 -15 72q-19 31 -62 31q-59 0 -96 -68q-23 -44 -37 -117zM143 617l18 102h64l-18 -102h-64zM301 617l18 102h64l-18 -102h-64z"/>
<glyph glyph-name="ordmasculine" horiz-adv-x="389" unicode="º" d="M341 183q-14 -86 -56 -137q-49 -60 -131 -60q-74 0 -106 46q-26 38 -26 111q0 33 3.5 62.5t11.5 73.5q22 122 59 188q56 99 158 99q61 0 92 -37.5t31 -97.5q0 -23 -4 -42h-57q0 7 1 15.5t1 13.5q0 44 -19 70.5t-58 26.5q-61 0 -98 -68q-25 -46 -42 -133h171l-9 -51h-171 q-5 -33 -8.5 -57.5t-3.5 -52.5q0 -53 16 -81q20 -35 68 -35q53 0 83 49q18 29 36 97h58z"/>
<glyph glyph-name="ordmasculine" horiz-adv-x="389" unicode="є" d="M341 183q-14 -86 -56 -137q-49 -60 -131 -60q-74 0 -106 46q-26 38 -26 111q0 33 3.5 62.5t11.5 73.5q22 122 59 188q56 99 158 99q61 0 92 -37.5t31 -97.5q0 -23 -4 -42h-57q0 7 1 15.5t1 13.5q0 44 -19 70.5t-58 26.5q-61 0 -98 -68q-25 -46 -42 -133h171l-9 -51h-171 q-5 -33 -8.5 -57.5t-3.5 -52.5q0 -53 16 -81q20 -35 68 -35q53 0 83 49q18 29 36 97h58z"/>
<glyph glyph-name="guillemotright" horiz-adv-x="500" unicode="»" d="M288 352l11 60l122 -106l-12 -70l-160 -106l11 62l115 79zM112 412l122 -106l-12 -70l-160 -106l11 62l116 79l-88 81z"/>
<glyph glyph-name="onequarter" horiz-adv-x="222" unicode="¼" d="M-62 -189l9 54q16 0 24 1q10 3 14 3q23 7 33 32q5 13 10 45l107 606h58l-107 -608q-8 -45 -13 -59q-11 -31 -36 -52q-22 -13 -46 -17.5t-53 -4.5zM165 750h67l-16 -92h-67z"/>
<glyph glyph-name="onequarter" horiz-adv-x="222" unicode="ј" d="M-62 -189l9 54q16 0 24 1q10 3 14 3q23 7 33 32q5 13 10 45l107 606h58l-107 -608q-8 -45 -13 -59q-11 -31 -36 -52q-22 -13 -46 -17.5t-53 -4.5zM165 750h67l-16 -92h-67z"/>
<glyph glyph-name="onehalf" horiz-adv-x="500" unicode="½" d="M237 433l54 -24q85 -38 112 -62q46 -40 46 -108v-26q-3 -14 -4 -20q-17 -97 -85 -154t-167 -57q-85 0 -128.5 45.5t-43.5 123.5q0 29 6 61h64q-5 -30 -5 -51q0 -57 27.5 -89t88.5 -32q70 0 117.5 40.5t60.5 110.5q3 18 3 34q0 64 -65 98q-5 2 -76 32.5t-102 61.5 q-40 40 -40 102v25q3 12 4 17q16 93 78 150t153 57q75 0 118 -41t43 -111q0 -14 -1 -21.5t-4 -25.5h-63q5 23 5 39q0 47 -28.5 74.5t-80.5 27.5q-63 0 -103 -40t-51 -105q-4 -20 -4 -40q0 -33 16.5 -53.5t54.5 -38.5z"/>
<glyph glyph-name="onehalf" horiz-adv-x="500" unicode="Ѕ" d="M237 433l54 -24q85 -38 112 -62q46 -40 46 -108v-26q-3 -14 -4 -20q-17 -97 -85 -154t-167 -57q-85 0 -128.5 45.5t-43.5 123.5q0 29 6 61h64q-5 -30 -5 -51q0 -57 27.5 -89t88.5 -32q70 0 117.5 40.5t60.5 110.5q3 18 3 34q0 64 -65 98q-5 2 -76 32.5t-102 61.5 q-40 40 -40 102v25q3 12 4 17q16 93 78 150t153 57q75 0 118 -41t43 -111q0 -14 -1 -21.5t-4 -25.5h-63q5 23 5 39q0 47 -28.5 74.5t-80.5 27.5q-63 0 -103 -40t-51 -105q-4 -20 -4 -40q0 -33 16.5 -53.5t54.5 -38.5z"/>
<glyph glyph-name="threequarters" horiz-adv-x="389" unicode="¾" d="M66 407q0 74 46.5 116.5t123.5 42.5q126 0 126 -117q0 -15 -2 -24.5t-2 -13.5h-57q2 16 2 23q0 37 -20 59t-58 22q-41 0 -65.5 -22.5t-32.5 -65.5q-1 -5 -1 -15q0 -25 14 -41.5t39 -27.5q78 -38 105 -64q44 -41 44 -103q0 -15 -2 -24.5t-2 -13.5q-13 -73 -61.5 -112.5 t-121.5 -39.5q-68 0 -102.5 31t-34.5 90v17.5t4 25.5h59q-1 -8 -1 -22q0 -43 21 -67t67 -24q45 0 75 29t38 75q2 16 2 22q0 57 -102 111t-102 116q0 11 1 17z"/>
<glyph glyph-name="threequarters" horiz-adv-x="389" unicode="ѕ" d="M66 407q0 74 46.5 116.5t123.5 42.5q126 0 126 -117q0 -15 -2 -24.5t-2 -13.5h-57q2 16 2 23q0 37 -20 59t-58 22q-41 0 -65.5 -22.5t-32.5 -65.5q-1 -5 -1 -15q0 -25 14 -41.5t39 -27.5q78 -38 105 -64q44 -41 44 -103q0 -15 -2 -24.5t-2 -13.5q-13 -73 -61.5 -112.5 t-121.5 -39.5q-68 0 -102.5 31t-34.5 90v17.5t4 25.5h59q-1 -8 -1 -22q0 -43 21 -67t67 -24q45 0 75 29t38 75q2 16 2 22q0 57 -102 111t-102 116q0 11 1 17z"/>
<glyph glyph-name="questiondown" horiz-adv-x="200" unicode="¿" d="M79 0h-58l97 552h58zM49 617l18 102h64l-18 -102h-64zM207 617l18 102h64l-18 -102h-64z"/>
<glyph glyph-name="questiondown" horiz-adv-x="200" unicode="ї" d="M79 0h-58l97 552h58zM49 617l18 102h64l-18 -102h-64zM207 617l18 102h64l-18 -102h-64z"/>
<glyph glyph-name="Agrave" horiz-adv-x="500" unicode="À" d="M151 289h200l-32 379zM295 750h75l69 -750h-66l-18 231h-228l-102 -231h-63z"/>
<glyph glyph-name="Agrave" horiz-adv-x="500" unicode="А" d="M151 289h200l-32 379zM295 750h75l69 -750h-66l-18 231h-228l-102 -231h-63z"/>
<glyph glyph-name="Aacute" horiz-adv-x="500" unicode="Á" d="M148 364l-54 -306h57q104 0 152 26q64 34 81 131q4 23 4 45q0 57 -36 80.5t-107 23.5h-97zM496 750l-10 -58h-280l-48 -270h69q118 0 173 -31.5t55 -113.5q0 -13 -1 -27t-4 -29q-10 -59 -31.5 -99.5t-60 -68t-96.5 -42.5q-44 -11 -77 -11h-166l132 750h345z"/>
<glyph glyph-name="Aacute" horiz-adv-x="500" unicode="Б" d="M148 364l-54 -306h57q104 0 152 26q64 34 81 131q4 23 4 45q0 57 -36 80.5t-107 23.5h-97zM496 750l-10 -58h-280l-48 -270h69q118 0 173 -31.5t55 -113.5q0 -13 -1 -27t-4 -29q-10 -59 -31.5 -99.5t-60 -68t-96.5 -42.5q-44 -11 -77 -11h-166l132 750h345z"/>
<glyph glyph-name="Acircumflex" horiz-adv-x="500" unicode="Â" d="M209 364h-68l-54 -306h81q93 0 139 31q54 37 70 128q4 21 4 43q0 64 -50 87q-37 17 -122 17zM151 422h67q88 0 131 26q54 32 69 117q3 18 3 34q0 59 -47 79q-33 14 -114 14h-61zM115 0h-103l132 750h164q47 0 83.5 -8t59.5 -33q36 -37 36 -98v-26q-3 -13 -4 -18 q-10 -60 -41 -103q-34 -48 -91 -68q49 -14 72.5 -48t23.5 -84q0 -20 -5 -48q-23 -130 -115 -179q-70 -37 -212 -37z"/>
<glyph glyph-name="Acircumflex" horiz-adv-x="500" unicode="В" d="M209 364h-68l-54 -306h81q93 0 139 31q54 37 70 128q4 21 4 43q0 64 -50 87q-37 17 -122 17zM151 422h67q88 0 131 26q54 32 69 117q3 18 3 34q0 59 -47 79q-33 14 -114 14h-61zM115 0h-103l132 750h164q47 0 83.5 -8t59.5 -33q36 -37 36 -98v-26q-3 -13 -4 -18 q-10 -60 -41 -103q-34 -48 -91 -68q49 -14 72.5 -48t23.5 -84q0 -20 -5 -48q-23 -130 -115 -179q-70 -37 -212 -37z"/>
<glyph glyph-name="Atilde" unicode="Ã" d="M84 0h-65l132 750h345l-10 -58h-280z"/>
<glyph glyph-name="Atilde" unicode="Г" d="M84 0h-65l132 750h345l-10 -58h-280z"/>
<glyph glyph-name="Adieresis" horiz-adv-x="556" unicode="Ä" d="M22 58q31 19 51 71t36 141l84 480h377l-122 -692h47l-29 -166h-65l19 108h-388l-19 -108h-65l29 166h45zM383 58l112 634h-247l-76 -432q-12 -69 -26 -111q-19 -57 -48 -91h285z"/>
<glyph glyph-name="Adieresis" horiz-adv-x="556" unicode="Д" d="M22 58q31 19 51 71t36 141l84 480h377l-122 -692h47l-29 -166h-65l19 108h-388l-19 -108h-65l29 166h45zM383 58l112 634h-247l-76 -432q-12 -69 -26 -111q-19 -57 -48 -91h285z"/>
<glyph glyph-name="Aring" unicode="Å" d="M362 0h-345l132 750h340l-10 -58h-275l-48 -270h250l-10 -58h-250l-54 -306h280z"/>
<glyph glyph-name="Aring" unicode="Е" d="M362 0h-345l132 750h340l-10 -58h-275l-48 -270h250l-10 -58h-250l-54 -306h280z"/>
<glyph glyph-name="AE" horiz-adv-x="795" unicode="Æ" d="M512 750l-66 -375l339 375h75l-275 -303l154 -447h-70l-136 394l-103 -110l-50 -284h-65l50 284l-65 110l-274 -394h-70l312 447l-169 303h75l207 -375l66 375h65z"/>
<glyph glyph-name="AE" horiz-adv-x="795" unicode="Ж" d="M512 750l-66 -375l339 375h75l-275 -303l154 -447h-70l-136 394l-103 -110l-50 -284h-65l50 284l-65 110l-274 -394h-70l312 447l-169 303h75l207 -375l66 375h65z"/>
<glyph glyph-name="Ccedilla" horiz-adv-x="500" unicode="Ç" d="M239 364h-47l10 55h21q81 0 134 39.5t66 115.5q3 15 3 31q0 47 -26 77.5t-78 30.5q-60 0 -104 -50q-36 -41 -52 -102h-62q14 84 72 143q63 64 149 64q80 0 124.5 -43.5t44.5 -115.5q0 -16 -2 -25.5t-2 -14.5q-7 -43 -31 -81q-40 -63 -114 -91q55 -21 81 -63 q23 -37 23 -88q0 -8 -0.5 -18t-3.5 -27q-18 -104 -86.5 -160.5t-163.5 -56.5q-81 0 -125 33q-53 40 -53 122q0 27 6 60h65q-3 -20 -3 -37q0 -55 27 -87q31 -36 91 -36q68 0 118 51q45 46 57 113q2 16 2 27q0 55 -28 89q-37 45 -113 45z"/>
<glyph glyph-name="Ccedilla" horiz-adv-x="500" unicode="З" d="M239 364h-47l10 55h21q81 0 134 39.5t66 115.5q3 15 3 31q0 47 -26 77.5t-78 30.5q-60 0 -104 -50q-36 -41 -52 -102h-62q14 84 72 143q63 64 149 64q80 0 124.5 -43.5t44.5 -115.5q0 -16 -2 -25.5t-2 -14.5q-7 -43 -31 -81q-40 -63 -114 -91q55 -21 81 -63 q23 -37 23 -88q0 -8 -0.5 -18t-3.5 -27q-18 -104 -86.5 -160.5t-163.5 -56.5q-81 0 -125 33q-53 40 -53 122q0 27 6 60h65q-3 -20 -3 -37q0 -55 27 -87q31 -36 91 -36q68 0 118 51q45 46 57 113q2 16 2 27q0 55 -28 89q-37 45 -113 45z"/>
<glyph glyph-name="Egrave" horiz-adv-x="556" unicode="È" d="M491 750h81l-132 -750h-65l113 642l-393 -642h-79l132 750h65l-113 -644z"/>
<glyph glyph-name="Egrave" horiz-adv-x="556" unicode="И" d="M491 750h81l-132 -750h-65l113 642l-393 -642h-79l132 750h65l-113 -644z"/>
<glyph glyph-name="Eacute" horiz-adv-x="556" unicode="É" d="M491 750h81l-132 -750h-65l113 642l-393 -642h-79l132 750h65l-113 -644zM248 917h40q0 -40 24 -60.5t66 -20.5q41 0 73.5 21t47.5 60h37q-17 -61 -62.5 -93.5t-108.5 -32.5q-59 0 -88 33t-29 93z"/>
<glyph glyph-name="Eacute" horiz-adv-x="556" unicode="Й" d="M491 750h81l-132 -750h-65l113 642l-393 -642h-79l132 750h65l-113 -644zM248 917h40q0 -40 24 -60.5t66 -20.5q41 0 73.5 21t47.5 60h37q-17 -61 -62.5 -93.5t-108.5 -32.5q-59 0 -88 33t-29 93z"/>
<glyph glyph-name="Ecircumflex" horiz-adv-x="500" unicode="Ê" d="M82 0h-65l132 750h65l-66 -375l339 375h75l-275 -303l154 -447h-70l-136 394l-103 -110z"/>
<glyph glyph-name="Ecircumflex" horiz-adv-x="500" unicode="К" d="M82 0h-65l132 750h65l-66 -375l339 375h75l-275 -303l154 -447h-70l-136 394l-103 -110z"/>
<glyph glyph-name="Edieresis" horiz-adv-x="556" unicode="Ë" d="M248 692l-76 -432q-31 -176 -75 -227t-122 -51l11 64q67 0 94 89q11 38 29 135l84 480h377l-132 -750h-65l122 692h-247z"/>
<glyph glyph-name="Edieresis" horiz-adv-x="556" unicode="Л" d="M248 692l-76 -432q-31 -176 -75 -227t-122 -51l11 64q67 0 94 89q11 38 29 135l84 480h377l-132 -750h-65l122 692h-247z"/>
<glyph glyph-name="Igrave" horiz-adv-x="722" unicode="Ì" d="M88 0h-65l132 750h109l63 -654l299 654h106l-132 -750h-65l121 685l-309 -685h-69l-67 685z"/>
<glyph glyph-name="Igrave" horiz-adv-x="722" unicode="М" d="M88 0h-65l132 750h109l63 -654l299 654h106l-132 -750h-65l121 685l-309 -685h-69l-67 685z"/>
<glyph glyph-name="Iacute" horiz-adv-x="556" unicode="Í" d="M83 0h-65l132 750h65l-56 -319h290l56 319h65l-132 -750h-65l66 373h-290z"/>
<glyph glyph-name="Iacute" horiz-adv-x="556" unicode="Н" d="M83 0h-65l132 750h65l-56 -319h290l56 319h65l-132 -750h-65l66 373h-290z"/>
<glyph glyph-name="Icircumflex" horiz-adv-x="556" unicode="Î" d="M223 -18q-94 0 -135 63q-34 52 -34 148q0 45 7 96.5t17 106.5q17 99 41 164q34 94 87 145q65 63 157 63q96 0 138 -62q35 -51 35 -146q0 -43 -7 -93.5t-17 -107.5q-19 -108 -40 -170q-33 -96 -86 -146q-64 -61 -163 -61zM239 40q101 0 157 127q29 66 54 207q6 33 12.5 82 t6.5 85q0 78 -23 118q-29 51 -96 51q-97 0 -154 -124q-32 -71 -56 -205q-9 -55 -13 -83q-8 -59 -8 -94q0 -75 24 -115q29 -49 96 -49z"/>
<glyph glyph-name="Icircumflex" horiz-adv-x="556" unicode="О" d="M223 -18q-94 0 -135 63q-34 52 -34 148q0 45 7 96.5t17 106.5q17 99 41 164q34 94 87 145q65 63 157 63q96 0 138 -62q35 -51 35 -146q0 -43 -7 -93.5t-17 -107.5q-19 -108 -40 -170q-33 -96 -86 -146q-64 -61 -163 -61zM239 40q101 0 157 127q29 66 54 207q6 33 12.5 82 t6.5 85q0 78 -23 118q-29 51 -96 51q-97 0 -154 -124q-32 -71 -56 -205q-9 -55 -13 -83q-8 -59 -8 -94q0 -75 24 -115q29 -49 96 -49z"/>
<glyph glyph-name="Idieresis" horiz-adv-x="556" unicode="Ï" d="M83 0h-65l132 750h420l-132 -750h-65l122 692h-290z"/>
<glyph glyph-name="Idieresis" horiz-adv-x="556" unicode="П" d="M83 0h-65l132 750h420l-132 -750h-65l122 692h-290z"/>
<glyph glyph-name="Eth" horiz-adv-x="500" unicode="Ð" d="M91 0h-65l132 750h133q116 0 167 -29q57 -33 57 -112q0 -12 -1 -26t-4 -29q-10 -55 -31.5 -95.5t-58 -67.5t-94.5 -41q-45 -11 -76 -11h-99zM213 692l-52 -295h56q101 0 148 25q62 33 79 126q2 10 3 22t1 22q0 55 -35 77.5t-105 22.5h-95z"/>
<glyph glyph-name="Eth" horiz-adv-x="500" unicode="Р" d="M91 0h-65l132 750h133q116 0 167 -29q57 -33 57 -112q0 -12 -1 -26t-4 -29q-10 -55 -31.5 -95.5t-58 -67.5t-94.5 -41q-45 -11 -76 -11h-99zM213 692l-52 -295h56q101 0 148 25q62 33 79 126q2 10 3 22t1 22q0 55 -35 77.5t-105 22.5h-95z"/>
<glyph glyph-name="Ntilde" horiz-adv-x="556" unicode="Ñ" d="M422 254h65q-17 -108 -81 -184q-74 -88 -179 -88q-93 0 -134 63q-34 52 -34 147q0 46 8 105q5 41 16 99q17 98 41 164q34 94 86 145q65 63 157 63q83 0 127 -51q41 -47 41 -128q0 -15 -1 -25t-4 -30h-65q1 10 1.5 22t0.5 18q0 61 -23 95q-28 41 -89 41q-80 0 -131 -77 q-47 -70 -79 -252q-9 -55 -13 -83q-8 -59 -8 -94q0 -75 24 -115q29 -49 96 -49q76 0 124 72q36 53 54 142z"/>
<glyph glyph-name="Ntilde" horiz-adv-x="556" unicode="С" d="M422 254h65q-17 -108 -81 -184q-74 -88 -179 -88q-93 0 -134 63q-34 52 -34 147q0 46 8 105q5 41 16 99q17 98 41 164q34 94 86 145q65 63 157 63q83 0 127 -51q41 -47 41 -128q0 -15 -1 -25t-4 -30h-65q1 10 1.5 22t0.5 18q0 61 -23 95q-28 41 -89 41q-80 0 -131 -77 q-47 -70 -79 -252q-9 -55 -13 -83q-8 -59 -8 -94q0 -75 24 -115q29 -49 96 -49q76 0 124 72q36 53 54 142z"/>
<glyph glyph-name="Ograve" unicode="Ò" d="M262 692h-170l10 58h405l-10 -58h-170l-122 -692h-65z"/>
<glyph glyph-name="Ograve" unicode="Т" d="M262 692h-170l10 58h405l-10 -58h-170l-122 -692h-65z"/>
<glyph glyph-name="Oacute" horiz-adv-x="500" unicode="Ó" d="M226 193l-135 557h72l107 -473l236 473h68l-324 -629q-43 -85 -81 -114q-32 -25 -75 -25l-49 3l11 61l37 -2q23 0 41 12q22 15 43 52z"/>
<glyph glyph-name="Oacute" horiz-adv-x="500" unicode="У" d="M226 193l-135 557h72l107 -473l236 473h68l-324 -629q-43 -85 -81 -114q-32 -25 -75 -25l-49 3l11 61l37 -2q23 0 41 12q22 15 43 52z"/>
<glyph glyph-name="Ocircumflex" horiz-adv-x="722" unicode="Ô" d="M380 573h-62q-76 0 -129.5 -53.5t-68.5 -140.5q-4 -23 -4 -48q0 -75 46 -114t125 -39h23zM445 573l-70 -395h23q91 0 154 50q68 53 85 151q4 25 4.5 34.5t0.5 15.5q0 66 -35 105t-100 39h-62zM476 750l-21 -120h35q108 0 163.5 -48.5t55.5 -137.5q0 -28 -6 -60 q-21 -119 -106 -194q-81 -71 -181 -71h-51l-21 -119h-65l21 119h-51q-86 0 -142 56t-56 152q0 13 1 27.5t4 29.5q21 117 97 181.5t202 64.5h35l21 120h65z"/>
<glyph glyph-name="Ocircumflex" horiz-adv-x="722" unicode="Ф" d="M380 573h-62q-76 0 -129.5 -53.5t-68.5 -140.5q-4 -23 -4 -48q0 -75 46 -114t125 -39h23zM445 573l-70 -395h23q91 0 154 50q68 53 85 151q4 25 4.5 34.5t0.5 15.5q0 66 -35 105t-100 39h-62zM476 750l-21 -120h35q108 0 163.5 -48.5t55.5 -137.5q0 -28 -6 -60 q-21 -119 -106 -194q-81 -71 -181 -71h-51l-21 -119h-65l21 119h-51q-86 0 -142 56t-56 152q0 13 1 27.5t4 29.5q21 117 97 181.5t202 64.5h35l21 120h65z"/>
<glyph glyph-name="Otilde" horiz-adv-x="500" unicode="Õ" d="M229 387l-120 363h73l96 -301l206 301h72l-250 -363l126 -387h-71l-105 326l-218 -326h-70z"/>
<glyph glyph-name="Otilde" horiz-adv-x="500" unicode="Х" d="M229 387l-120 363h73l96 -301l206 301h72l-250 -363l126 -387h-71l-105 326l-218 -326h-70z"/>
<glyph glyph-name="Odieresis" horiz-adv-x="556" unicode="Ö" d="M420 0h-402l132 750h65l-122 -692h290l122 692h65l-122 -692h47l-29 -166h-65z"/>
<glyph glyph-name="Odieresis" horiz-adv-x="556" unicode="Ц" d="M420 0h-402l132 750h65l-122 -692h290l122 692h65l-122 -692h47l-29 -166h-65z"/>
<glyph glyph-name="multiply" horiz-adv-x="518" unicode="×" d="M402 0h-65l66 373q-69 -37 -116 -50q-37 -10 -84 -10q-53 0 -87 35t-34 91q0 15 3 32l49 279h65l-46 -263q-3 -18 -3 -32q0 -78 85 -78q46 0 92 14.5t86 39.5l56 319h65z"/>
<glyph glyph-name="multiply" horiz-adv-x="518" unicode="Ч" d="M402 0h-65l66 373q-69 -37 -116 -50q-37 -10 -84 -10q-53 0 -87 35t-34 91q0 15 3 32l49 279h65l-46 -263q-3 -18 -3 -32q0 -78 85 -78q46 0 92 14.5t86 39.5l56 319h65z"/>
<glyph glyph-name="Oslash" horiz-adv-x="722" unicode="Ø" d="M18 0l132 750h65l-122 -692h195l122 692h65l-122 -692h195l122 692h65l-133 -750h-584z"/>
<glyph glyph-name="Oslash" horiz-adv-x="722" unicode="Ш" d="M18 0l132 750h65l-122 -692h195l122 692h65l-122 -692h195l122 692h65l-133 -750h-584z"/>
<glyph glyph-name="Ugrave" horiz-adv-x="722" unicode="Ù" d="M585 0h-567l132 750h65l-122 -692h195l122 692h65l-122 -692h195l122 692h65l-122 -692h47l-29 -166h-65z"/>
<glyph glyph-name="Ugrave" horiz-adv-x="722" unicode="Щ" d="M585 0h-567l132 750h65l-122 -692h195l122 692h65l-122 -692h195l122 692h65l-122 -692h47l-29 -166h-65z"/>
<glyph glyph-name="Uacute" horiz-adv-x="556" unicode="Ú" d="M204 364l-54 -306h57q104 0 152 26q64 34 81 131q4 23 4 45q0 57 -36 80.5t-107 23.5h-97zM197 692h-105l10 58h170l-58 -328h69q118 0 173 -31.5t55 -113.5q0 -13 -1 -27t-4 -29q-10 -59 -31.5 -99.5t-60 -68t-96.5 -42.5q-44 -11 -77 -11h-166z"/>
<glyph glyph-name="Uacute" horiz-adv-x="556" unicode="Ъ" d="M204 364l-54 -306h57q104 0 152 26q64 34 81 131q4 23 4 45q0 57 -36 80.5t-107 23.5h-97zM197 692h-105l10 58h170l-58 -328h69q118 0 173 -31.5t55 -113.5q0 -13 -1 -27t-4 -29q-10 -59 -31.5 -99.5t-60 -68t-96.5 -42.5q-44 -11 -77 -11h-166z"/>
<glyph glyph-name="Ucircumflex" horiz-adv-x="685" unicode="Û" d="M19 0l132 750h65l-58 -328h69q118 0 173 -31.5t55 -113.5q0 -13 -1 -27t-4 -29q-10 -59 -31.5 -99.5t-60 -68t-96.5 -42.5q-44 -11 -77 -11h-166zM148 364l-54 -306h57q104 0 152 26q64 34 81 131q4 23 4 45q0 57 -36 80.5t-107 23.5h-97zM567 0h-65l132 750h65z"/>
<glyph glyph-name="Ucircumflex" horiz-adv-x="685" unicode="Ы" d="M19 0l132 750h65l-58 -328h69q118 0 173 -31.5t55 -113.5q0 -13 -1 -27t-4 -29q-10 -59 -31.5 -99.5t-60 -68t-96.5 -42.5q-44 -11 -77 -11h-166zM148 364l-54 -306h57q104 0 152 26q64 34 81 131q4 23 4 45q0 57 -36 80.5t-107 23.5h-97zM567 0h-65l132 750h65z"/>
<glyph glyph-name="Udieresis" horiz-adv-x="500" unicode="Ü" d="M19 0l132 750h65l-58 -328h69q118 0 173 -31.5t55 -113.5q0 -13 -1 -27t-4 -29q-10 -59 -31.5 -99.5t-60 -68t-96.5 -42.5q-44 -11 -77 -11h-166zM148 364l-54 -306h57q104 0 152 26q64 34 81 131q4 23 4 45q0 57 -36 80.5t-107 23.5h-97z"/>
<glyph glyph-name="Udieresis" horiz-adv-x="500" unicode="Ь" d="M19 0l132 750h65l-58 -328h69q118 0 173 -31.5t55 -113.5q0 -13 -1 -27t-4 -29q-10 -59 -31.5 -99.5t-60 -68t-96.5 -42.5q-44 -11 -77 -11h-166zM148 364l-54 -306h57q104 0 152 26q64 34 81 131q4 23 4 45q0 57 -36 80.5t-107 23.5h-97z"/>
<glyph glyph-name="Yacute" horiz-adv-x="556" unicode="Ý" d="M452 422q5 29 9 62.5t4 65.5q0 73 -22 111q-28 49 -92 49q-69 0 -115 -54q-38 -45 -57 -122h-65q19 101 81 165q67 69 164 69q95 0 136 -65q34 -54 34 -152q0 -35 -4.5 -73t-11.5 -82q-21 -119 -39 -178q-33 -106 -85 -164q-66 -72 -166 -72q-86 0 -131 61 q-40 54 -40 140q0 39 7 71h65q-5 -37 -5 -69q0 -66 21 -101q26 -44 86 -44q72 0 121 57q40 47 65 129q14 45 30 138h-236l10 58h236z"/>
<glyph glyph-name="Yacute" horiz-adv-x="556" unicode="Э" d="M452 422q5 29 9 62.5t4 65.5q0 73 -22 111q-28 49 -92 49q-69 0 -115 -54q-38 -45 -57 -122h-65q19 101 81 165q67 69 164 69q95 0 136 -65q34 -54 34 -152q0 -35 -4.5 -73t-11.5 -82q-21 -119 -39 -178q-33 -106 -85 -164q-66 -72 -166 -72q-86 0 -131 61 q-40 54 -40 140q0 39 7 71h65q-5 -37 -5 -69q0 -66 21 -101q26 -44 86 -44q72 0 121 57q40 47 65 129q14 45 30 138h-236l10 58h236z"/>
<glyph glyph-name="Thorn" horiz-adv-x="722" unicode="Þ" d="M406 40q101 0 157 127q29 66 54 207q6 33 12.5 82t6.5 85q0 78 -23 118q-29 51 -96 51q-97 0 -154 -124q-32 -71 -56 -205q-9 -55 -13 -83q-8 -59 -8 -94q0 -75 24 -115q29 -49 96 -49zM241 373h-92l-66 -373h-65l132 750h65l-56 -319h92q38 189 117 270q65 67 162 67 q96 0 138 -62q35 -51 35 -146q0 -43 -7 -93.5t-17 -107.5q-19 -108 -40 -170q-33 -96 -86 -146q-64 -61 -163 -61q-93 0 -134 63q-34 52 -34 148q0 41 5 82t14 98z"/>
<glyph glyph-name="Thorn" horiz-adv-x="722" unicode="Ю" d="M406 40q101 0 157 127q29 66 54 207q6 33 12.5 82t6.5 85q0 78 -23 118q-29 51 -96 51q-97 0 -154 -124q-32 -71 -56 -205q-9 -55 -13 -83q-8 -59 -8 -94q0 -75 24 -115q29 -49 96 -49zM241 373h-92l-66 -373h-65l132 750h65l-56 -319h92q38 189 117 270q65 67 162 67 q96 0 138 -62q35 -51 35 -146q0 -43 -7 -93.5t-17 -107.5q-19 -108 -40 -170q-33 -96 -86 -146q-64 -61 -163 -61q-93 0 -134 63q-34 52 -34 148q0 41 5 82t14 98z"/>
<glyph glyph-name="germandbls" horiz-adv-x="500" unicode="ß" d="M317 353q-100 0 -136.5 -26.5t-49.5 -80.5q-18 -78 -35 -155q-16 -56 -38 -91h-71l2 9q25 12 45 88q18 82 22 100q15 80 38 118q31 50 94 65q-42 10 -62.5 47.5t-20.5 86.5q0 11 0.5 18t3.5 26q19 107 91 153q61 39 174 39h145l-132 -750h-65l62 353h-67zM444 692h-94 q-81 0 -119 -28q-43 -32 -57 -111q-3 -21 -3 -37q0 -49 30 -77t79 -28h114z"/>
<glyph glyph-name="germandbls" horiz-adv-x="500" unicode="Я" d="M317 353q-100 0 -136.5 -26.5t-49.5 -80.5q-18 -78 -35 -155q-16 -56 -38 -91h-71l2 9q25 12 45 88q18 82 22 100q15 80 38 118q31 50 94 65q-42 10 -62.5 47.5t-20.5 86.5q0 11 0.5 18t3.5 26q19 107 91 153q61 39 174 39h145l-132 -750h-65l62 353h-67zM444 692h-94 q-81 0 -119 -28q-43 -32 -57 -111q-3 -21 -3 -37q0 -49 30 -77t79 -28h114z"/>
<glyph glyph-name="agrave" horiz-adv-x="389" unicode="à" d="M256 201l18 97q-30 -15 -78 -33q-17 -6 -46 -18q-48 -19 -66 -41.5t-27 -72.5q-3 -17 -3 -31q0 -31 15 -48t49 -17q27 0 49.5 11t41 32t31.5 57q10 26 16 64zM120 413h-56q11 73 56 113t118 40q38 0 65 -9.5t41 -32.5q8 -12 11 -25t3 -30q0 -11 -2 -25.5t-4 -27.5 l-59 -339q-2 -16 -2 -19q0 -12 7 -15t28 -3l-7 -42q-9 -4 -17.5 -5t-19.5 -1q-14 0 -28 3q-15 6 -18.5 14.5t-3.5 26.5v9q-26 -29 -61.5 -44t-71.5 -15q-56 0 -79.5 26.5t-23.5 75.5q0 22 5 54q9 51 32 85.5t69 56.5q20 9 101 38q34 12 61 24q6 2 12 9.5t7 12.5q6 16 10 45 t4 47q0 27 -16 41t-53 14q-54 0 -78 -32q-11 -14 -30 -70z"/>
<glyph glyph-name="agrave" horiz-adv-x="389" unicode="а" d="M256 201l18 97q-30 -15 -78 -33q-17 -6 -46 -18q-48 -19 -66 -41.5t-27 -72.5q-3 -17 -3 -31q0 -31 15 -48t49 -17q27 0 49.5 11t41 32t31.5 57q10 26 16 64zM120 413h-56q11 73 56 113t118 40q38 0 65 -9.5t41 -32.5q8 -12 11 -25t3 -30q0 -11 -2 -25.5t-4 -27.5 l-59 -339q-2 -16 -2 -19q0 -12 7 -15t28 -3l-7 -42q-9 -4 -17.5 -5t-19.5 -1q-14 0 -28 3q-15 6 -18.5 14.5t-3.5 26.5v9q-26 -29 -61.5 -44t-71.5 -15q-56 0 -79.5 26.5t-23.5 75.5q0 22 5 54q9 51 32 85.5t69 56.5q20 9 101 38q34 12 61 24q6 2 12 9.5t7 12.5q6 16 10 45 t4 47q0 27 -16 41t-53 14q-54 0 -78 -32q-11 -14 -30 -70z"/>
<glyph glyph-name="aacute" unicode="á" d="M177 37q76 0 118 89q24 50 42 151q7 37 10 62t3 54q0 56 -18 85q-23 37 -74 37q-68 0 -109 -85q-26 -53 -39.5 -132t-14.5 -88q-4 -31 -4 -54q0 -54 17 -83q21 -36 69 -36zM295 717q63 13 88.5 24.5t29.5 33.5h47q-9 -49 -42 -72.5t-108.5 -40.5t-116.5 -66 q-28 -34 -49 -95q24 29 58 47t72 18q74 0 106 -51q27 -42 27 -118q0 -32 -3 -59t-9 -60q-22 -127 -61 -193q-58 -99 -165 -99q-75 0 -107 44q-28 38 -28 113q0 47 9 107q2 15 12 69q19 109 42 178q30 92 73 144q50 61 125 76z"/>
<glyph glyph-name="aacute" unicode="б" d="M177 37q76 0 118 89q24 50 42 151q7 37 10 62t3 54q0 56 -18 85q-23 37 -74 37q-68 0 -109 -85q-26 -53 -39.5 -132t-14.5 -88q-4 -31 -4 -54q0 -54 17 -83q21 -36 69 -36zM295 717q63 13 88.5 24.5t29.5 33.5h47q-9 -49 -42 -72.5t-108.5 -40.5t-116.5 -66 q-28 -34 -49 -95q24 29 58 47t72 18q74 0 106 -51q27 -42 27 -118q0 -32 -3 -59t-9 -60q-22 -127 -61 -193q-58 -99 -165 -99q-75 0 -107 44q-28 38 -28 113q0 47 9 107q2 15 12 69q19 109 42 178q30 92 73 144q50 61 125 76z"/>
<glyph glyph-name="acircumflex" horiz-adv-x="402" unicode="â" d="M147 263h-33l-37 -211h43q71 0 103 19q40 24 52 91q3 17 3 30q0 46 -38 61q-26 10 -93 10zM123 314h32q68 0 98 16q39 21 50 83q2 9 2 24q0 42 -36 55q-23 8 -85 8h-28zM87 0h-77l97 552h123q35 0 62.5 -6t44.5 -24q14 -14 21 -34t7 -41q0 -15 -3 -30q-8 -44 -32 -77.5 t-67 -48.5q37 -10 54.5 -35.5t17.5 -63.5q0 -15 -3 -33q-17 -96 -86 -132q-52 -27 -159 -27z"/>
<glyph glyph-name="acircumflex" horiz-adv-x="402" unicode="в" d="M147 263h-33l-37 -211h43q71 0 103 19q40 24 52 91q3 17 3 30q0 46 -38 61q-26 10 -93 10zM123 314h32q68 0 98 16q39 21 50 83q2 9 2 24q0 42 -36 55q-23 8 -85 8h-28zM87 0h-77l97 552h123q35 0 62.5 -6t44.5 -24q14 -14 21 -34t7 -41q0 -15 -3 -30q-8 -44 -32 -77.5 t-67 -48.5q37 -10 54.5 -35.5t17.5 -63.5q0 -15 -3 -33q-17 -96 -86 -132q-52 -27 -159 -27z"/>
<glyph glyph-name="atilde" horiz-adv-x="360" unicode="ã" d="M73 0h-57l97 552h258l-9 -52h-201z"/>
<glyph glyph-name="atilde" horiz-adv-x="360" unicode="г" d="M73 0h-57l97 552h258l-9 -52h-201z"/>
<glyph glyph-name="adieresis" unicode="ä" d="M19 52q24 14 37.5 47.5t25.5 99.5l62 353h282l-88 -500h35l-28 -160h-57l19 108h-273l-19 -108h-57l28 160h33zM280 52l79 448h-166l-54 -309q-9 -49 -19 -77q-13 -36 -35 -62h195z"/>
<glyph glyph-name="adieresis" unicode="д" d="M19 52q24 14 37.5 47.5t25.5 99.5l62 353h282l-88 -500h35l-28 -160h-57l19 108h-273l-19 -108h-57l28 160h33zM280 52l79 448h-166l-54 -309q-9 -49 -19 -77q-13 -36 -35 -62h195z"/>
<glyph glyph-name="aring" horiz-adv-x="389" unicode="å" d="M361 335l-10 -56h-259q-7 -39 -12 -73t-5 -58q0 -52 15 -78q19 -33 64 -33q55 0 85 46q20 30 37 97h56q-15 -84 -58 -135q-50 -59 -130 -59q-70 0 -100 47q-25 39 -25 111q0 34 3.5 61.5t10.5 68.5q15 82 29 125q24 74 63 115q49 52 119 52q66 0 98 -46q27 -39 27 -106 q0 -37 -8 -79zM101 330h201q5 28 7 48.5t2 33.5q0 47 -15 72q-19 31 -62 31q-59 0 -96 -68q-23 -44 -37 -117z"/>
<glyph glyph-name="aring" horiz-adv-x="389" unicode="е" d="M361 335l-10 -56h-259q-7 -39 -12 -73t-5 -58q0 -52 15 -78q19 -33 64 -33q55 0 85 46q20 30 37 97h56q-15 -84 -58 -135q-50 -59 -130 -59q-70 0 -100 47q-25 39 -25 111q0 34 3.5 61.5t10.5 68.5q15 82 29 125q24 74 63 115q49 52 119 52q66 0 98 -46q27 -39 27 -106 q0 -37 -8 -79zM101 330h201q5 28 7 48.5t2 33.5q0 47 -15 72q-19 31 -62 31q-59 0 -96 -68q-23 -44 -37 -117z"/>
<glyph glyph-name="ae" horiz-adv-x="593" unicode="æ" d="M373 552l-46 -260l225 260h73l-186 -206l92 -346h-61l-82 287l-76 -85l-36 -202h-58l36 202l-46 85l-184 -287h-61l214 346l-114 206h73l133 -260l46 260h58z"/>
<glyph glyph-name="ae" horiz-adv-x="593" unicode="ж" d="M373 552l-46 -260l225 260h73l-186 -206l92 -346h-61l-82 287l-76 -85l-36 -202h-58l36 202l-46 85l-184 -287h-61l214 346l-114 206h73l133 -260l46 260h58z"/>
<glyph glyph-name="ccedilla" horiz-adv-x="389" unicode="ç" d="M170 263h-35l9 49h16q120 0 139 107q2 14 2 20q0 32 -18 54.5t-52 22.5q-43 0 -72 -32q-25 -28 -33 -71h-56q10 62 53 105q47 47 113 47q59 0 92 -33t33 -86q0 -15 -3 -30q-6 -31 -23 -58q-29 -45 -85 -66q42 -15 62 -46q17 -26 17 -64q0 -15 -3 -32 q-13 -77 -64.5 -119.5t-121.5 -42.5q-32 0 -46 3q-88 19 -88 111v17t4 27h58q-3 -15 -3 -29q0 -37 20 -58t62 -21q49 0 80 32t40 81q2 14 2 23q0 37 -19 60q-24 29 -80 29z"/>
<glyph glyph-name="ccedilla" horiz-adv-x="389" unicode="з" d="M170 263h-35l9 49h16q120 0 139 107q2 14 2 20q0 32 -18 54.5t-52 22.5q-43 0 -72 -32q-25 -28 -33 -71h-56q10 62 53 105q47 47 113 47q59 0 92 -33t33 -86q0 -15 -3 -30q-6 -31 -23 -58q-29 -45 -85 -66q42 -15 62 -46q17 -26 17 -64q0 -15 -3 -32 q-13 -77 -64.5 -119.5t-121.5 -42.5q-32 0 -46 3q-88 19 -88 111v17t4 27h58q-3 -15 -3 -29q0 -37 20 -58t62 -21q49 0 80 32t40 81q2 14 2 23q0 37 -19 60q-24 29 -80 29z"/>
<glyph glyph-name="egrave" unicode="è" d="M354 552h74l-97 -552h-58l80 454l-268 -454h-72l97 552h58l-80 -455z"/>
<glyph glyph-name="egrave" unicode="и" d="M354 552h74l-97 -552h-58l80 454l-268 -454h-72l97 552h58l-80 -455z"/>
<glyph glyph-name="eacute" unicode="é" d="M159 738h40q0 -40 24.5 -60.5t66.5 -20.5q41 0 73 20.5t47 60.5h37q-17 -61 -62.5 -93.5t-107.5 -32.5q-58 0 -88 33t-30 93zM354 552h74l-97 -552h-58l80 454l-268 -454h-72l97 552h58l-80 -455z"/>
<glyph glyph-name="eacute" unicode="й" d="M159 738h40q0 -40 24.5 -60.5t66.5 -20.5q41 0 73 20.5t47 60.5h37q-17 -61 -62.5 -93.5t-107.5 -32.5q-58 0 -88 33t-30 93zM354 552h74l-97 -552h-58l80 454l-268 -454h-72l97 552h58l-80 -455z"/>
<glyph glyph-name="ecircumflex" horiz-adv-x="389" unicode="ê" d="M70 0h-58l97 552h58l-46 -260l225 260h73l-186 -206l92 -346h-61l-82 287l-76 -85z"/>
<glyph glyph-name="ecircumflex" horiz-adv-x="389" unicode="к" d="M70 0h-58l97 552h58l-46 -260l225 260h73l-186 -206l92 -346h-61l-82 287l-76 -85z"/>
<glyph glyph-name="edieresis" unicode="ë" d="M193 500l-54 -309q-22 -125 -61 -167q-35 -38 -95 -38l10 60q40 0 58 36q15 30 31 117l62 353h282l-97 -552h-58l88 500h-166z"/>
<glyph glyph-name="edieresis" unicode="л" d="M193 500l-54 -309q-22 -125 -61 -167q-35 -38 -95 -38l10 60q40 0 58 36q15 30 31 117l62 353h282l-97 -552h-58l88 500h-166z"/>
<glyph glyph-name="igrave" horiz-adv-x="593" unicode="ì" d="M72 0h-57l97 552h96l54 -464l222 464h92l-97 -552h-57l86 490l-234 -490h-54l-60 490z"/>
<glyph glyph-name="igrave" horiz-adv-x="593" unicode="м" d="M72 0h-57l97 552h96l54 -464l222 464h92l-97 -552h-57l86 490l-234 -490h-54l-60 490z"/>
<glyph glyph-name="iacute" unicode="í" d="M73 0h-58l97 552h58l-40 -231h198l40 231h58l-97 -552h-58l48 270h-198z"/>
<glyph glyph-name="iacute" unicode="н" d="M73 0h-58l97 552h58l-40 -231h198l40 231h58l-97 -552h-58l48 270h-198z"/>
<glyph glyph-name="icircumflex" unicode="î" d="M169 -14q-76 0 -109 47q-27 39 -27 113q0 34 5 72q2 13 12 71q28 156 91 222q53 55 133 55q74 0 106 -51q27 -42 27 -118q0 -32 -3 -59t-9 -60q-22 -127 -61 -193q-58 -99 -165 -99zM177 37q76 0 118 89q24 50 42 151q7 37 10 62t3 54q0 56 -18 85q-23 37 -74 37 q-68 0 -109 -85q-26 -53 -39.5 -132t-14.5 -88q-4 -31 -4 -54q0 -54 17 -83q21 -36 69 -36z"/>
<glyph glyph-name="icircumflex" unicode="о" d="M169 -14q-76 0 -109 47q-27 39 -27 113q0 34 5 72q2 13 12 71q28 156 91 222q53 55 133 55q74 0 106 -51q27 -42 27 -118q0 -32 -3 -59t-9 -60q-22 -127 -61 -193q-58 -99 -165 -99zM177 37q76 0 118 89q24 50 42 151q7 37 10 62t3 54q0 56 -18 85q-23 37 -74 37 q-68 0 -109 -85q-26 -53 -39.5 -132t-14.5 -88q-4 -31 -4 -54q0 -54 17 -83q21 -36 69 -36z"/>
<glyph glyph-name="idieresis" unicode="ï" d="M73 0h-58l97 552h314l-97 -552h-58l88 501h-198z"/>
<glyph glyph-name="idieresis" unicode="п" d="M73 0h-58l97 552h314l-97 -552h-58l88 501h-198z"/>
<glyph glyph-name="eth" unicode="ð" d="M115 279q-9 -50 -10 -60q-6 -42 -6 -68q0 -53 17 -80q21 -34 69 -34q70 0 110 89q22 49 39 145q9 55 9 56q5 38 5 68q0 55 -15 84q-19 36 -62 36q-79 0 -118 -86q-18 -41 -38 -150zM76 45l-41 -235h-60l130 742h58l-8 -50q25 29 57 46.5t66 17.5q72 0 104 -48 q26 -39 26 -112q0 -24 -3.5 -55t-9.5 -61q-15 -87 -29 -132q-24 -79 -62 -120q-48 -52 -123 -52q-36 0 -62.5 14.5t-42.5 44.5z"/>
<glyph glyph-name="eth" unicode="р" d="M115 279q-9 -50 -10 -60q-6 -42 -6 -68q0 -53 17 -80q21 -34 69 -34q70 0 110 89q22 49 39 145q9 55 9 56q5 38 5 68q0 55 -15 84q-19 36 -62 36q-79 0 -118 -86q-18 -41 -38 -150zM76 45l-41 -235h-60l130 742h58l-8 -50q25 29 57 46.5t66 17.5q72 0 104 -48 q26 -39 26 -112q0 -24 -3.5 -55t-9.5 -61q-15 -87 -29 -132q-24 -79 -62 -120q-48 -52 -123 -52q-36 0 -62.5 14.5t-42.5 44.5z"/>
<glyph glyph-name="ntilde" horiz-adv-x="389" unicode="ñ" d="M282 183h58q-14 -86 -56 -137q-49 -60 -131 -60q-74 0 -106 46q-26 38 -26 111q0 33 3.5 62.5t11.5 73.5q22 122 59 188q56 99 158 99q61 0 92 -37.5t31 -97.5q0 -23 -4 -42h-57q0 7 1 15.5t1 13.5q0 44 -19 70.5t-58 26.5q-71 0 -109 -90q-18 -42 -39 -156 q-5 -29 -9 -60.5t-4 -55.5q0 -53 16 -81q20 -35 68 -35q53 0 83 49q18 29 36 97z"/>
<glyph glyph-name="ntilde" horiz-adv-x="389" unicode="с" d="M282 183h58q-14 -86 -56 -137q-49 -60 -131 -60q-74 0 -106 46q-26 38 -26 111q0 33 3.5 62.5t11.5 73.5q22 122 59 188q56 99 158 99q61 0 92 -37.5t31 -97.5q0 -23 -4 -42h-57q0 7 1 15.5t1 13.5q0 44 -19 70.5t-58 26.5q-71 0 -109 -90q-18 -42 -39 -156 q-5 -29 -9 -60.5t-4 -55.5q0 -53 16 -81q20 -35 68 -35q53 0 83 49q18 29 36 97z"/>
<glyph glyph-name="ograve" horiz-adv-x="351" unicode="ò" d="M185 500h-127l9 52h312l-9 -52h-127l-88 -500h-58z"/>
<glyph glyph-name="ograve" horiz-adv-x="351" unicode="т" d="M185 500h-127l9 52h312l-9 -52h-127l-88 -500h-58z"/>
<glyph glyph-name="oacute" horiz-adv-x="389" unicode="ó" d="M-55 -188l9 51h28q34 0 50.5 8.5t27.5 25.5q27 46 50 101l-46 554h61l36 -447l200 447h59l-246 -545q-35 -81 -46 -101q-33 -60 -73 -83q-15 -7 -30.5 -10.5t-30.5 -3.5q-14 0 -26 1t-23 2z"/>
<glyph glyph-name="oacute" horiz-adv-x="389" unicode="у" d="M-55 -188l9 51h28q34 0 50.5 8.5t27.5 25.5q27 46 50 101l-46 554h61l36 -447l200 447h59l-246 -545q-35 -81 -46 -101q-33 -60 -73 -83q-15 -7 -30.5 -10.5t-30.5 -3.5q-14 0 -26 1t-23 2z"/>
<glyph glyph-name="ocircumflex" horiz-adv-x="704" unicode="ô" d="M659 290q-15 -87 -29 -132q-24 -79 -62 -120q-48 -52 -123 -52q-36 0 -62.5 14.5t-42.5 44.5l-41 -235h-60l41 235q-52 -59 -125 -59q-69 0 -100 45q-26 38 -26 108q0 43 8 96q7 38 10 55q21 120 58 182q56 94 157 94q34 0 59 -16.5t42 -47.5l43 248h56l-43 -248 q25 29 57 46.5t66 17.5q72 0 104 -48q26 -39 26 -112q0 -24 -3.5 -55t-9.5 -61zM598 271q9 55 9 56q5 38 5 68q0 55 -15 84q-19 36 -62 36q-79 0 -118 -86q-18 -41 -38 -150q-9 -50 -10 -60q-6 -42 -6 -68q0 -53 17 -80q21 -34 69 -34q70 0 110 89q22 49 39 145zM323 279 q9 54 12.5 80t3.5 45q0 52 -17 78q-21 33 -71 33q-68 0 -109 -94q-23 -54 -40 -150q-4 -25 -8.5 -58.5t-4.5 -58.5q0 -52 16 -81q20 -36 64 -36q59 0 96 54q33 49 58 188z"/>
<glyph glyph-name="ocircumflex" horiz-adv-x="704" unicode="ф" d="M659 290q-15 -87 -29 -132q-24 -79 -62 -120q-48 -52 -123 -52q-36 0 -62.5 14.5t-42.5 44.5l-41 -235h-60l41 235q-52 -59 -125 -59q-69 0 -100 45q-26 38 -26 108q0 43 8 96q7 38 10 55q21 120 58 182q56 94 157 94q34 0 59 -16.5t42 -47.5l43 248h56l-43 -248 q25 29 57 46.5t66 17.5q72 0 104 -48q26 -39 26 -112q0 -24 -3.5 -55t-9.5 -61zM598 271q9 55 9 56q5 38 5 68q0 55 -15 84q-19 36 -62 36q-79 0 -118 -86q-18 -41 -38 -150q-9 -50 -10 -60q-6 -42 -6 -68q0 -53 17 -80q21 -34 69 -34q70 0 110 89q22 49 39 145zM323 279 q9 54 12.5 80t3.5 45q0 52 -17 78q-21 33 -71 33q-68 0 -109 -94q-23 -54 -40 -150q-4 -25 -8.5 -58.5t-4.5 -58.5q0 -52 16 -81q20 -36 64 -36q59 0 96 54q33 49 58 188z"/>
<glyph glyph-name="otilde" horiz-adv-x="389" unicode="õ" d="M261 0l-77 234l-158 -234h-63l196 289l-89 263h65l68 -213l144 213h67l-184 -263l96 -289h-65z"/>
<glyph glyph-name="otilde" horiz-adv-x="389" unicode="х" d="M261 0l-77 234l-158 -234h-63l196 289l-89 263h65l68 -213l144 213h67l-184 -263l96 -289h-65z"/>
<glyph glyph-name="odieresis" unicode="ö" d="M307 0h-292l97 552h58l-88 -500h198l88 500h58l-88 -500h35l-28 -160h-57z"/>
<glyph glyph-name="odieresis" unicode="ц" d="M307 0h-292l97 552h58l-88 -500h198l88 500h58l-88 -500h35l-28 -160h-57z"/>
<glyph glyph-name="divide" horiz-adv-x="426" unicode="÷" d="M311 0h-58l47 268q-39 -21 -65 -29q-37 -12 -75 -12q-42 0 -68 26t-26 70v11q2 8 2 12l36 206h58l-34 -195q-2 -14 -2 -19q0 -57 59 -57q32 0 63.5 10t60.5 28l41 233h58z"/>
<glyph glyph-name="divide" horiz-adv-x="426" unicode="ч" d="M311 0h-58l47 268q-39 -21 -65 -29q-37 -12 -75 -12q-42 0 -68 26t-26 70v11q2 8 2 12l36 206h58l-34 -195q-2 -14 -2 -19q0 -57 59 -57q32 0 63.5 10t60.5 28l41 233h58z"/>
<glyph glyph-name="oslash" horiz-adv-x="574" unicode="ø" d="M15 0l97 552h58l-88 -500h135l88 500h58l-88 -500h135l88 500h58l-97 -552h-444z"/>
<glyph glyph-name="oslash" horiz-adv-x="574" unicode="ш" d="M15 0l97 552h58l-88 -500h135l88 500h58l-88 -500h135l88 500h58l-97 -552h-444z"/>
<glyph glyph-name="ugrave" horiz-adv-x="574" unicode="ù" d="M437 0h-422l97 552h58l-88 -500h135l88 500h58l-88 -500h135l88 500h58l-88 -500h35l-28 -160h-57z"/>
<glyph glyph-name="ugrave" horiz-adv-x="574" unicode="щ" d="M437 0h-422l97 552h58l-88 -500h135l88 500h58l-88 -500h135l88 500h58l-88 -500h35l-28 -160h-57z"/>
<glyph glyph-name="uacute" unicode="ú" d="M174 263l-37 -211h24q80 0 113 16q47 23 59 93q3 18 3 32q0 41 -26 55.5t-82 14.5h-54zM158 500h-100l9 52h158l-41 -237h42q88 0 129 -24.5t41 -85.5v-23q-3 -12 -4 -17q-8 -42 -25 -74t-44.5 -52t-71.5 -31q-33 -8 -57 -8h-124z"/>
<glyph glyph-name="uacute" unicode="ъ" d="M174 263l-37 -211h24q80 0 113 16q47 23 59 93q3 18 3 32q0 41 -26 55.5t-82 14.5h-54zM158 500h-100l9 52h158l-41 -237h42q88 0 129 -24.5t41 -85.5v-23q-3 -12 -4 -17q-8 -42 -25 -74t-44.5 -52t-71.5 -31q-33 -8 -57 -8h-124z"/>
<glyph glyph-name="ucircumflex" horiz-adv-x="574" unicode="û" d="M15 0l97 552h58l-41 -237h42q88 0 129 -24.5t41 -85.5v-23q-3 -12 -4 -17q-8 -42 -25 -74t-44.5 -52t-71.5 -31q-33 -8 -57 -8h-124zM119 263l-37 -211h24q80 0 113 16q47 23 59 93q3 18 3 32q0 41 -26 55.5t-82 14.5h-54zM459 0h-58l97 552h58z"/>
<glyph glyph-name="ucircumflex" horiz-adv-x="574" unicode="ы" d="M15 0l97 552h58l-41 -237h42q88 0 129 -24.5t41 -85.5v-23q-3 -12 -4 -17q-8 -42 -25 -74t-44.5 -52t-71.5 -31q-33 -8 -57 -8h-124zM119 263l-37 -211h24q80 0 113 16q47 23 59 93q3 18 3 32q0 41 -26 55.5t-82 14.5h-54zM459 0h-58l97 552h58z"/>
<glyph glyph-name="udieresis" horiz-adv-x="389" unicode="ü" d="M15 0l97 552h58l-41 -237h42q88 0 129 -24.5t41 -85.5v-23q-3 -12 -4 -17q-8 -42 -25 -74t-44.5 -52t-71.5 -31q-33 -8 -57 -8h-124zM119 263l-37 -211h24q80 0 113 16q47 23 59 93q3 18 3 32q0 41 -26 55.5t-82 14.5h-54z"/>
<glyph glyph-name="udieresis" horiz-adv-x="389" unicode="ь" d="M15 0l97 552h58l-41 -237h42q88 0 129 -24.5t41 -85.5v-23q-3 -12 -4 -17q-8 -42 -25 -74t-44.5 -52t-71.5 -31q-33 -8 -57 -8h-124zM119 263l-37 -211h24q80 0 113 16q47 23 59 93q3 18 3 32q0 41 -26 55.5t-82 14.5h-54z"/>
<glyph glyph-name="yacute" horiz-adv-x="389" unicode="ý" d="M299 314q3 17 6 45t3 46q0 51 -15 77q-19 33 -62 33q-45 0 -77 -36.5t-42 -89.5h-57q12 73 59 123q51 54 122 54q72 0 103 -48q26 -40 26 -114q0 -31 -3.5 -57.5t-10.5 -67.5q-16 -88 -30 -131q-25 -76 -64 -114q-49 -48 -125 -48q-65 0 -97 40q-28 35 -28 97q0 30 6 60 h58q0 -11 -0.5 -22t-0.5 -22q0 -48 11 -70q16 -32 59 -32q72 0 111 83q23 49 39 143h-171l9 51h171z"/>
<glyph glyph-name="yacute" horiz-adv-x="389" unicode="э" d="M299 314q3 17 6 45t3 46q0 51 -15 77q-19 33 -62 33q-45 0 -77 -36.5t-42 -89.5h-57q12 73 59 123q51 54 122 54q72 0 103 -48q26 -40 26 -114q0 -31 -3.5 -57.5t-10.5 -67.5q-16 -88 -30 -131q-25 -76 -64 -114q-49 -48 -125 -48q-65 0 -97 40q-28 35 -28 97q0 30 6 60 h58q0 -11 -0.5 -22t-0.5 -22q0 -48 11 -70q16 -32 59 -32q72 0 111 83q23 49 39 143h-171l9 51h171z"/>
<glyph glyph-name="thorn" horiz-adv-x="593" unicode="þ" d="M326 37q76 0 118 89q24 50 42 151q7 37 10 62t3 54q0 56 -18 85q-23 37 -74 37q-68 0 -109 -85q-26 -53 -39.5 -132t-14.5 -88q-4 -31 -4 -54q0 -54 17 -83q21 -36 69 -36zM196 270h-75l-48 -270h-58l97 552h58l-40 -231h76q22 106 65 166q57 79 152 79q74 0 106 -51 q27 -42 27 -118q0 -32 -3 -59t-9 -60q-22 -127 -61 -193q-58 -99 -165 -99q-76 0 -109 47q-27 39 -27 112q0 31 3 55.5t11 69.5z"/>
<glyph glyph-name="thorn" horiz-adv-x="593" unicode="ю" d="M326 37q76 0 118 89q24 50 42 151q7 37 10 62t3 54q0 56 -18 85q-23 37 -74 37q-68 0 -109 -85q-26 -53 -39.5 -132t-14.5 -88q-4 -31 -4 -54q0 -54 17 -83q21 -36 69 -36zM196 270h-75l-48 -270h-58l97 552h58l-40 -231h76q22 106 65 166q57 79 152 79q74 0 106 -51 q27 -42 27 -118q0 -32 -3 -59t-9 -60q-22 -127 -61 -193q-58 -99 -165 -99q-76 0 -109 47q-27 39 -27 112q0 31 3 55.5t11 69.5z"/>
</font>
</defs>
</svg>
