<svg xmlns="http://www.w3.org/2000/svg" width="187.688" height="140" viewBox="0 0 187.688 140">
  <metadata><?xpacket begin="﻿" id="W5M0MpCehiHzreSzNTczkc9d"?>
<x:xmpmeta xmlns:x="adobe:ns:meta/" x:xmptk="Adobe XMP Core 5.6-c138 79.159824, 2016/09/14-01:09:01        ">
   <rdf:RDF xmlns:rdf="http://www.w3.org/1999/02/22-rdf-syntax-ns#">
      <rdf:Description rdf:about=""/>
   </rdf:RDF>
</x:xmpmeta>
                                                                                                    
                                                                                                    
                                                                                                    
                                                                                                    
                                                                                                    
                                                                                                    
                                                                                                    
                                                                                                    
                                                                                                    
                                                                                                    
                                                                                                    
                                                                                                    
                                                                                                    
                                                                                                    
                                                                                                    
                                                                                                    
                                                                                                    
                                                                                                    
                                                                                                    
                                                                                                    
                           
<?xpacket end="w"?></metadata>
<defs>
    <style>
      .cls-1 {
        fill: #fff;
        fill-rule: evenodd;
        opacity: 0.15;
      }
    </style>
  </defs>
  <path id="figure" class="cls-1" d="M586.213,1672c-0.659,0-1.319.01-1.979,0.04-4.285.16-8.579,0.36-12.863,0.79a130.256,130.256,0,0,0-24.187,4.77v5.42c4.169-.97,8.358-1.75,12.568-2.38a139.978,139.978,0,0,1,15.633-1.49q3.853-.135,7.709-0.14c2,0,4,.07,5.994.19s3.955,0.28,5.925.49c2.409,0.26,4.824.54,7.218,0.91,2.12,0.34,4.23.79,6.33,1.26,1.874,0.41,3.749.84,5.589,1.4,2.4,0.73,4.789,1.56,7.159,2.42a61.53,61.53,0,0,1,10.483,5.01,48,48,0,0,1,13.554,11.6c5.944,7.59,8.894,16.67,8,27.65a39.362,39.362,0,0,1-1.974,9.53,44.739,44.739,0,0,1-15.363,21.24,41.5,41.5,0,0,1-5.9,3.73v15.7a70.747,70.747,0,0,0,26.486-28.9,54.2,54.2,0,0,0,4.849-13.66,57.789,57.789,0,0,0,1.191-9.4,45.968,45.968,0,0,0-2.14-16.67,44.207,44.207,0,0,0-9.349-15.94,57.989,57.989,0,0,0-13.458-10.9,82.9,82.9,0,0,0-19.783-8.4c-2.36-.67-4.744-1.3-7.154-1.75-3.6-.67-7.218-1.22-10.849-1.69-2.579-.33-5.188-0.5-7.793-0.63-1.962-.11-3.927-0.2-5.895-0.2m-85.991,28.67a74.085,74.085,0,0,0-14.206,15.55,63.123,63.123,0,0,0-10.357,27.11,76,76,0,0,0-.662,8.76,47.778,47.778,0,0,0,7.688,27.64,54.244,54.244,0,0,0,13.091,13.83,80.122,80.122,0,0,0,22.566,11.66c2.526,0.87,5.089,1.63,7.666,2.31,2.6,0.69,5.21,1.33,7.852,1.79,3.86,0.67,7.744,1.21,11.632,1.72,2.37,0.3,4.76.49,7.151,0.63,2.68,0.17,5.365.33,8.056,0.33h0.085c3.606-.01,7.221-0.08,10.835-0.28a163.511,163.511,0,0,0,23.888-3.1c3.69-.76,7.361-1.66,11-2.74v-15.06c-1.132.34-2.265,0.66-3.4,0.97a159.664,159.664,0,0,1-24.19,4.47,145.021,145.021,0,0,1-15.827.93h-0.983c-3.452-.03-6.9-0.2-10.334-0.43-2.817-.19-5.619-0.52-8.418-0.86q-3.046-.36-6.065-0.91c-2.7-.5-5.392-1.05-8.066-1.67-2.359-.55-4.711-1.15-7.028-1.87-2.576-.8-5.129-1.69-7.66-2.65a65,65,0,0,1-12.084-6.11,45.755,45.755,0,0,1-12.187-11.13c-6.343-8.51-8.606-18.73-7.045-30.5a56.568,56.568,0,0,1,3.435-13.18,67.353,67.353,0,0,1,13.565-21.78v-5.43" transform="translate(-475 -1672)"/>
</svg>
