<?xml version="1.0" encoding="UTF-8"?>
<!DOCTYPE svg PUBLIC "-//W3C//DTD SVG 1.1//EN" "http://www.w3.org/Graphics/SVG/1.1/DTD/svg11.dtd">
<svg version="1.1" xmlns="http://www.w3.org/2000/svg" xmlns:xlink="http://www.w3.org/1999/xlink" x="0" y="0" width="187.688" height="140" viewBox="0, 0, 187.688, 140">
  <g id="Layer_1">
    <g opacity="0.148">
      <g>
        <path d="M184.327,38.943 C182.523,33.382 179.742,28.506 175.683,23.971 C172.225,20.036 168.09,16.614 163.129,13.534 C157.641,10.197 151.552,7.545 144.486,5.492 C142.607,4.979 140.202,4.294 137.721,3.781 C134.413,3.182 131.031,2.583 127.347,2.156 C124.716,1.813 122.01,1.642 119.98,1.557 C117.5,1.386 115.019,1.3 112.538,1.386 L112.388,1.386 C112.313,1.386 111.561,1.3 110.133,1.3 C103.217,1.3 84.649,2.241 62.173,10.967 L62.023,11.053 C62.023,11.053 51.048,15.416 41.726,20.549 L41.726,21.833 C47.515,18.667 55.408,14.732 62.023,12.507 C62.248,12.422 62.399,12.422 62.549,12.336 C66.984,10.882 71.72,9.599 76.531,8.572 L77.959,8.315 C78.786,8.144 79.613,7.973 80.59,7.716 C87.882,6.348 95.7,5.321 103.818,4.808 C106.374,4.722 108.855,4.637 111.26,4.637 C113.14,4.637 115.094,4.722 117.049,4.808 C118.928,4.893 120.807,5.064 122.837,5.321 C125.167,5.578 127.497,5.834 129.828,6.262 C132.008,6.604 134.113,7.118 135.992,7.545 C137.646,7.888 139.6,8.401 141.479,8.914 C143.509,9.513 145.689,10.283 148.395,11.31 C151.853,12.593 155.311,14.304 158.694,16.357 C164.257,19.779 168.692,23.629 172.15,28.164 C178.314,36.291 181.02,45.787 180.193,56.567 C179.967,59.39 179.441,62.214 178.614,64.951 C178.464,65.465 178.314,65.892 178.163,66.406 C178.088,66.748 177.938,67.005 177.863,67.347 C177.787,67.518 177.712,67.689 177.637,67.946 C177.562,68.117 177.562,68.202 177.487,68.288 C177.487,68.288 177.487,68.288 177.487,68.373 C177.487,68.459 177.412,68.459 177.412,68.544 C177.261,68.972 177.036,69.4 176.885,69.913 C176.66,70.427 176.434,70.94 176.209,71.368 C175.983,71.881 175.683,72.394 175.457,72.908 C175.457,72.908 175.457,72.993 175.382,72.993 C175.156,73.507 174.856,74.02 174.555,74.448 C174.555,74.448 174.555,74.448 174.555,74.448 C174.33,74.875 174.104,75.303 173.803,75.645 C173.427,76.33 172.976,76.929 172.601,77.528 C172.375,77.87 172.15,78.126 171.924,78.469 C171.473,79.067 171.022,79.666 170.571,80.265 C170.27,80.693 169.894,81.121 169.594,81.463 L169.519,81.548 L169.519,81.634 C167.188,84.286 164.181,88.307 160.423,91.216 L160.423,98.488 L160.423,100.37 L160.423,101.482 C160.648,101.226 160.949,101.055 161.174,100.798 C162.001,100.028 162.903,99.258 163.73,98.488 C164.181,98.06 164.557,97.718 165.008,97.29 C165.685,96.606 166.361,95.921 167.038,95.151 C167.94,94.125 168.917,93.098 169.819,92.071 L169.894,91.986 C171.172,90.617 172.375,89.163 173.503,87.623 L173.503,87.623 C176.209,84.115 178.539,80.351 180.418,76.33 C180.719,75.731 181.02,75.046 181.321,74.448 C181.396,74.362 181.396,74.362 181.396,74.277 C182.373,72.052 183.275,69.742 183.952,67.261 C184.327,65.978 184.628,64.695 184.929,63.411 C185.53,60.674 185.906,57.679 186.056,54.514 C186.583,49.038 185.906,43.82 184.327,38.943 z" fill="#FFFFFF"/>
        <path d="M140.502,114.572 C134.037,117.652 127.573,119.962 121.484,121.673 C121.409,121.673 121.333,121.758 121.183,121.758 C114.568,123.384 107.652,124.667 100.586,125.437 C97.729,125.779 94.948,126.036 92.317,126.121 C90.287,126.207 88.333,126.293 86.454,126.293 C86.078,126.293 85.627,126.293 85.251,126.293 L84.274,126.293 C81.342,126.293 78.109,126.121 74.276,125.865 C71.494,125.694 68.788,125.352 66.157,125.009 C64.052,124.753 62.098,124.496 60.219,124.068 C57.362,123.555 54.806,122.956 52.401,122.443 C49.77,121.844 47.59,121.245 45.56,120.561 C43.155,119.791 40.749,118.935 38.118,117.908 C33.984,116.283 29.999,114.23 26.241,111.749 C21.204,108.412 17.295,104.733 14.138,100.456 C7.974,91.986 5.569,81.463 7.147,69.314 C7.749,64.78 8.876,60.331 10.53,55.883 C12.109,51.862 13.988,48.012 16.093,44.419 L16.093,44.333 L16.093,44.247 L16.393,43.734 C18.799,40.055 23.008,34.751 29.849,29.276 L29.849,28.249 C29.624,28.42 29.398,28.591 29.173,28.762 C25.264,31.757 21.731,34.922 18.649,38.173 L17.897,39.029 C17.521,39.457 17.145,39.884 16.694,40.398 C14.815,42.622 13.161,44.932 11.658,47.327 L11.357,47.755 C6.847,55.113 3.915,63.24 2.787,71.881 C2.562,74.704 2.336,77.442 2.261,80.436 C2.036,90.189 4.366,98.659 9.327,106.53 C12.484,111.492 16.469,115.77 21.505,119.705 C27.444,124.325 34.435,128.004 42.779,130.912 C45.034,131.682 47.439,132.452 49.995,133.137 C52.025,133.65 54.731,134.335 57.437,134.848 C61.346,135.532 65.255,136.046 68.563,136.559 C71.043,136.901 73.449,137.072 75.328,137.158 C77.959,137.329 80.44,137.5 82.996,137.5 L83.071,137.5 C84.8,137.5 86.454,137.5 87.957,137.414 L87.957,137.414 C87.957,137.414 89.911,137.414 93.369,137.158 L93.369,137.158 C93.67,137.158 93.971,137.158 94.271,137.072 L94.271,137.072 C94.347,137.072 94.347,137.072 94.422,137.072 C94.873,137.072 95.399,136.987 95.925,136.987 C102.841,136.388 113.515,134.933 125.393,131.34 C130.279,129.886 135.391,128.004 140.502,125.694 L140.502,114.572 z" fill="#FFFFFF"/>
      </g>
    </g>
  </g>
</svg>
