<?xml version="1.0" encoding="UTF-8"?>
<!DOCTYPE svg PUBLIC "-//W3C//DTD SVG 1.1//EN" "http://www.w3.org/Graphics/SVG/1.1/DTD/svg11.dtd">
<svg version="1.1" xmlns="http://www.w3.org/2000/svg" xmlns:xlink="http://www.w3.org/1999/xlink" x="0" y="0" width="60" height="60" viewBox="0, 0, 60, 60">
  <g id="Layer_1">
    <path d="M29.814,0.444 C18.324,0.457 9.013,9.768 9,21.258 C9,32.416 28.212,57.476 29.029,58.536 L29.814,59.556 L30.599,58.536 C31.417,57.476 50.629,32.416 50.629,21.258 C50.616,9.768 41.305,0.457 29.814,0.444 z M29.814,56.287 C26.156,51.39 10.982,30.53 10.982,21.258 C10.982,10.858 19.414,2.426 29.814,2.426 C40.215,2.426 48.647,10.858 48.647,21.258 C48.647,30.528 33.473,51.39 29.814,56.287 z" fill="#FFFFFF"/>
    <path d="M30.414,14.32 C26.804,14.32 23.876,17.248 23.876,20.858 C23.876,24.469 26.804,27.397 30.414,27.397 C34.025,27.397 36.953,24.469 36.953,20.858 C36.948,17.249 34.024,14.324 30.414,14.32 z M30.414,25.529 C27.835,25.529 25.744,23.438 25.744,20.858 C25.744,18.279 27.835,16.188 30.414,16.188 C32.994,16.188 35.085,18.279 35.085,20.858 C35.082,23.436 32.992,25.526 30.414,25.529 z" fill="#FFFFFF"/>
  </g>
</svg>
