<svg xmlns="http://www.w3.org/2000/svg" width="300" height="152"><defs><filter id="a" x="1967" y="1245" width="300" height="152" filterUnits="userSpaceOnUse"><feGaussianBlur result="blur" stdDeviation="13.333" in="SourceAlpha"/><feComposite result="composite"/><feComposite result="composite-2"/><feComposite result="composite-3"/><feFlood result="flood" flood-color="#fff" flood-opacity=".5"/><feComposite result="composite-4" operator="in" in2="composite-3"/><feBlend result="blend" in2="SourceGraphic"/><feBlend result="blend-2" in="SourceGraphic"/></filter></defs><path d="M2225.48 1307.88c-1.09-3.25-3.64-6.18-7.83-8.95a59.56 59.56 0 0 0-14.3-6.49 144.838 144.838 0 0 0-23.27-5.23c-2.37-.36-5.51-.81-8.73-1.11-4.29-.42-8.74-.77-13.6-1.09-3.48-.24-7.06-.34-9.79-.41-3.34-.09-6.61-.17-9.92-.11h-.17c-.11 0-1.14-.03-2.98-.03a346.9 346.9 0 0 0-63.33 6.33l-.16.02s-13.93 2.77-25.46 6.01l.17.83c7.08-1.94 16.92-4.44 25.41-5.85.24-.04.47-.08.69-.11 5.74-.93 11.86-1.74 18.18-2.42l1.88-.16c1.06-.12 2.21-.24 3.5-.38 9.59-.9 19.93-1.54 30.69-1.91 3.41-.06 6.73-.09 9.89-.09 2.5 0 5.09.04 7.72.12 2.45.07 4.93.18 7.6.32 3.11.17 6.13.35 9.19.6 2.81.23 5.61.54 8.01.81 2.17.25 4.64.53 7.03.91 2.61.41 5.32.89 8.81 1.55a108.746 108.746 0 0 1 12.67 3.21c6.64 2.12 11.61 4.5 15.2 7.25 6.26 4.8 7.74 10.31 4.64 16.28a18.328 18.328 0 0 1-3.36 4.49c-.25.26-.52.51-.79.76-.18.16-.36.33-.55.49-.1.1-.21.19-.33.29l-.23.2s0 .01-.03.02a.647.647 0 0 1-.09.08c-.28.23-.57.47-.86.69-.34.26-.68.52-1.03.78-.37.26-.75.53-1.14.79a.1.1 0 0 0-.05.04c-.39.25-.78.5-1.18.75a.01.01 0 0 1-.01.01c-.34.21-.69.42-1.04.63-.56.33-1.13.65-1.73.97-.3.16-.61.32-.92.48-.6.31-1.21.61-1.86.91-.43.21-.89.41-1.34.62l-.07.03-.01.03a104.488 104.488 0 0 1-11.8 4.71l-.92 3.49-.24.89-.13.51c.31-.1.62-.2.93-.31 1.05-.35 2.11-.71 3.15-1.09.53-.19 1.05-.38 1.57-.57.87-.33 1.74-.66 2.6-1 1.2-.48 2.39-.97 3.56-1.48l.1-.05a86.96 86.96 0 0 0 4.75-2.1 69.36 69.36 0 0 0 9.82-5.62c.48-.31.95-.64 1.39-.97.06-.03.09-.06.13-.08a34.482 34.482 0 0 0 4.25-3.63c.67-.66 1.3-1.34 1.88-2.03a22.025 22.025 0 0 0 3.06-4.81 11.65 11.65 0 0 0 .78-8.82zm-61.68 38.54c-7.27 1.38-14.44 2.4-21.15 3.14l-.29.03c-7.19.72-14.7 1.26-22.37 1.61-3.1.14-6.05.24-8.89.31-2.15.05-4.24.08-6.29.08-.44.01-.87.01-1.31.01l-1.03-.01c-3.18-.01-6.6-.06-10.75-.18-3-.08-5.95-.23-8.8-.37-2.31-.11-4.4-.24-6.41-.39-3.1-.24-5.89-.47-8.53-.72-2.88-.27-5.28-.53-7.54-.82-2.63-.33-5.35-.71-8.3-1.16-4.66-.71-9.25-1.63-13.63-2.74a76.651 76.651 0 0 1-14.91-5.21c-8.38-4.1-12.85-9.27-13.1-15.46a14.035 14.035 0 0 1 1.74-7.12 26.506 26.506 0 0 1 4.83-6.39l.02-.04-.01-.03.29-.28c2.35-2.11 6.74-5.19 14.53-8.46l-.15-.62c-.26.1-.53.2-.8.3a80.2 80.2 0 0 0-11.69 5.59l-.83.49c-.4.24-.81.51-1.25.81a35.783 35.783 0 0 0-4.97 3.94l-.26.26c-4.19 4.08-6.15 8.46-5.95 12.97a17.042 17.042 0 0 0 .77 4.26c1.48 4.8 5.52 8.88 12.27 12.52a77.235 77.235 0 0 0 15.16 5.92 169.069 169.069 0 0 0 24.02 4.86c2.48.34 5.06.65 7.9.95 2.19.23 5.07.52 7.98.73 4.21.29 8.36.52 11.85.7 2.6.14 5.2.21 7.17.26 2.75.07 5.45.13 8.09.13h.09q2.715 0 5.19-.03v.01s2.09 0 5.7-.09h.04l.98-.03h.16c.49-.02 1.01-.04 1.56-.05 7.28-.26 18.63-.87 31.43-2.38 5.3-.63 10.87-1.43 16.53-2.42zm-62.06-43.12c-4.08 0-7.36.68-9.76 2.02-2.38 1.33-3.49 3.1-3.34 5.24s1.48 3.85 3.92 5.1a20.815 20.815 0 0 0 9.51 1.87 19.922 19.922 0 0 0 9.36-1.87c2.35-1.25 3.56-2.97 3.59-5.1s-1.18-3.91-3.59-5.24a20.137 20.137 0 0 0-9.69-2.02zm5.07 10.6a8.213 8.213 0 0 1-4.82 1.22 8.68 8.68 0 0 1-4.91-1.21 4.075 4.075 0 0 1-1.9-3.35 3.7 3.7 0 0 1 1.59-3.36 8.047 8.047 0 0 1 4.84-1.28 8.916 8.916 0 0 1 5.05 1.26 3.962 3.962 0 0 1 1.82 3.36 3.9 3.9 0 0 1-1.67 3.36zm24.39 3.38c.94 0 2.12-.03 3.51-.07l.44-.02.18-2.43-.5.01c-.4.01-.84.01-1.32.01a14.546 14.546 0 0 1-1.86-.09 1.9 1.9 0 0 1-1.1-.46 1.065 1.065 0 0 1-.35-.63 6.4 6.4 0 0 1 0-.89l.4-6.71h5.4l.18-2.29h-5.45l.27-4.4h-6.72l-.17 4.4-.09 2.29-.29 7.36c-.06 1.59.41 2.61 1.45 3.14 1.01.52 3.04.78 6.02.78zm36.36-3.62l.31-.33h-6.19l-.15.14a7.829 7.829 0 0 1-5.63 1.81 8.746 8.746 0 0 1-4.55-.97 2.738 2.738 0 0 1-1.38-2.63l.02-.33h18.74l.04-.26a5.313 5.313 0 0 0-2.45-5.65c-2.06-1.42-5.1-2.14-9.03-2.14a20.352 20.352 0 0 0-9.64 2.1c-2.58 1.39-3.99 3.15-4.2 5.24s.81 3.78 3.02 5.02c2.19 1.23 5.23 1.85 9.06 1.85a23.386 23.386 0 0 0 7.62-1.15 10.333 10.333 0 0 0 4.41-2.7zm-17.22-4.74a4.32 4.32 0 0 1 2.23-2.23 9.728 9.728 0 0 1 4.37-.91 7.352 7.352 0 0 1 4.12.96 2.869 2.869 0 0 1 1.39 2.19l.03.36h-12.28zm-69.03 8.48l-.88-9.06h-.01c-.02-.18-.03-.36-.05-.54a3.261 3.261 0 0 0-.35-1.22c-1.04-2.01-4.02-3.08-7.7-3.12-2.81-.03-5.62-.03-8.43-.04h-7.12l.02.16v.05c.41 2.34.8 4.66 1.19 6.93q.57 3.375 1.11 6.65a.106.106 0 0 0 .02.05l.02.14h.37q3.015-.015 6.03 0h.42l-1.6-10.9-.03-.15h3.49c1.06 0 2.12.01 3.17.03a2.725 2.725 0 0 1 2.26.9 1.347 1.347 0 0 1 .16.53q.33 2.775.66 5.49l.49 4.1h6.76zm-20.59 19.1a12.433 12.433 0 0 1-6.06-1.34 5.38 5.38 0 0 1-2.9-3.66 3.767 3.767 0 0 1 .28-2.47 4.425 4.425 0 0 1 2.34-1.94 11.607 11.607 0 0 1 4.65-.79 13.692 13.692 0 0 1 4.68.7 4.793 4.793 0 0 1 2.64 1.98h6.64c-.47-1.6-2.03-2.92-4.69-3.98a26.238 26.238 0 0 0-9.65-1.6q-7.02 0-10.75 2.35c-2.46 1.54-3.42 3.45-2.9 5.72.53 2.37 2.28 4.23 5.25 5.63a25.521 25.521 0 0 0 10.89 2.07c4 0 7.06-.53 9.21-1.59s3.29-2.53 3.4-4.38h-6.63c-.24 2.21-2.37 3.3-6.4 3.3zm30.77-12.74l-10.38 15.07h6.71l2.2-3.23h11.24l2.47 3.23h6.88l-12.02-15.07h-7.1zm-.02 9.48l3.76-5.64 4.32 5.64h-8.08zm50.92-1.47a26.71 26.71 0 0 0-6.6-1.59c-.68-.1-1.48-.21-2.4-.32s-1.62-.21-2.12-.28-1.06-.15-1.67-.24-1.08-.18-1.4-.26a9.259 9.259 0 0 1-.94-.3 1.483 1.483 0 0 1-.63-.4.726.726 0 0 1-.15-.5 1.674 1.674 0 0 1 1.4-1.29 11.927 11.927 0 0 1 3.73-.47q5.52 0 5.72 2.3h6.43c.12-1.64-.89-2.89-3.03-3.72a24.268 24.268 0 0 0-8.54-1.25 25.422 25.422 0 0 0-8.85 1.28q-3.345 1.29-3.4 3.39a2.222 2.222 0 0 0 .3 1.19 3.925 3.925 0 0 0 .68.92 3.767 3.767 0 0 0 1.25.72c.58.22 1.07.4 1.47.52a15.684 15.684 0 0 0 1.89.43c.87.15 1.5.26 1.89.32s1.11.17 2.13.31c.26.04.62.09 1.11.14q4.41.63 5.76.98c.91.24 1.34.61 1.29 1.12-.05.61-.6 1.09-1.63 1.43a13.162 13.162 0 0 1-4.12.52c-4.43 0-6.65-.91-6.68-2.75h-6.61q-.015 2.49 3.38 3.84a26.508 26.508 0 0 0 9.45 1.34 40.389 40.389 0 0 0 4.52-.25 24.38 24.38 0 0 0 3.98-.79 8.4 8.4 0 0 0 3-1.46 3.226 3.226 0 0 0 1.3-2.19c.13-1.16-.5-2.06-1.91-2.69zm38.55 2.4l2.46-10.39h-6.88l-1.25 5.85h-12.6l1-5.85h-6.89l-2.24 15.05h6.54l1.09-6.3h12.47l-1.34 6.3-.85 3.95-.41 1.93q3.375-.765 6.81-1.67l.5-2.11 1.6-6.76h-.01z" transform="translate(-1967 -1245)" fill="#fff" fill-rule="evenodd" filter="url(#a)"/></svg>