<?xml version="1.0" standalone="no"?>
<!DOCTYPE svg PUBLIC "-//W3C//DTD SVG 20010904//EN"
 "http://www.w3.org/TR/2001/REC-SVG-20010904/DTD/svg10.dtd">
<svg version="1.0" xmlns="http://www.w3.org/2000/svg"
 width="256.000000pt" height="256.000000pt" viewBox="0 0 256.000000 256.000000"
 preserveAspectRatio="xMidYMid meet">
<metadata>
Created by potrace 1.11, written by Peter Selinger 2001-2013
</metadata>
<g transform="translate(0.000000,256.000000) scale(0.100000,-0.100000)"
fill="#000000" stroke="none">
<path d="M1359 2095 c-2 -2 -38 -6 -79 -10 -41 -4 -77 -8 -80 -10 -3 -2 -23
-6 -45 -9 -185 -29 -605 -172 -605 -206 0 -5 33 6 73 25 132 61 326 116 487
140 25 3 56 8 70 10 175 27 471 26 636 -3 408 -71 639 -254 661 -525 11 -146
-44 -268 -188 -415 -85 -86 -86 -88 -87 -140 -1 -28 2 -52 5 -52 12 0 70 49
133 112 258 258 291 587 82 805 -34 35 -135 113 -146 113 -5 0 -20 8 -34 19
-52 35 -240 102 -330 116 -55 8 -105 17 -127 22 -24 6 -421 14 -426 8z"/>
<path d="M1396 1666 c2 -191 5 -205 47 -213 64 -14 82 -10 85 19 3 23 -1 27
-25 30 l-28 3 0 90 0 90 28 -2 c23 -2 27 2 27 22 0 21 -5 25 -30 25 -29 0 -30
2 -30 45 l0 45 -37 0 -38 0 1 -154z"/>
<path d="M347 1751 c-56 -36 -161 -136 -204 -195 -55 -75 -95 -152 -118 -231
-24 -79 -29 -243 -10 -314 40 -153 161 -293 330 -383 110 -58 276 -112 410
-134 165 -26 238 -31 415 -29 223 3 231 4 470 51 80 16 259 71 274 85 10 9 13
115 4 124 -2 3 -44 -9 -92 -25 -335 -116 -793 -138 -1153 -54 -319 74 -510
202 -584 392 -18 46 -23 77 -22 162 0 122 24 209 91 324 40 70 145 185 194
214 16 9 28 20 28 24 0 10 1 10 -33 -11z"/>
<path d="M658 1733 c-3 -5 -4 -71 -4 -148 l1 -140 36 -3 c44 -4 45 -2 43 134
l-1 101 44 2 c27 1 45 -4 48 -12 3 -7 6 -59 8 -117 l2 -105 38 -2 37 -3 0 112
c0 135 -4 150 -38 170 -29 16 -207 25 -214 11z"/>
<path d="M1084 1726 c-90 -39 -111 -166 -41 -243 28 -30 39 -35 92 -39 67 -6
109 13 141 62 27 40 27 127 0 167 -40 60 -123 83 -192 53z m113 -58 c38 -39
31 -136 -12 -164 -54 -35 -110 13 -108 94 0 36 6 50 26 68 29 25 70 26 94 2z"/>
<path d="M1705 1730 c-11 -4 -33 -22 -49 -39 -56 -58 -44 -184 21 -226 14 -9
48 -19 76 -22 43 -4 58 -1 86 19 19 12 41 33 49 46 14 21 13 22 -22 22 -23 0
-43 -7 -56 -20 -37 -37 -99 -16 -115 38 -7 25 -9 25 123 23 87 -1 86 -2 82 49
-7 85 -113 145 -195 110z m96 -53 c9 -7 19 -22 23 -35 8 -23 7 -24 -64 -24
-66 0 -68 1 -63 22 11 42 70 63 104 37z"/>
<path d="M576 1295 c-99 -35 -144 -145 -106 -259 49 -149 305 -142 322 9 3 27
0 29 -30 31 -28 1 -35 -4 -54 -37 -12 -22 -26 -39 -32 -40 -6 0 -20 -2 -31 -5
-83 -16 -138 116 -84 202 34 56 101 58 150 5 16 -19 33 -27 50 -25 13 1 27 3
32 3 12 2 -22 72 -45 92 -22 20 -79 39 -113 39 -11 -1 -37 -7 -59 -15z"/>
<path d="M1445 1299 c-56 -17 -85 -54 -85 -109 0 -43 36 -75 106 -96 109 -31
134 -53 98 -88 -22 -23 -96 -21 -117 2 -10 10 -17 24 -17 30 0 13 -1 14 -47
18 -29 2 -33 -1 -33 -23 0 -73 102 -124 203 -101 52 12 84 36 98 76 24 72 -10
112 -128 148 -73 22 -83 28 -83 49 0 45 88 53 116 9 12 -18 25 -24 50 -24 35
0 39 6 28 47 -13 49 -117 83 -189 62z"/>
<path d="M970 1163 c-29 -76 -61 -159 -71 -185 l-18 -47 22 1 c51 0 66 8 77
42 6 19 16 36 23 38 10 4 108 3 129 -1 3 0 9 -14 13 -31 4 -16 12 -33 18 -37
18 -12 77 -11 77 0 0 6 -30 88 -67 184 l-66 173 -42 0 -42 0 -53 -137z m133
-68 c2 -17 -4 -20 -40 -21 -24 0 -43 3 -43 7 0 4 10 33 22 65 l22 57 18 -44
c11 -24 20 -52 21 -64z"/>
<path d="M1790 1116 l0 -184 40 1 40 1 0 78 0 78 75 0 75 0 1 -37 c1 -21 1
-91 1 -155 l-1 -118 38 20 c21 10 40 25 43 32 2 7 4 114 4 238 l-1 225 -40 0
c-44 0 -41 8 -44 -102 l-1 -32 -75 0 -75 0 0 70 0 69 -40 0 -40 0 0 -184z"/>
</g>
</svg>
