<?xml version="1.0" encoding="utf-8"?>
<!-- Generator: Adobe Illustrator 21.0.0, SVG Export Plug-In . SVG Version: 6.00 Build 0)  -->
<svg version="1.1" id="Слой_1" xmlns="http://www.w3.org/2000/svg" xmlns:xlink="http://www.w3.org/1999/xlink" x="0px" y="0px"
	 viewBox="0 0 244.9 159.1" style="enable-background:new 0 0 244.9 159.1;" xml:space="preserve">
<style type="text/css">
	.st0{fill:#FFFFFF;}
</style>
<g>
	<g>
		<path class="st0" d="M242.2,44c-2.4-6.5-6.1-12.2-11.5-17.5c-4.6-4.6-10.1-8.6-16.7-12.2c-7.3-3.9-15.4-7-24.8-9.4
			c-2.5-0.6-5.7-1.4-9-2c-4.4-0.7-8.9-1.4-13.8-1.9c-3.5-0.4-7.1-0.6-9.8-0.7c-3.3-0.2-6.6-0.3-9.9-0.2h-0.2c-0.1,0-1.1-0.1-3-0.1
			c-9.2,0-33.9,1.1-63.8,11.3l-0.2,0.1c0,0-14.6,5.1-27,11.1V24c7.7-3.7,18.2-8.3,27-10.9c0.3-0.1,0.5-0.1,0.7-0.2
			c5.9-1.7,12.2-3.2,18.6-4.4l1.9-0.3c1.1-0.2,2.2-0.4,3.5-0.7c9.7-1.6,20.1-2.8,30.9-3.4c3.4-0.1,6.7-0.2,9.9-0.2
			c2.5,0,5.1,0.1,7.7,0.2c2.5,0.1,5,0.3,7.7,0.6c3.1,0.3,6.2,0.6,9.3,1.1c2.9,0.4,5.7,1,8.2,1.5c2.2,0.4,4.8,1,7.3,1.6
			c2.7,0.7,5.6,1.6,9.2,2.8c4.6,1.5,9.2,3.5,13.7,5.9c7.4,4,13.3,8.5,17.9,13.8c8.2,9.5,11.8,20.6,10.7,33.2c-0.3,3.3-1,6.6-2.1,9.8
			c-0.2,0.6-0.4,1.1-0.6,1.7c-0.1,0.4-0.3,0.7-0.4,1.1c-0.1,0.2-0.2,0.4-0.3,0.7c-0.1,0.2-0.1,0.3-0.2,0.4c0,0,0,0,0,0.1
			c0,0.1-0.1,0.1-0.1,0.2c-0.2,0.5-0.5,1-0.7,1.6c-0.3,0.6-0.6,1.2-0.9,1.7c-0.3,0.6-0.7,1.2-1,1.8c0,0,0,0.1-0.1,0.1
			c-0.3,0.6-0.7,1.2-1.1,1.7c0,0,0,0,0,0c-0.3,0.5-0.6,1-1,1.4c-0.5,0.8-1.1,1.5-1.6,2.2c-0.3,0.4-0.6,0.7-0.9,1.1
			c-0.6,0.7-1.2,1.4-1.8,2.1c-0.4,0.5-0.9,1-1.3,1.4l-0.1,0.1v0.1c-3.1,3.1-7.1,7.8-12.1,11.2v8.5v2.2v1.3c0.3-0.3,0.7-0.5,1-0.8
			c1.1-0.9,2.3-1.8,3.4-2.7c0.6-0.5,1.1-0.9,1.7-1.4c0.9-0.8,1.8-1.6,2.7-2.5c1.2-1.2,2.5-2.4,3.7-3.6l0.1-0.1
			c1.7-1.6,3.3-3.3,4.8-5.1v0c3.6-4.1,6.7-8.5,9.2-13.2c0.4-0.7,0.8-1.5,1.2-2.2c0.1-0.1,0.1-0.1,0.1-0.2c1.3-2.6,2.5-5.3,3.4-8.2
			c0.5-1.5,0.9-3,1.3-4.5c0.8-3.2,1.3-6.7,1.5-10.4C245.2,55.8,244.3,49.7,242.2,44z"/>
		<path class="st0" d="M183.9,132.4c-8.6,3.6-17.2,6.3-25.3,8.3c-0.1,0-0.2,0.1-0.4,0.1c-8.8,1.9-18,3.4-27.4,4.3
			c-3.8,0.4-7.5,0.7-11,0.8c-2.7,0.1-5.3,0.2-7.8,0.2c-0.5,0-1.1,0-1.6,0l-1.3,0c-3.9,0-8.2-0.2-13.3-0.5c-3.7-0.2-7.3-0.6-10.8-1
			c-2.8-0.3-5.4-0.6-7.9-1.1c-3.8-0.6-7.2-1.3-10.4-1.9c-3.5-0.7-6.4-1.4-9.1-2.2c-3.2-0.9-6.4-1.9-9.9-3.1
			c-5.5-1.9-10.8-4.3-15.8-7.2c-6.7-3.9-11.9-8.2-16.1-13.2C7.6,106,4.4,93.7,6.5,79.5C7.3,74.2,8.8,69,11,63.8
			c2.1-4.7,4.6-9.2,7.4-13.4l0-0.1v-0.1l0.4-0.6c3.2-4.3,8.8-10.5,17.9-16.9v-1.2c-0.3,0.2-0.6,0.4-0.9,0.6c-5.2,3.5-9.9,7.2-14,11
			l-1,1c-0.5,0.5-1,1-1.6,1.6c-2.5,2.6-4.7,5.3-6.7,8.1l-0.4,0.5c-6,8.6-9.9,18.1-11.4,28.2C0.4,85.8,0.1,89,0,92.5
			c-0.3,11.4,2.8,21.3,9.4,30.5c4.2,5.8,9.5,10.8,16.2,15.4c7.9,5.4,17.2,9.7,28.3,13.1c3,0.9,6.2,1.8,9.6,2.6
			c2.7,0.6,6.3,1.4,9.9,2c5.2,0.8,10.4,1.4,14.8,2c3.3,0.4,6.5,0.6,9,0.7c3.5,0.2,6.8,0.4,10.2,0.4h0.1c2.3,0,4.5,0,6.5-0.1v0
			c0,0,2.6,0,7.2-0.3h0c0.4,0,0.8,0,1.2-0.1h0c0.1,0,0.1,0,0.2,0c0.6,0,1.3-0.1,2-0.1c9.2-0.7,23.4-2.4,39.2-6.6
			c6.5-1.7,13.3-3.9,20.1-6.6V132.4z"/>
	</g>
	<g>
		<path class="st0" d="M110.1,34.9c-4.3,0-7.8,1.3-10.4,4c-2.6,2.7-3.9,6.2-3.9,10.6c0,4.4,1.3,8,3.9,10.6c2.6,2.6,6.1,4,10.4,4
			c4.3,0,7.8-1.3,10.3-4c2.6-2.7,3.9-6.2,3.9-10.6c0-4.4-1.3-7.9-3.9-10.6C117.7,36.2,114.3,34.9,110.1,34.9z M115.3,56.4
			c-1.3,1.7-3,2.6-5.3,2.6c-2.3,0-4-0.9-5.3-2.5c-1.2-1.7-1.9-4-1.9-6.9c0-2.9,0.6-5.2,1.9-6.8c1.3-1.7,3-2.5,5.2-2.5
			c2.3,0,4.1,0.8,5.3,2.5c1.3,1.6,1.9,3.9,1.9,6.8C117.1,52.3,116.5,54.7,115.3,56.4z"/>
		<path class="st0" d="M142.1,63.5c1,0,2.3-0.1,3.9-0.2l0.5,0v-5.2l-0.5,0c-0.4,0-0.9,0-1.4,0c-0.9,0-1.5-0.1-2-0.2
			c-0.5-0.2-1-0.5-1.2-1c-0.2-0.4-0.4-0.9-0.4-1.3c0-0.4-0.1-1-0.1-1.9V40.2h5.7v-4.5h-5.7v-8.5h-7v8.5v4.5v15
			c0,3.3,0.6,5.5,1.7,6.6C136.5,63,138.8,63.5,142.1,63.5z"/>
		<path class="st0" d="M181.4,55.9l0.3-0.7h-6.7l-0.1,0.3c-1.2,2.6-3.1,3.8-5.8,3.8c-2.2,0-3.9-0.7-5.1-2c-1.2-1.3-1.8-3.1-1.9-5.5
			l0-0.7h20.3l0-0.5c0-4.8-1.3-8.6-3.7-11.4c-2.4-2.8-5.8-4.2-9.9-4.2c-4,0-7.3,1.4-9.9,4.2c-2.6,2.8-3.9,6.3-3.9,10.6
			c0,4.3,1.3,7.9,3.9,10.5c2.6,2.6,6,3.9,10.2,3.9c3.2,0,5.9-0.8,8.2-2.4C179,60.2,180.5,58.3,181.4,55.9z M162,46.1
			c0.3-1.9,1-3.4,2.1-4.5c1.2-1.2,2.7-1.8,4.5-1.8c1.9,0,3.4,0.6,4.5,1.9c1,1.2,1.6,2.6,1.9,4.4l0.1,0.7h-13.2L162,46.1z"/>
		<path class="st0" d="M87.1,63.8V44.9h0c0-0.4,0-0.7,0-1.1c0-0.8-0.1-1.6-0.2-2.4c-0.9-4-3.9-6.1-7.8-6.2c-3-0.1-5.9-0.1-8.9-0.1
			c-2.4,0-4.7,0-7.1,0c0,0-0.1,0-0.1,0h-0.3v0.3c0,0,0,0.1,0,0.1c0,4.6,0,9.3,0,13.9c0,4.6,0,9.3,0,13.9c0,0,0,0.1,0,0.1v0.3h0.4
			c2.2,0,4.4,0,6.6,0h0.5V41.2v-0.3h0.3h3.4c1.1,0,2.2,0,3.4,0.1c1.2,0.1,2,0.8,2.3,1.8c0.1,0.3,0.1,0.7,0.1,1.1c0,3.8,0,7.5,0,11.3
			v8.7H87.1z"/>
		<path class="st0" d="M60.8,107.4c-2.8,0-5.1-1.1-6.8-3.3c-1.7-2.2-2.5-5.1-2.5-8.7c0-2.1,0.3-4,0.9-5.8c0.6-1.8,1.6-3.2,3.1-4.4
			c1.5-1.2,3.3-1.8,5.4-1.8c2.1,0,3.8,0.5,5.2,1.6c1.4,1.1,2.3,2.6,2.7,4.5h7.6c-0.3-3.7-1.9-6.7-4.7-9.1c-2.8-2.4-6.4-3.6-10.6-3.6
			c-5.3,0-9.5,1.8-12.6,5.3c-3.2,3.5-4.7,7.9-4.7,13.2c0,5.6,1.6,10.1,4.7,13.5c3.1,3.4,7.3,5.1,12.4,5.1c4.7,0,8.5-1.3,11.2-3.9
			c2.7-2.6,4.3-6.1,4.7-10.6h-7.7C68.2,104.8,65.5,107.4,60.8,107.4z"/>
		<path class="st0" d="M97.9,77.7l-13.5,35.4h7.9l2.9-7.9h13.2l2.8,7.9h8.1l-13.5-35.4H97.9z M97.1,99.6l4.7-13.2l4.7,13.2H97.1z"/>
		<path class="st0" d="M156.1,96.1c-1.7-1.5-4.3-2.7-7.8-3.7c-0.8-0.2-1.7-0.5-2.8-0.7c-1.1-0.3-1.9-0.5-2.5-0.6
			c-0.6-0.2-1.2-0.4-1.9-0.6c-0.7-0.2-1.2-0.4-1.6-0.6c-0.4-0.2-0.7-0.4-1.1-0.7c-0.4-0.3-0.6-0.6-0.7-0.9s-0.2-0.7-0.2-1.1
			c0-1.3,0.5-2.2,1.5-3c1-0.7,2.4-1.1,4.2-1.1c4.2,0,6.4,1.8,6.7,5.3h7.3c-0.1-3.8-1.4-6.6-3.9-8.5c-2.5-1.9-5.8-2.8-9.7-2.8
			c-4.1,0-7.4,1-9.9,2.9c-2.5,1.9-3.7,4.5-3.7,7.7c0,1,0.1,1.9,0.4,2.8c0.2,0.8,0.5,1.6,0.8,2.1s0.8,1.1,1.5,1.7
			c0.7,0.5,1.2,0.9,1.7,1.2c0.5,0.3,1.2,0.6,2.2,1c1,0.4,1.7,0.6,2.2,0.8c0.5,0.1,1.3,0.4,2.5,0.7c0.3,0.1,0.7,0.2,1.3,0.3
			c3.4,1,5.7,1.8,6.8,2.3c1.1,0.6,1.6,1.5,1.6,2.7c0,1.5-0.6,2.6-1.8,3.5c-1.2,0.8-2.8,1.3-4.8,1.3c-5.2,0-7.9-2.2-8-6.7h-7.7
			c0,4,1.4,7.1,4.1,9.3c2.7,2.2,6.4,3.3,11.3,3.3c1.9,0,3.7-0.2,5.3-0.6c1.7-0.4,3.2-1.1,4.6-1.9c1.4-0.9,2.5-2.1,3.4-3.6
			c0.8-1.5,1.2-3.3,1.2-5.3C158.6,99.7,157.8,97.6,156.1,96.1z"/>
		<path class="st0" d="M201.3,101.8v-24h-7.7v13.3h-14.5V77.8h-7.7v35.4h7.7V97.9h14.5v15.2h0v9.9v4.9c2.6-1.3,5.2-2.7,7.8-4.3v-5.3
			L201.3,101.8C201.3,101.8,201.3,101.8,201.3,101.8z"/>
	</g>
</g>
</svg>
