<?xml version="1.0" encoding="UTF-8"?>
<!DOCTYPE svg PUBLIC "-//W3C//DTD SVG 1.1//EN" "http://www.w3.org/Graphics/SVG/1.1/DTD/svg11.dtd">
<svg version="1.1" xmlns="http://www.w3.org/2000/svg" xmlns:xlink="http://www.w3.org/1999/xlink" x="0" y="0" width="512" height="512" viewBox="0, 0, 512, 512">
  <g id="Layer_1">
    <g>
      <path d="M442.58,290.411 C429.719,260.808 411.957,232.124 389.499,205.277 C362.346,172.612 335.295,150.767 321.515,140.661 L373.575,44.094 C376.127,39.297 375.31,33.376 371.329,29.599 C357.855,16.431 343.564,10 327.639,10 C313.042,10 299.67,15.512 288.033,20.412 C278.846,24.189 270.169,27.864 263.126,27.864 C260.982,27.864 259.145,27.558 257.307,26.843 C233.012,17.962 214.332,12.45 196.264,12.45 C173.398,12.45 153.901,21.637 134.812,41.236 C130.831,45.319 130.219,51.75 133.383,56.548 L189.527,141.376 C175.644,151.686 149.103,173.326 122.461,205.277 C100.105,232.124 82.242,260.808 69.38,290.411 C53.251,327.67 45.085,366.562 45.085,405.964 C45.085,458.331 87.754,501 140.12,501 L371.84,501 C424.206,501 466.875,458.331 466.875,405.964 C466.875,366.562 458.709,327.67 442.58,290.411 z" fill-opacity="0" stroke="#FFFFFF" stroke-width="16"/>
      <path d="M189.527,141.376 L321.515,141.376" fill-opacity="0" stroke="#FFFFFF" stroke-width="16"/>
    </g>
    <g>
      <path d="M221,225 L221,444" fill-opacity="0" stroke="#FFFFFF" stroke-width="16"/>
      <path d="M226,230 C226,230 316,223 315,295 C314,367 223,360 223,360" fill-opacity="0" stroke="#FFFFFF" stroke-width="16"/>
      <path d="M177,394 L310,394" fill-opacity="0" stroke="#FFFFFF" stroke-width="16"/>
    </g>
  </g>
</svg>
