<?xml version="1.0" encoding="UTF-8"?>
<!DOCTYPE svg PUBLIC "-//W3C//DTD SVG 1.1//EN" "http://www.w3.org/Graphics/SVG/1.1/DTD/svg11.dtd">
<svg version="1.1" xmlns="http://www.w3.org/2000/svg" xmlns:xlink="http://www.w3.org/1999/xlink" x="0" y="0" width="512" height="512" viewBox="0, 0, 512, 512">
  <g id="Layer_1">
    <path d="M459.372,337.845 C468.983,325.586 473.593,312.444 473.005,298.909 C472.416,284.002 465.747,272.331 460.255,265.171 C466.63,249.283 469.082,224.273 447.799,204.854 C432.205,190.633 405.724,184.258 369.044,186.024 C343.25,187.201 321.673,192.006 320.79,192.202 L320.692,192.202 C315.789,193.085 310.591,194.164 305.294,195.341 C304.902,189.064 305.981,173.47 317.554,138.359 C331.285,96.578 330.5,64.605 315.004,43.225 C298.723,20.765 272.733,19 265.083,19 C257.728,19 250.96,22.04 246.155,27.631 C235.268,40.283 236.543,63.625 237.916,74.413 C224.97,109.132 188.682,194.262 157.984,217.898 C157.396,218.291 156.905,218.781 156.415,219.271 C147.392,228.785 141.311,239.083 137.192,248.106 C131.405,244.967 124.834,243.202 117.773,243.202 L57.946,243.202 C35.389,243.202 17.147,261.542 17.147,284.002 L17.147,443.375 C17.147,465.933 35.487,484.175 57.946,484.175 L117.773,484.175 C126.502,484.175 134.642,481.429 141.311,476.721 L164.359,479.467 C167.89,479.958 230.659,487.902 295.095,486.627 C306.766,487.51 317.75,488 327.95,488 C345.506,488 360.806,486.627 373.555,483.881 C403.567,477.506 424.065,464.756 434.461,446.023 C442.405,431.704 442.405,417.483 441.13,408.46 C460.647,390.807 464.08,371.289 463.393,357.559 C463.001,349.615 461.235,342.847 459.372,337.845 z" fill-opacity="0" stroke="#FFFFFF" stroke-width="16"/>
    <path d="M253,105" fill-opacity="0" stroke="#FFFFFF" stroke-width="16"/>
    <path d="M123.25,243.583 C123.25,243.583 145.25,244.25 146.442,261.856 C146.75,278.25 145.384,454.333 147.025,463.333 C145.333,475.667 125,486.667 124.5,483.5" fill-opacity="0" stroke="#FFFFFF" stroke-width="16" stroke-linecap="round" stroke-linejoin="round"/>
  </g>
</svg>
