<?xml version="1.0" encoding="utf-8"?>
<!-- Generator: Adobe Illustrator 21.0.0, SVG Export Plug-In . SVG Version: 6.00 Build 0)  -->
<svg version="1.1" id="Layer_1" xmlns="http://www.w3.org/2000/svg" xmlns:xlink="http://www.w3.org/1999/xlink" x="0px" y="0px"
	 viewBox="0 0 706.9 382.7" style="enable-background:new 0 0 706.9 382.7;" xml:space="preserve">
<style type="text/css">
	.st0{fill:#E2E2E2;}
	.st1{fill:#B7B7B7;}
	.st2{fill:#FBFBFB;}
</style>
<g>
	<path class="st0" d="M629.1,0H77.8c-6.6,0-12,5.9-12,13v353.5c0,7.1,5.4,13,12,13h551.3c6.6,0,12-5.9,12-13V13
		C641.1,5.9,635.7,0,629.1,0z M623.1,55.6V117v61.3v61.3v61.3v35.6h-15.6h-37.3h-37.3h-37.3h-37.3H421h-37.3h-37.3h-37.3h-37.3
		h-37.3h-37.3H160h-37.3H82.3V270v-61.3v-61.3V86V24.7v-5.3h34.1h37.3h37.3h37.3h37.3h37.3H340h37.3h37.3h37.3h37.3h37.3h37.3H601
		h22V55.6z"/>
	<path class="st1" d="M2.1,369.8l23,9.5c5.4,2.2,11.2,3.4,17,3.4h622.7c5.8,0,11.6-1.1,17-3.4l23-9.5H2.1z"/>
	<path class="st2" d="M704.6,369.8H2.2c-1.2,0-2.2-1-2.2-2.2V360c0-1.2,1-2.2,2.2-2.2h702.4c1.2,0,2.2,1,2.2,2.2v7.6
		C706.9,368.8,705.9,369.8,704.6,369.8z"/>
</g>
</svg>
