<?xml version="1.0" encoding="UTF-8"?>
<!DOCTYPE svg PUBLIC "-//W3C//DTD SVG 1.1//EN" "http://www.w3.org/Graphics/SVG/1.1/DTD/svg11.dtd">
<svg version="1.1" xmlns="http://www.w3.org/2000/svg" xmlns:xlink="http://www.w3.org/1999/xlink" x="0" y="0" width="512" height="512" viewBox="0, 0, 512, 512">
  <g id="Layer_1">
    <g>
      <path d="M256,17.6 C383.044,17.6 493.4,128.956 493.4,256 C493.4,383.044 383.044,493.4 256,493.4 C128.956,493.4 18.6,383.044 18.6,256 C18.6,128.956 128.956,17.6 256,17.6 M256,-0 C114.628,-0 0,114.62 0,256 C0,397.38 114.628,512 256,512 C397.372,512 512,397.38 512,256 C512,114.62 397.372,-0 256,-0 L256,-0 z" fill="#FFFFFF"/>
      <path d="M358.289,228.224 L221.978,138.513 C198.451,123.034 179.2,133.419 179.2,161.579 L179.2,350.379 C179.2,378.539 198.477,388.958 222.046,373.538 L358.229,284.416 C381.79,268.979 381.815,243.703 358.289,228.224 z M345.122,275.591 L219.076,353.806 C199,370 195,366 195.8,337.092 L195.8,174.857 C196,149 203,146 219.059,157.177 L346.147,236.861 C370,249 370,263 345.122,275.591 z" fill="#FFFFFF"/>
    </g>
  </g>
</svg>
